%TF.GenerationSoftware,KiCad,Pcbnew,8.0.6*%
%TF.CreationDate,2024-11-11T13:09:46+02:00*%
%TF.ProjectId,PC104_Debug_PCB,50433130-345f-4446-9562-75675f504342,rev?*%
%TF.SameCoordinates,Original*%
%TF.FileFunction,Legend,Top*%
%TF.FilePolarity,Positive*%
%FSLAX46Y46*%
G04 Gerber Fmt 4.6, Leading zero omitted, Abs format (unit mm)*
G04 Created by KiCad (PCBNEW 8.0.6) date 2024-11-11 13:09:46*
%MOMM*%
%LPD*%
G01*
G04 APERTURE LIST*
%ADD10C,0.100000*%
%ADD11C,0.125000*%
%ADD12C,0.200000*%
%ADD13C,0.300000*%
%ADD14C,0.120000*%
G04 APERTURE END LIST*
D10*
X124000000Y-66412500D02*
X125100000Y-66412500D01*
X125500000Y-66412500D02*
X126075000Y-66412500D01*
X126075000Y-66412500D02*
X126075000Y-67512500D01*
X126075000Y-67912500D02*
X126075000Y-69012500D01*
X126075000Y-69412500D02*
X126075000Y-70512500D01*
X126075000Y-70912500D02*
X126075000Y-71087500D01*
X126075000Y-71087500D02*
X124975000Y-71087500D01*
X124575000Y-71087500D02*
X124000000Y-71087500D01*
X124000000Y-71087500D02*
X124000000Y-69987500D01*
X124000000Y-69587500D02*
X124000000Y-68487500D01*
X124000000Y-68087500D02*
X124000000Y-66987500D01*
X124000000Y-66587500D02*
X124000000Y-66412500D01*
X125750000Y-53312500D02*
X125770000Y-53312500D01*
X126170000Y-53312500D02*
X126190000Y-53312500D01*
X126590000Y-53312500D02*
X126610000Y-53312500D01*
X127010000Y-53312500D02*
X127030000Y-53312500D01*
X127430000Y-53312500D02*
X127450000Y-53312500D01*
X127850000Y-53312500D02*
X127870000Y-53312500D01*
X128270000Y-53312500D02*
X128290000Y-53312500D01*
X128690000Y-53312500D02*
X128710000Y-53312500D01*
X129110000Y-53312500D02*
X129130000Y-53312500D01*
X129530000Y-53312500D02*
X129550000Y-53312500D01*
X129950000Y-53312500D02*
X129970000Y-53312500D01*
X130370000Y-53312500D02*
X130390000Y-53312500D01*
X130790000Y-53312500D02*
X130810000Y-53312500D01*
X131210000Y-53312500D02*
X131230000Y-53312500D01*
X131250000Y-53312500D02*
X131250000Y-53332500D01*
X131250000Y-53732500D02*
X131250000Y-53752500D01*
X131250000Y-54152500D02*
X131250000Y-54172500D01*
X131250000Y-54572500D02*
X131250000Y-54592500D01*
X131250000Y-54992500D02*
X131250000Y-55012500D01*
X131250000Y-55412500D02*
X131250000Y-55432500D01*
X131250000Y-55832500D02*
X131250000Y-55852500D01*
X131250000Y-56252500D02*
X131250000Y-56272500D01*
X131250000Y-56672500D02*
X131250000Y-56692500D01*
X131250000Y-57092500D02*
X131250000Y-57112500D01*
X131250000Y-57512500D02*
X131250000Y-57532500D01*
X131250000Y-57932500D02*
X131250000Y-57952500D01*
X131250000Y-58352500D02*
X131250000Y-58372500D01*
X131250000Y-58772500D02*
X131250000Y-58792500D01*
X131250000Y-59192500D02*
X131250000Y-59212500D01*
X131250000Y-59612500D02*
X131250000Y-59632500D01*
X131250000Y-60032500D02*
X131250000Y-60052500D01*
X131250000Y-60452500D02*
X131250000Y-60472500D01*
X131250000Y-60872500D02*
X131250000Y-60892500D01*
X131250000Y-61292500D02*
X131250000Y-61312500D01*
X131250000Y-61712500D02*
X131250000Y-61732500D01*
X131250000Y-62132500D02*
X131250000Y-62152500D01*
X131250000Y-62552500D02*
X131250000Y-62572500D01*
X131250000Y-62972500D02*
X131250000Y-62992500D01*
X131250000Y-63392500D02*
X131250000Y-63412500D01*
X131250000Y-63812500D02*
X131250000Y-63832500D01*
X131250000Y-64232500D02*
X131250000Y-64252500D01*
X131250000Y-64487500D02*
X131230000Y-64487500D01*
X130830000Y-64487500D02*
X130810000Y-64487500D01*
X130410000Y-64487500D02*
X130390000Y-64487500D01*
X129990000Y-64487500D02*
X129970000Y-64487500D01*
X129570000Y-64487500D02*
X129550000Y-64487500D01*
X129150000Y-64487500D02*
X129130000Y-64487500D01*
X128730000Y-64487500D02*
X128710000Y-64487500D01*
X128310000Y-64487500D02*
X128290000Y-64487500D01*
X127890000Y-64487500D02*
X127870000Y-64487500D01*
X127470000Y-64487500D02*
X127450000Y-64487500D01*
X127050000Y-64487500D02*
X127030000Y-64487500D01*
X126630000Y-64487500D02*
X126610000Y-64487500D01*
X126210000Y-64487500D02*
X126190000Y-64487500D01*
X125790000Y-64487500D02*
X125770000Y-64487500D01*
X125750000Y-64487500D02*
X125750000Y-64467500D01*
X125750000Y-64067500D02*
X125750000Y-64047500D01*
X125750000Y-63647500D02*
X125750000Y-63627500D01*
X125750000Y-63227500D02*
X125750000Y-63207500D01*
X125750000Y-62807500D02*
X125750000Y-62787500D01*
X125750000Y-62387500D02*
X125750000Y-62367500D01*
X125750000Y-61967500D02*
X125750000Y-61947500D01*
X125750000Y-61547500D02*
X125750000Y-61527500D01*
X125750000Y-61127500D02*
X125750000Y-61107500D01*
X125750000Y-60707500D02*
X125750000Y-60687500D01*
X125750000Y-60287500D02*
X125750000Y-60267500D01*
X125750000Y-59867500D02*
X125750000Y-59847500D01*
X125750000Y-59447500D02*
X125750000Y-59427500D01*
X125750000Y-59027500D02*
X125750000Y-59007500D01*
X125750000Y-58607500D02*
X125750000Y-58587500D01*
X125750000Y-58187500D02*
X125750000Y-58167500D01*
X125750000Y-57767500D02*
X125750000Y-57747500D01*
X125750000Y-57347500D02*
X125750000Y-57327500D01*
X125750000Y-56927500D02*
X125750000Y-56907500D01*
X125750000Y-56507500D02*
X125750000Y-56487500D01*
X125750000Y-56087500D02*
X125750000Y-56067500D01*
X125750000Y-55667500D02*
X125750000Y-55647500D01*
X125750000Y-55247500D02*
X125750000Y-55227500D01*
X125750000Y-54827500D02*
X125750000Y-54807500D01*
X125750000Y-54407500D02*
X125750000Y-54387500D01*
X125750000Y-53987500D02*
X125750000Y-53967500D01*
X125750000Y-53567500D02*
X125750000Y-53547500D01*
X103350000Y-68675000D02*
X105775000Y-68675000D01*
X96825000Y-77962500D02*
X96845000Y-77962500D01*
X97245000Y-77962500D02*
X97265000Y-77962500D01*
X97665000Y-77962500D02*
X97685000Y-77962500D01*
X98085000Y-77962500D02*
X98105000Y-77962500D01*
X98505000Y-77962500D02*
X98525000Y-77962500D01*
X98925000Y-77962500D02*
X98945000Y-77962500D01*
X99345000Y-77962500D02*
X99365000Y-77962500D01*
X99765000Y-77962500D02*
X99785000Y-77962500D01*
X100185000Y-77962500D02*
X100205000Y-77962500D01*
X100605000Y-77962500D02*
X100625000Y-77962500D01*
X101025000Y-77962500D02*
X101045000Y-77962500D01*
X101445000Y-77962500D02*
X101465000Y-77962500D01*
X101865000Y-77962500D02*
X101885000Y-77962500D01*
X102285000Y-77962500D02*
X102305000Y-77962500D01*
X102705000Y-77962500D02*
X102725000Y-77962500D01*
X103125000Y-77962500D02*
X103145000Y-77962500D01*
X103545000Y-77962500D02*
X103565000Y-77962500D01*
X103965000Y-77962500D02*
X103985000Y-77962500D01*
X104385000Y-77962500D02*
X104405000Y-77962500D01*
X104805000Y-77962500D02*
X104825000Y-77962500D01*
X105225000Y-77962500D02*
X105245000Y-77962500D01*
X105645000Y-77962500D02*
X105665000Y-77962500D01*
X106065000Y-77962500D02*
X106085000Y-77962500D01*
X106485000Y-77962500D02*
X106505000Y-77962500D01*
X106905000Y-77962500D02*
X106925000Y-77962500D01*
X107325000Y-77962500D02*
X107345000Y-77962500D01*
X107745000Y-77962500D02*
X107765000Y-77962500D01*
X108165000Y-77962500D02*
X108185000Y-77962500D01*
X108585000Y-77962500D02*
X108605000Y-77962500D01*
X109005000Y-77962500D02*
X109025000Y-77962500D01*
X109425000Y-77962500D02*
X109445000Y-77962500D01*
X109845000Y-77962500D02*
X109865000Y-77962500D01*
X110265000Y-77962500D02*
X110285000Y-77962500D01*
X110685000Y-77962500D02*
X110705000Y-77962500D01*
X111105000Y-77962500D02*
X111125000Y-77962500D01*
X111525000Y-77962500D02*
X111545000Y-77962500D01*
X111945000Y-77962500D02*
X111965000Y-77962500D01*
X112365000Y-77962500D02*
X112385000Y-77962500D01*
X112785000Y-77962500D02*
X112805000Y-77962500D01*
X113205000Y-77962500D02*
X113225000Y-77962500D01*
X113625000Y-77962500D02*
X113645000Y-77962500D01*
X114045000Y-77962500D02*
X114065000Y-77962500D01*
X114465000Y-77962500D02*
X114485000Y-77962500D01*
X114885000Y-77962500D02*
X114905000Y-77962500D01*
X115305000Y-77962500D02*
X115325000Y-77962500D01*
X115725000Y-77962500D02*
X115745000Y-77962500D01*
X116145000Y-77962500D02*
X116165000Y-77962500D01*
X116565000Y-77962500D02*
X116585000Y-77962500D01*
X116985000Y-77962500D02*
X117005000Y-77962500D01*
X117405000Y-77962500D02*
X117425000Y-77962500D01*
X117825000Y-77962500D02*
X117845000Y-77962500D01*
X118245000Y-77962500D02*
X118265000Y-77962500D01*
X118665000Y-77962500D02*
X118685000Y-77962500D01*
X119085000Y-77962500D02*
X119105000Y-77962500D01*
X119505000Y-77962500D02*
X119525000Y-77962500D01*
X119925000Y-77962500D02*
X119945000Y-77962500D01*
X120345000Y-77962500D02*
X120365000Y-77962500D01*
X120765000Y-77962500D02*
X120785000Y-77962500D01*
X121185000Y-77962500D02*
X121205000Y-77962500D01*
X121605000Y-77962500D02*
X121625000Y-77962500D01*
X122025000Y-77962500D02*
X122045000Y-77962500D01*
X122445000Y-77962500D02*
X122465000Y-77962500D01*
X122865000Y-77962500D02*
X122885000Y-77962500D01*
X123285000Y-77962500D02*
X123305000Y-77962500D01*
X123705000Y-77962500D02*
X123725000Y-77962500D01*
X124125000Y-77962500D02*
X124145000Y-77962500D01*
X124545000Y-77962500D02*
X124565000Y-77962500D01*
X124965000Y-77962500D02*
X124985000Y-77962500D01*
X125385000Y-77962500D02*
X125405000Y-77962500D01*
X125805000Y-77962500D02*
X125825000Y-77962500D01*
X126225000Y-77962500D02*
X126245000Y-77962500D01*
X126645000Y-77962500D02*
X126665000Y-77962500D01*
X127065000Y-77962500D02*
X127085000Y-77962500D01*
X127485000Y-77962500D02*
X127505000Y-77962500D01*
X127905000Y-77962500D02*
X127925000Y-77962500D01*
X128325000Y-77962500D02*
X128345000Y-77962500D01*
X128745000Y-77962500D02*
X128765000Y-77962500D01*
X129150000Y-77962500D02*
X129150000Y-77982500D01*
X129150000Y-78382500D02*
X129150000Y-78402500D01*
X129150000Y-78802500D02*
X129150000Y-78822500D01*
X129150000Y-79222500D02*
X129150000Y-79242500D01*
X129150000Y-79642500D02*
X129150000Y-79662500D01*
X129150000Y-80062500D02*
X129150000Y-80082500D01*
X129150000Y-80482500D02*
X129150000Y-80502500D01*
X129150000Y-80902500D02*
X129150000Y-80922500D01*
X129150000Y-81322500D02*
X129150000Y-81342500D01*
X129150000Y-81742500D02*
X129150000Y-81762500D01*
X129150000Y-82162500D02*
X129150000Y-82182500D01*
X129150000Y-82582500D02*
X129150000Y-82602500D01*
X129150000Y-83002500D02*
X129150000Y-83022500D01*
X129150000Y-83422500D02*
X129150000Y-83442500D01*
X129150000Y-83842500D02*
X129150000Y-83862500D01*
X129150000Y-84262500D02*
X129150000Y-84282500D01*
X129150000Y-84682500D02*
X129150000Y-84702500D01*
X129150000Y-85102500D02*
X129150000Y-85122500D01*
X129150000Y-85522500D02*
X129150000Y-85542500D01*
X129150000Y-85942500D02*
X129150000Y-85962500D01*
X129150000Y-86362500D02*
X129150000Y-86382500D01*
X129150000Y-86782500D02*
X129150000Y-86802500D01*
X129150000Y-86862500D02*
X129130000Y-86862500D01*
X128730000Y-86862500D02*
X128710000Y-86862500D01*
X128310000Y-86862500D02*
X128290000Y-86862500D01*
X127890000Y-86862500D02*
X127870000Y-86862500D01*
X127470000Y-86862500D02*
X127450000Y-86862500D01*
X127050000Y-86862500D02*
X127030000Y-86862500D01*
X126630000Y-86862500D02*
X126610000Y-86862500D01*
X126210000Y-86862500D02*
X126190000Y-86862500D01*
X125790000Y-86862500D02*
X125770000Y-86862500D01*
X125370000Y-86862500D02*
X125350000Y-86862500D01*
X124950000Y-86862500D02*
X124930000Y-86862500D01*
X124530000Y-86862500D02*
X124510000Y-86862500D01*
X124110000Y-86862500D02*
X124090000Y-86862500D01*
X123690000Y-86862500D02*
X123670000Y-86862500D01*
X123270000Y-86862500D02*
X123250000Y-86862500D01*
X122850000Y-86862500D02*
X122830000Y-86862500D01*
X122430000Y-86862500D02*
X122410000Y-86862500D01*
X122010000Y-86862500D02*
X121990000Y-86862500D01*
X121590000Y-86862500D02*
X121570000Y-86862500D01*
X121170000Y-86862500D02*
X121150000Y-86862500D01*
X120750000Y-86862500D02*
X120730000Y-86862500D01*
X120330000Y-86862500D02*
X120310000Y-86862500D01*
X119910000Y-86862500D02*
X119890000Y-86862500D01*
X119490000Y-86862500D02*
X119470000Y-86862500D01*
X119070000Y-86862500D02*
X119050000Y-86862500D01*
X118650000Y-86862500D02*
X118630000Y-86862500D01*
X118230000Y-86862500D02*
X118210000Y-86862500D01*
X117810000Y-86862500D02*
X117790000Y-86862500D01*
X117390000Y-86862500D02*
X117370000Y-86862500D01*
X116970000Y-86862500D02*
X116950000Y-86862500D01*
X116550000Y-86862500D02*
X116530000Y-86862500D01*
X116130000Y-86862500D02*
X116110000Y-86862500D01*
X115710000Y-86862500D02*
X115690000Y-86862500D01*
X115290000Y-86862500D02*
X115270000Y-86862500D01*
X114870000Y-86862500D02*
X114850000Y-86862500D01*
X114450000Y-86862500D02*
X114430000Y-86862500D01*
X114030000Y-86862500D02*
X114010000Y-86862500D01*
X113610000Y-86862500D02*
X113590000Y-86862500D01*
X113190000Y-86862500D02*
X113170000Y-86862500D01*
X112770000Y-86862500D02*
X112750000Y-86862500D01*
X112350000Y-86862500D02*
X112330000Y-86862500D01*
X111930000Y-86862500D02*
X111910000Y-86862500D01*
X111510000Y-86862500D02*
X111490000Y-86862500D01*
X111090000Y-86862500D02*
X111070000Y-86862500D01*
X110670000Y-86862500D02*
X110650000Y-86862500D01*
X110250000Y-86862500D02*
X110230000Y-86862500D01*
X109830000Y-86862500D02*
X109810000Y-86862500D01*
X109410000Y-86862500D02*
X109390000Y-86862500D01*
X108990000Y-86862500D02*
X108970000Y-86862500D01*
X108570000Y-86862500D02*
X108550000Y-86862500D01*
X108150000Y-86862500D02*
X108130000Y-86862500D01*
X107730000Y-86862500D02*
X107710000Y-86862500D01*
X107310000Y-86862500D02*
X107290000Y-86862500D01*
X106890000Y-86862500D02*
X106870000Y-86862500D01*
X106470000Y-86862500D02*
X106450000Y-86862500D01*
X106050000Y-86862500D02*
X106030000Y-86862500D01*
X105630000Y-86862500D02*
X105610000Y-86862500D01*
X105210000Y-86862500D02*
X105190000Y-86862500D01*
X104790000Y-86862500D02*
X104770000Y-86862500D01*
X104370000Y-86862500D02*
X104350000Y-86862500D01*
X103950000Y-86862500D02*
X103930000Y-86862500D01*
X103530000Y-86862500D02*
X103510000Y-86862500D01*
X103110000Y-86862500D02*
X103090000Y-86862500D01*
X102690000Y-86862500D02*
X102670000Y-86862500D01*
X102270000Y-86862500D02*
X102250000Y-86862500D01*
X101850000Y-86862500D02*
X101830000Y-86862500D01*
X101430000Y-86862500D02*
X101410000Y-86862500D01*
X101010000Y-86862500D02*
X100990000Y-86862500D01*
X100590000Y-86862500D02*
X100570000Y-86862500D01*
X100170000Y-86862500D02*
X100150000Y-86862500D01*
X99750000Y-86862500D02*
X99730000Y-86862500D01*
X99330000Y-86862500D02*
X99310000Y-86862500D01*
X98910000Y-86862500D02*
X98890000Y-86862500D01*
X98490000Y-86862500D02*
X98470000Y-86862500D01*
X98070000Y-86862500D02*
X98050000Y-86862500D01*
X97650000Y-86862500D02*
X97630000Y-86862500D01*
X97230000Y-86862500D02*
X97210000Y-86862500D01*
X96825000Y-86862500D02*
X96825000Y-86842500D01*
X96825000Y-86442500D02*
X96825000Y-86422500D01*
X96825000Y-86022500D02*
X96825000Y-86002500D01*
X96825000Y-85602500D02*
X96825000Y-85582500D01*
X96825000Y-85182500D02*
X96825000Y-85162500D01*
X96825000Y-84762500D02*
X96825000Y-84742500D01*
X96825000Y-84342500D02*
X96825000Y-84322500D01*
X96825000Y-83922500D02*
X96825000Y-83902500D01*
X96825000Y-83502500D02*
X96825000Y-83482500D01*
X96825000Y-83082500D02*
X96825000Y-83062500D01*
X96825000Y-82662500D02*
X96825000Y-82642500D01*
X96825000Y-82242500D02*
X96825000Y-82222500D01*
X96825000Y-81822500D02*
X96825000Y-81802500D01*
X96825000Y-81402500D02*
X96825000Y-81382500D01*
X96825000Y-80982500D02*
X96825000Y-80962500D01*
X96825000Y-80562500D02*
X96825000Y-80542500D01*
X96825000Y-80142500D02*
X96825000Y-80122500D01*
X96825000Y-79722500D02*
X96825000Y-79702500D01*
X96825000Y-79302500D02*
X96825000Y-79282500D01*
X96825000Y-78882500D02*
X96825000Y-78862500D01*
X96825000Y-78462500D02*
X96825000Y-78442500D01*
X96825000Y-78042500D02*
X96825000Y-78022500D01*
X148475000Y-54700000D02*
X148495000Y-54700000D01*
X148895000Y-54700000D02*
X148915000Y-54700000D01*
X149315000Y-54700000D02*
X149335000Y-54700000D01*
X149735000Y-54700000D02*
X149755000Y-54700000D01*
X150155000Y-54700000D02*
X150175000Y-54700000D01*
X150575000Y-54700000D02*
X150595000Y-54700000D01*
X150995000Y-54700000D02*
X151015000Y-54700000D01*
X151415000Y-54700000D02*
X151435000Y-54700000D01*
X151835000Y-54700000D02*
X151855000Y-54700000D01*
X152255000Y-54700000D02*
X152275000Y-54700000D01*
X152675000Y-54700000D02*
X152695000Y-54700000D01*
X153095000Y-54700000D02*
X153115000Y-54700000D01*
X153515000Y-54700000D02*
X153535000Y-54700000D01*
X153935000Y-54700000D02*
X153955000Y-54700000D01*
X154355000Y-54700000D02*
X154375000Y-54700000D01*
X154775000Y-54700000D02*
X154795000Y-54700000D01*
X155195000Y-54700000D02*
X155215000Y-54700000D01*
X155615000Y-54700000D02*
X155635000Y-54700000D01*
X156035000Y-54700000D02*
X156055000Y-54700000D01*
X156455000Y-54700000D02*
X156475000Y-54700000D01*
X156875000Y-54700000D02*
X156895000Y-54700000D01*
X157295000Y-54700000D02*
X157315000Y-54700000D01*
X157715000Y-54700000D02*
X157735000Y-54700000D01*
X158135000Y-54700000D02*
X158155000Y-54700000D01*
X158555000Y-54700000D02*
X158575000Y-54700000D01*
X158975000Y-54700000D02*
X158995000Y-54700000D01*
X159395000Y-54700000D02*
X159415000Y-54700000D01*
X159815000Y-54700000D02*
X159835000Y-54700000D01*
X160235000Y-54700000D02*
X160255000Y-54700000D01*
X160655000Y-54700000D02*
X160675000Y-54700000D01*
X161075000Y-54700000D02*
X161095000Y-54700000D01*
X161495000Y-54700000D02*
X161515000Y-54700000D01*
X161915000Y-54700000D02*
X161935000Y-54700000D01*
X162335000Y-54700000D02*
X162355000Y-54700000D01*
X162755000Y-54700000D02*
X162775000Y-54700000D01*
X163175000Y-54700000D02*
X163195000Y-54700000D01*
X163595000Y-54700000D02*
X163615000Y-54700000D01*
X164015000Y-54700000D02*
X164035000Y-54700000D01*
X164435000Y-54700000D02*
X164455000Y-54700000D01*
X164855000Y-54700000D02*
X164875000Y-54700000D01*
X165275000Y-54700000D02*
X165295000Y-54700000D01*
X165695000Y-54700000D02*
X165715000Y-54700000D01*
X166115000Y-54700000D02*
X166135000Y-54700000D01*
X166535000Y-54700000D02*
X166555000Y-54700000D01*
X166955000Y-54700000D02*
X166975000Y-54700000D01*
X167375000Y-54700000D02*
X167395000Y-54700000D01*
X167795000Y-54700000D02*
X167815000Y-54700000D01*
X168215000Y-54700000D02*
X168235000Y-54700000D01*
X168400000Y-54700000D02*
X168400000Y-54720000D01*
X168400000Y-55120000D02*
X168400000Y-55140000D01*
X168400000Y-55540000D02*
X168400000Y-55560000D01*
X168400000Y-55960000D02*
X168400000Y-55980000D01*
X168400000Y-56380000D02*
X168400000Y-56400000D01*
X168400000Y-56800000D02*
X168400000Y-56820000D01*
X168400000Y-57220000D02*
X168400000Y-57240000D01*
X168400000Y-57640000D02*
X168400000Y-57660000D01*
X168400000Y-58060000D02*
X168400000Y-58080000D01*
X168400000Y-58480000D02*
X168400000Y-58500000D01*
X168400000Y-58900000D02*
X168400000Y-58920000D01*
X168400000Y-59320000D02*
X168400000Y-59340000D01*
X168400000Y-59740000D02*
X168400000Y-59760000D01*
X168400000Y-60160000D02*
X168400000Y-60180000D01*
X168400000Y-60580000D02*
X168400000Y-60600000D01*
X168400000Y-61000000D02*
X168400000Y-61020000D01*
X168400000Y-61420000D02*
X168400000Y-61440000D01*
X168400000Y-61840000D02*
X168400000Y-61860000D01*
X168400000Y-62260000D02*
X168400000Y-62280000D01*
X168400000Y-62680000D02*
X168400000Y-62700000D01*
X168400000Y-63100000D02*
X168400000Y-63120000D01*
X168400000Y-63520000D02*
X168400000Y-63540000D01*
X168400000Y-63940000D02*
X168400000Y-63960000D01*
X168400000Y-64360000D02*
X168400000Y-64380000D01*
X168400000Y-64450000D02*
X168380000Y-64450000D01*
X167980000Y-64450000D02*
X167960000Y-64450000D01*
X167560000Y-64450000D02*
X167540000Y-64450000D01*
X167140000Y-64450000D02*
X167120000Y-64450000D01*
X166720000Y-64450000D02*
X166700000Y-64450000D01*
X166300000Y-64450000D02*
X166280000Y-64450000D01*
X165880000Y-64450000D02*
X165860000Y-64450000D01*
X165460000Y-64450000D02*
X165440000Y-64450000D01*
X165040000Y-64450000D02*
X165020000Y-64450000D01*
X164620000Y-64450000D02*
X164600000Y-64450000D01*
X164200000Y-64450000D02*
X164180000Y-64450000D01*
X163780000Y-64450000D02*
X163760000Y-64450000D01*
X163360000Y-64450000D02*
X163340000Y-64450000D01*
X162940000Y-64450000D02*
X162920000Y-64450000D01*
X162520000Y-64450000D02*
X162500000Y-64450000D01*
X162100000Y-64450000D02*
X162080000Y-64450000D01*
X161680000Y-64450000D02*
X161660000Y-64450000D01*
X161260000Y-64450000D02*
X161240000Y-64450000D01*
X160840000Y-64450000D02*
X160820000Y-64450000D01*
X160420000Y-64450000D02*
X160400000Y-64450000D01*
X160000000Y-64450000D02*
X159980000Y-64450000D01*
X159580000Y-64450000D02*
X159560000Y-64450000D01*
X159160000Y-64450000D02*
X159140000Y-64450000D01*
X158740000Y-64450000D02*
X158720000Y-64450000D01*
X158320000Y-64450000D02*
X158300000Y-64450000D01*
X157900000Y-64450000D02*
X157880000Y-64450000D01*
X157480000Y-64450000D02*
X157460000Y-64450000D01*
X157060000Y-64450000D02*
X157040000Y-64450000D01*
X156640000Y-64450000D02*
X156620000Y-64450000D01*
X156220000Y-64450000D02*
X156200000Y-64450000D01*
X155800000Y-64450000D02*
X155780000Y-64450000D01*
X155380000Y-64450000D02*
X155360000Y-64450000D01*
X154960000Y-64450000D02*
X154940000Y-64450000D01*
X154540000Y-64450000D02*
X154520000Y-64450000D01*
X154120000Y-64450000D02*
X154100000Y-64450000D01*
X153700000Y-64450000D02*
X153680000Y-64450000D01*
X153280000Y-64450000D02*
X153260000Y-64450000D01*
X152860000Y-64450000D02*
X152840000Y-64450000D01*
X152440000Y-64450000D02*
X152420000Y-64450000D01*
X152020000Y-64450000D02*
X152000000Y-64450000D01*
X151600000Y-64450000D02*
X151580000Y-64450000D01*
X151180000Y-64450000D02*
X151160000Y-64450000D01*
X150760000Y-64450000D02*
X150740000Y-64450000D01*
X150340000Y-64450000D02*
X150320000Y-64450000D01*
X149920000Y-64450000D02*
X149900000Y-64450000D01*
X149500000Y-64450000D02*
X149480000Y-64450000D01*
X149080000Y-64450000D02*
X149060000Y-64450000D01*
X148660000Y-64450000D02*
X148640000Y-64450000D01*
X148475000Y-64450000D02*
X148475000Y-64430000D01*
X148475000Y-64030000D02*
X148475000Y-64010000D01*
X148475000Y-63610000D02*
X148475000Y-63590000D01*
X148475000Y-63190000D02*
X148475000Y-63170000D01*
X148475000Y-62770000D02*
X148475000Y-62750000D01*
X148475000Y-62350000D02*
X148475000Y-62330000D01*
X148475000Y-61930000D02*
X148475000Y-61910000D01*
X148475000Y-61510000D02*
X148475000Y-61490000D01*
X148475000Y-61090000D02*
X148475000Y-61070000D01*
X148475000Y-60670000D02*
X148475000Y-60650000D01*
X148475000Y-60250000D02*
X148475000Y-60230000D01*
X148475000Y-59830000D02*
X148475000Y-59810000D01*
X148475000Y-59410000D02*
X148475000Y-59390000D01*
X148475000Y-58990000D02*
X148475000Y-58970000D01*
X148475000Y-58570000D02*
X148475000Y-58550000D01*
X148475000Y-58150000D02*
X148475000Y-58130000D01*
X148475000Y-57730000D02*
X148475000Y-57710000D01*
X148475000Y-57310000D02*
X148475000Y-57290000D01*
X148475000Y-56890000D02*
X148475000Y-56870000D01*
X148475000Y-56470000D02*
X148475000Y-56450000D01*
X148475000Y-56050000D02*
X148475000Y-56030000D01*
X148475000Y-55630000D02*
X148475000Y-55610000D01*
X148475000Y-55210000D02*
X148475000Y-55190000D01*
X148475000Y-54790000D02*
X148475000Y-54770000D01*
X111050000Y-66500000D02*
X111050000Y-69150000D01*
X88250000Y-55600000D02*
X88270000Y-55600000D01*
X88670000Y-55600000D02*
X88690000Y-55600000D01*
X89090000Y-55600000D02*
X89110000Y-55600000D01*
X89510000Y-55600000D02*
X89530000Y-55600000D01*
X89930000Y-55600000D02*
X89950000Y-55600000D01*
X90350000Y-55600000D02*
X90370000Y-55600000D01*
X90770000Y-55600000D02*
X90790000Y-55600000D01*
X91190000Y-55600000D02*
X91210000Y-55600000D01*
X91610000Y-55600000D02*
X91630000Y-55600000D01*
X92030000Y-55600000D02*
X92050000Y-55600000D01*
X92450000Y-55600000D02*
X92470000Y-55600000D01*
X92870000Y-55600000D02*
X92890000Y-55600000D01*
X93290000Y-55600000D02*
X93310000Y-55600000D01*
X93710000Y-55600000D02*
X93730000Y-55600000D01*
X94130000Y-55600000D02*
X94150000Y-55600000D01*
X94550000Y-55600000D02*
X94570000Y-55600000D01*
X94970000Y-55600000D02*
X94990000Y-55600000D01*
X95390000Y-55600000D02*
X95410000Y-55600000D01*
X95810000Y-55600000D02*
X95830000Y-55600000D01*
X96230000Y-55600000D02*
X96250000Y-55600000D01*
X96525000Y-55600000D02*
X96525000Y-55620000D01*
X96525000Y-56020000D02*
X96525000Y-56040000D01*
X96525000Y-56440000D02*
X96525000Y-56460000D01*
X96525000Y-56860000D02*
X96525000Y-56880000D01*
X96525000Y-57280000D02*
X96525000Y-57300000D01*
X96525000Y-57700000D02*
X96525000Y-57720000D01*
X96525000Y-58120000D02*
X96525000Y-58140000D01*
X96525000Y-58540000D02*
X96525000Y-58560000D01*
X96525000Y-58960000D02*
X96525000Y-58980000D01*
X96525000Y-59380000D02*
X96525000Y-59400000D01*
X96525000Y-59800000D02*
X96525000Y-59820000D01*
X96525000Y-60220000D02*
X96525000Y-60240000D01*
X96525000Y-60640000D02*
X96525000Y-60660000D01*
X96525000Y-61060000D02*
X96525000Y-61080000D01*
X96525000Y-61480000D02*
X96525000Y-61500000D01*
X96525000Y-61900000D02*
X96525000Y-61920000D01*
X96525000Y-62320000D02*
X96525000Y-62340000D01*
X96525000Y-62740000D02*
X96525000Y-62760000D01*
X96525000Y-63160000D02*
X96525000Y-63180000D01*
X96525000Y-63580000D02*
X96525000Y-63600000D01*
X96525000Y-64000000D02*
X96525000Y-64020000D01*
X96525000Y-64420000D02*
X96525000Y-64440000D01*
X96525000Y-64840000D02*
X96525000Y-64860000D01*
X96525000Y-65260000D02*
X96525000Y-65280000D01*
X96525000Y-65680000D02*
X96525000Y-65700000D01*
X96525000Y-66100000D02*
X96525000Y-66120000D01*
X96525000Y-66520000D02*
X96525000Y-66540000D01*
X96525000Y-66940000D02*
X96525000Y-66960000D01*
X96525000Y-67360000D02*
X96525000Y-67380000D01*
X96525000Y-67780000D02*
X96525000Y-67800000D01*
X96525000Y-68200000D02*
X96525000Y-68220000D01*
X96525000Y-68620000D02*
X96525000Y-68640000D01*
X96525000Y-69040000D02*
X96525000Y-69060000D01*
X96525000Y-69460000D02*
X96525000Y-69480000D01*
X96525000Y-69880000D02*
X96525000Y-69900000D01*
X96525000Y-70300000D02*
X96525000Y-70320000D01*
X96525000Y-70720000D02*
X96525000Y-70740000D01*
X96525000Y-71140000D02*
X96525000Y-71160000D01*
X96525000Y-71560000D02*
X96525000Y-71580000D01*
X96525000Y-71980000D02*
X96525000Y-72000000D01*
X96525000Y-72400000D02*
X96525000Y-72420000D01*
X96525000Y-72820000D02*
X96525000Y-72840000D01*
X96525000Y-73240000D02*
X96525000Y-73260000D01*
X96525000Y-73660000D02*
X96525000Y-73680000D01*
X96525000Y-74080000D02*
X96525000Y-74100000D01*
X96525000Y-74500000D02*
X96525000Y-74520000D01*
X96525000Y-74920000D02*
X96525000Y-74940000D01*
X96525000Y-75340000D02*
X96525000Y-75360000D01*
X96525000Y-75760000D02*
X96525000Y-75780000D01*
X96525000Y-76180000D02*
X96525000Y-76200000D01*
X96525000Y-76600000D02*
X96525000Y-76620000D01*
X96525000Y-77020000D02*
X96525000Y-77040000D01*
X96525000Y-77440000D02*
X96525000Y-77460000D01*
X96525000Y-77860000D02*
X96525000Y-77880000D01*
X96525000Y-78280000D02*
X96525000Y-78300000D01*
X96525000Y-78700000D02*
X96525000Y-78720000D01*
X96525000Y-79120000D02*
X96525000Y-79140000D01*
X96525000Y-79540000D02*
X96525000Y-79560000D01*
X96525000Y-79960000D02*
X96525000Y-79980000D01*
X96525000Y-80380000D02*
X96525000Y-80400000D01*
X96525000Y-80800000D02*
X96525000Y-80820000D01*
X96525000Y-81220000D02*
X96525000Y-81240000D01*
X96525000Y-81640000D02*
X96525000Y-81660000D01*
X96525000Y-82060000D02*
X96525000Y-82080000D01*
X96525000Y-82480000D02*
X96525000Y-82500000D01*
X96525000Y-82900000D02*
X96525000Y-82920000D01*
X96525000Y-83320000D02*
X96525000Y-83340000D01*
X96525000Y-83740000D02*
X96525000Y-83760000D01*
X96525000Y-84160000D02*
X96525000Y-84180000D01*
X96525000Y-84350000D02*
X96505000Y-84350000D01*
X96105000Y-84350000D02*
X96085000Y-84350000D01*
X95685000Y-84350000D02*
X95665000Y-84350000D01*
X95265000Y-84350000D02*
X95245000Y-84350000D01*
X94845000Y-84350000D02*
X94825000Y-84350000D01*
X94425000Y-84350000D02*
X94405000Y-84350000D01*
X94005000Y-84350000D02*
X93985000Y-84350000D01*
X93585000Y-84350000D02*
X93565000Y-84350000D01*
X93165000Y-84350000D02*
X93145000Y-84350000D01*
X92745000Y-84350000D02*
X92725000Y-84350000D01*
X92325000Y-84350000D02*
X92305000Y-84350000D01*
X91905000Y-84350000D02*
X91885000Y-84350000D01*
X91485000Y-84350000D02*
X91465000Y-84350000D01*
X91065000Y-84350000D02*
X91045000Y-84350000D01*
X90645000Y-84350000D02*
X90625000Y-84350000D01*
X90225000Y-84350000D02*
X90205000Y-84350000D01*
X89805000Y-84350000D02*
X89785000Y-84350000D01*
X89385000Y-84350000D02*
X89365000Y-84350000D01*
X88965000Y-84350000D02*
X88945000Y-84350000D01*
X88545000Y-84350000D02*
X88525000Y-84350000D01*
X88250000Y-84350000D02*
X88250000Y-84330000D01*
X88250000Y-83930000D02*
X88250000Y-83910000D01*
X88250000Y-83510000D02*
X88250000Y-83490000D01*
X88250000Y-83090000D02*
X88250000Y-83070000D01*
X88250000Y-82670000D02*
X88250000Y-82650000D01*
X88250000Y-82250000D02*
X88250000Y-82230000D01*
X88250000Y-81830000D02*
X88250000Y-81810000D01*
X88250000Y-81410000D02*
X88250000Y-81390000D01*
X88250000Y-80990000D02*
X88250000Y-80970000D01*
X88250000Y-80570000D02*
X88250000Y-80550000D01*
X88250000Y-80150000D02*
X88250000Y-80130000D01*
X88250000Y-79730000D02*
X88250000Y-79710000D01*
X88250000Y-79310000D02*
X88250000Y-79290000D01*
X88250000Y-78890000D02*
X88250000Y-78870000D01*
X88250000Y-78470000D02*
X88250000Y-78450000D01*
X88250000Y-78050000D02*
X88250000Y-78030000D01*
X88250000Y-77630000D02*
X88250000Y-77610000D01*
X88250000Y-77210000D02*
X88250000Y-77190000D01*
X88250000Y-76790000D02*
X88250000Y-76770000D01*
X88250000Y-76370000D02*
X88250000Y-76350000D01*
X88250000Y-75950000D02*
X88250000Y-75930000D01*
X88250000Y-75530000D02*
X88250000Y-75510000D01*
X88250000Y-75110000D02*
X88250000Y-75090000D01*
X88250000Y-74690000D02*
X88250000Y-74670000D01*
X88250000Y-74270000D02*
X88250000Y-74250000D01*
X88250000Y-73850000D02*
X88250000Y-73830000D01*
X88250000Y-73430000D02*
X88250000Y-73410000D01*
X88250000Y-73010000D02*
X88250000Y-72990000D01*
X88250000Y-72590000D02*
X88250000Y-72570000D01*
X88250000Y-72170000D02*
X88250000Y-72150000D01*
X88250000Y-71750000D02*
X88250000Y-71730000D01*
X88250000Y-71330000D02*
X88250000Y-71310000D01*
X88250000Y-70910000D02*
X88250000Y-70890000D01*
X88250000Y-70490000D02*
X88250000Y-70470000D01*
X88250000Y-70070000D02*
X88250000Y-70050000D01*
X88250000Y-69650000D02*
X88250000Y-69630000D01*
X88250000Y-69230000D02*
X88250000Y-69210000D01*
X88250000Y-68810000D02*
X88250000Y-68790000D01*
X88250000Y-68390000D02*
X88250000Y-68370000D01*
X88250000Y-67970000D02*
X88250000Y-67950000D01*
X88250000Y-67550000D02*
X88250000Y-67530000D01*
X88250000Y-67130000D02*
X88250000Y-67110000D01*
X88250000Y-66710000D02*
X88250000Y-66690000D01*
X88250000Y-66290000D02*
X88250000Y-66270000D01*
X88250000Y-65870000D02*
X88250000Y-65850000D01*
X88250000Y-65450000D02*
X88250000Y-65430000D01*
X88250000Y-65030000D02*
X88250000Y-65010000D01*
X88250000Y-64610000D02*
X88250000Y-64590000D01*
X88250000Y-64190000D02*
X88250000Y-64170000D01*
X88250000Y-63770000D02*
X88250000Y-63750000D01*
X88250000Y-63350000D02*
X88250000Y-63330000D01*
X88250000Y-62930000D02*
X88250000Y-62910000D01*
X88250000Y-62510000D02*
X88250000Y-62490000D01*
X88250000Y-62090000D02*
X88250000Y-62070000D01*
X88250000Y-61670000D02*
X88250000Y-61650000D01*
X88250000Y-61250000D02*
X88250000Y-61230000D01*
X88250000Y-60830000D02*
X88250000Y-60810000D01*
X88250000Y-60410000D02*
X88250000Y-60390000D01*
X88250000Y-59990000D02*
X88250000Y-59970000D01*
X88250000Y-59570000D02*
X88250000Y-59550000D01*
X88250000Y-59150000D02*
X88250000Y-59130000D01*
X88250000Y-58730000D02*
X88250000Y-58710000D01*
X88250000Y-58310000D02*
X88250000Y-58290000D01*
X88250000Y-57890000D02*
X88250000Y-57870000D01*
X88250000Y-57470000D02*
X88250000Y-57450000D01*
X88250000Y-57050000D02*
X88250000Y-57030000D01*
X88250000Y-56630000D02*
X88250000Y-56610000D01*
X88250000Y-56210000D02*
X88250000Y-56190000D01*
X88250000Y-55790000D02*
X88250000Y-55770000D01*
X161825000Y-73625000D02*
X164825000Y-73625000D01*
X164825000Y-76325000D01*
X157000000Y-76325000D01*
X157000000Y-71675000D01*
X161825000Y-71675000D01*
X161825000Y-73625000D01*
X98650000Y-69000000D02*
X99750000Y-69000000D01*
X100150000Y-69000000D02*
X100170000Y-69000000D01*
X100570000Y-69000000D02*
X101670000Y-69000000D01*
X102070000Y-69000000D02*
X102090000Y-69000000D01*
X102490000Y-69000000D02*
X103050000Y-69000000D01*
X103050000Y-69000000D02*
X103050000Y-70100000D01*
X103050000Y-70500000D02*
X103050000Y-70520000D01*
X103050000Y-70920000D02*
X103050000Y-72020000D01*
X103050000Y-72420000D02*
X103050000Y-72440000D01*
X103050000Y-72840000D02*
X103050000Y-73940000D01*
X103050000Y-74340000D02*
X103050000Y-74360000D01*
X103050000Y-74760000D02*
X103050000Y-75860000D01*
X103050000Y-76175000D02*
X101950000Y-76175000D01*
X101550000Y-76175000D02*
X101530000Y-76175000D01*
X101130000Y-76175000D02*
X100030000Y-76175000D01*
X99630000Y-76175000D02*
X99610000Y-76175000D01*
X99210000Y-76175000D02*
X98650000Y-76175000D01*
X98650000Y-76175000D02*
X98650000Y-75075000D01*
X98650000Y-74675000D02*
X98650000Y-74655000D01*
X98650000Y-74255000D02*
X98650000Y-73155000D01*
X98650000Y-72755000D02*
X98650000Y-72735000D01*
X98650000Y-72335000D02*
X98650000Y-71235000D01*
X98650000Y-70835000D02*
X98650000Y-70815000D01*
X98650000Y-70415000D02*
X98650000Y-69315000D01*
X142900000Y-78000000D02*
X142920000Y-78000000D01*
X143320000Y-78000000D02*
X143340000Y-78000000D01*
X143740000Y-78000000D02*
X143760000Y-78000000D01*
X144160000Y-78000000D02*
X144180000Y-78000000D01*
X144580000Y-78000000D02*
X144600000Y-78000000D01*
X145000000Y-78000000D02*
X145020000Y-78000000D01*
X145420000Y-78000000D02*
X145440000Y-78000000D01*
X145840000Y-78000000D02*
X145860000Y-78000000D01*
X146260000Y-78000000D02*
X146280000Y-78000000D01*
X146680000Y-78000000D02*
X146700000Y-78000000D01*
X147100000Y-78000000D02*
X147120000Y-78000000D01*
X147520000Y-78000000D02*
X147540000Y-78000000D01*
X147940000Y-78000000D02*
X147960000Y-78000000D01*
X148360000Y-78000000D02*
X148380000Y-78000000D01*
X148780000Y-78000000D02*
X148800000Y-78000000D01*
X149200000Y-78000000D02*
X149220000Y-78000000D01*
X149620000Y-78000000D02*
X149640000Y-78000000D01*
X150040000Y-78000000D02*
X150060000Y-78000000D01*
X150460000Y-78000000D02*
X150480000Y-78000000D01*
X150880000Y-78000000D02*
X150900000Y-78000000D01*
X151300000Y-78000000D02*
X151320000Y-78000000D01*
X151720000Y-78000000D02*
X151740000Y-78000000D01*
X152140000Y-78000000D02*
X152160000Y-78000000D01*
X152560000Y-78000000D02*
X152580000Y-78000000D01*
X152980000Y-78000000D02*
X153000000Y-78000000D01*
X153400000Y-78000000D02*
X153420000Y-78000000D01*
X153820000Y-78000000D02*
X153840000Y-78000000D01*
X154240000Y-78000000D02*
X154260000Y-78000000D01*
X154660000Y-78000000D02*
X154680000Y-78000000D01*
X155080000Y-78000000D02*
X155100000Y-78000000D01*
X155450000Y-78000000D02*
X155450000Y-78020000D01*
X155450000Y-78420000D02*
X155450000Y-78440000D01*
X155450000Y-78840000D02*
X155450000Y-78860000D01*
X155450000Y-79260000D02*
X155450000Y-79280000D01*
X155450000Y-79680000D02*
X155450000Y-79700000D01*
X155450000Y-80100000D02*
X155450000Y-80120000D01*
X155450000Y-80520000D02*
X155450000Y-80540000D01*
X155450000Y-80940000D02*
X155450000Y-80960000D01*
X155450000Y-81360000D02*
X155450000Y-81380000D01*
X155450000Y-81780000D02*
X155450000Y-81800000D01*
X155450000Y-82200000D02*
X155450000Y-82220000D01*
X155450000Y-82620000D02*
X155450000Y-82640000D01*
X155450000Y-83040000D02*
X155450000Y-83060000D01*
X155450000Y-83460000D02*
X155450000Y-83480000D01*
X155450000Y-83880000D02*
X155450000Y-83900000D01*
X155450000Y-84300000D02*
X155450000Y-84320000D01*
X155450000Y-84720000D02*
X155450000Y-84740000D01*
X155450000Y-85140000D02*
X155450000Y-85160000D01*
X155450000Y-85560000D02*
X155450000Y-85580000D01*
X155450000Y-85980000D02*
X155450000Y-86000000D01*
X155450000Y-86400000D02*
X155450000Y-86420000D01*
X155450000Y-86725000D02*
X155430000Y-86725000D01*
X155030000Y-86725000D02*
X155010000Y-86725000D01*
X154610000Y-86725000D02*
X154590000Y-86725000D01*
X154190000Y-86725000D02*
X154170000Y-86725000D01*
X153770000Y-86725000D02*
X153750000Y-86725000D01*
X153350000Y-86725000D02*
X153330000Y-86725000D01*
X152930000Y-86725000D02*
X152910000Y-86725000D01*
X152510000Y-86725000D02*
X152490000Y-86725000D01*
X152090000Y-86725000D02*
X152070000Y-86725000D01*
X151670000Y-86725000D02*
X151650000Y-86725000D01*
X151250000Y-86725000D02*
X151230000Y-86725000D01*
X150830000Y-86725000D02*
X150810000Y-86725000D01*
X150410000Y-86725000D02*
X150390000Y-86725000D01*
X149990000Y-86725000D02*
X149970000Y-86725000D01*
X149570000Y-86725000D02*
X149550000Y-86725000D01*
X149150000Y-86725000D02*
X149130000Y-86725000D01*
X148730000Y-86725000D02*
X148710000Y-86725000D01*
X148310000Y-86725000D02*
X148290000Y-86725000D01*
X147890000Y-86725000D02*
X147870000Y-86725000D01*
X147470000Y-86725000D02*
X147450000Y-86725000D01*
X147050000Y-86725000D02*
X147030000Y-86725000D01*
X146630000Y-86725000D02*
X146610000Y-86725000D01*
X146210000Y-86725000D02*
X146190000Y-86725000D01*
X145790000Y-86725000D02*
X145770000Y-86725000D01*
X145370000Y-86725000D02*
X145350000Y-86725000D01*
X144950000Y-86725000D02*
X144930000Y-86725000D01*
X144530000Y-86725000D02*
X144510000Y-86725000D01*
X144110000Y-86725000D02*
X144090000Y-86725000D01*
X143690000Y-86725000D02*
X143670000Y-86725000D01*
X143270000Y-86725000D02*
X143250000Y-86725000D01*
X142900000Y-86725000D02*
X142900000Y-86705000D01*
X142900000Y-86305000D02*
X142900000Y-86285000D01*
X142900000Y-85885000D02*
X142900000Y-85865000D01*
X142900000Y-85465000D02*
X142900000Y-85445000D01*
X142900000Y-85045000D02*
X142900000Y-85025000D01*
X142900000Y-84625000D02*
X142900000Y-84605000D01*
X142900000Y-84205000D02*
X142900000Y-84185000D01*
X142900000Y-83785000D02*
X142900000Y-83765000D01*
X142900000Y-83365000D02*
X142900000Y-83345000D01*
X142900000Y-82945000D02*
X142900000Y-82925000D01*
X142900000Y-82525000D02*
X142900000Y-82505000D01*
X142900000Y-82105000D02*
X142900000Y-82085000D01*
X142900000Y-81685000D02*
X142900000Y-81665000D01*
X142900000Y-81265000D02*
X142900000Y-81245000D01*
X142900000Y-80845000D02*
X142900000Y-80825000D01*
X142900000Y-80425000D02*
X142900000Y-80405000D01*
X142900000Y-80005000D02*
X142900000Y-79985000D01*
X142900000Y-79585000D02*
X142900000Y-79565000D01*
X142900000Y-79165000D02*
X142900000Y-79145000D01*
X142900000Y-78745000D02*
X142900000Y-78725000D01*
X142900000Y-78325000D02*
X142900000Y-78305000D01*
X103350000Y-66500000D02*
X108425000Y-66500000D01*
X113750000Y-66487500D02*
X114850000Y-66487500D01*
X115250000Y-66487500D02*
X115925000Y-66487500D01*
X115925000Y-66487500D02*
X115925000Y-67587500D01*
X115925000Y-67987500D02*
X115925000Y-69087500D01*
X115925000Y-69487500D02*
X115925000Y-70587500D01*
X115925000Y-70987500D02*
X115925000Y-71162500D01*
X115925000Y-71162500D02*
X114825000Y-71162500D01*
X114425000Y-71162500D02*
X113750000Y-71162500D01*
X113750000Y-71162500D02*
X113750000Y-70062500D01*
X113750000Y-69662500D02*
X113750000Y-68562500D01*
X113750000Y-68162500D02*
X113750000Y-67062500D01*
X113750000Y-66662500D02*
X113750000Y-66487500D01*
X96825000Y-53275000D02*
X96845000Y-53275000D01*
X97245000Y-53275000D02*
X97265000Y-53275000D01*
X97665000Y-53275000D02*
X97685000Y-53275000D01*
X98085000Y-53275000D02*
X98105000Y-53275000D01*
X98505000Y-53275000D02*
X98525000Y-53275000D01*
X98925000Y-53275000D02*
X98945000Y-53275000D01*
X99345000Y-53275000D02*
X99365000Y-53275000D01*
X99765000Y-53275000D02*
X99785000Y-53275000D01*
X100185000Y-53275000D02*
X100205000Y-53275000D01*
X100605000Y-53275000D02*
X100625000Y-53275000D01*
X101025000Y-53275000D02*
X101045000Y-53275000D01*
X101445000Y-53275000D02*
X101465000Y-53275000D01*
X101865000Y-53275000D02*
X101885000Y-53275000D01*
X102285000Y-53275000D02*
X102305000Y-53275000D01*
X102705000Y-53275000D02*
X102725000Y-53275000D01*
X103125000Y-53275000D02*
X103145000Y-53275000D01*
X103545000Y-53275000D02*
X103565000Y-53275000D01*
X103965000Y-53275000D02*
X103985000Y-53275000D01*
X104385000Y-53275000D02*
X104405000Y-53275000D01*
X104805000Y-53275000D02*
X104825000Y-53275000D01*
X105225000Y-53275000D02*
X105245000Y-53275000D01*
X105645000Y-53275000D02*
X105665000Y-53275000D01*
X106065000Y-53275000D02*
X106085000Y-53275000D01*
X106485000Y-53275000D02*
X106505000Y-53275000D01*
X106905000Y-53275000D02*
X106925000Y-53275000D01*
X107325000Y-53275000D02*
X107345000Y-53275000D01*
X107745000Y-53275000D02*
X107765000Y-53275000D01*
X108165000Y-53275000D02*
X108185000Y-53275000D01*
X108585000Y-53275000D02*
X108605000Y-53275000D01*
X109005000Y-53275000D02*
X109025000Y-53275000D01*
X109425000Y-53275000D02*
X109445000Y-53275000D01*
X109845000Y-53275000D02*
X109865000Y-53275000D01*
X110265000Y-53275000D02*
X110285000Y-53275000D01*
X110685000Y-53275000D02*
X110705000Y-53275000D01*
X111105000Y-53275000D02*
X111125000Y-53275000D01*
X111525000Y-53275000D02*
X111545000Y-53275000D01*
X111725000Y-53275000D02*
X111725000Y-53295000D01*
X111725000Y-53695000D02*
X111725000Y-53715000D01*
X111725000Y-54115000D02*
X111725000Y-54135000D01*
X111725000Y-54535000D02*
X111725000Y-54555000D01*
X111725000Y-54955000D02*
X111725000Y-54975000D01*
X111725000Y-55375000D02*
X111725000Y-55395000D01*
X111725000Y-55795000D02*
X111725000Y-55815000D01*
X111725000Y-56215000D02*
X111725000Y-56235000D01*
X111725000Y-56635000D02*
X111725000Y-56655000D01*
X111725000Y-57055000D02*
X111725000Y-57075000D01*
X111725000Y-57475000D02*
X111725000Y-57495000D01*
X111725000Y-57895000D02*
X111725000Y-57915000D01*
X111725000Y-58315000D02*
X111725000Y-58335000D01*
X111725000Y-58735000D02*
X111725000Y-58755000D01*
X111725000Y-59155000D02*
X111725000Y-59175000D01*
X111725000Y-59575000D02*
X111725000Y-59595000D01*
X111725000Y-59995000D02*
X111725000Y-60015000D01*
X111725000Y-60415000D02*
X111725000Y-60435000D01*
X111725000Y-60835000D02*
X111725000Y-60855000D01*
X111725000Y-61255000D02*
X111725000Y-61275000D01*
X111725000Y-61675000D02*
X111725000Y-61695000D01*
X111725000Y-62095000D02*
X111725000Y-62115000D01*
X111725000Y-62515000D02*
X111725000Y-62535000D01*
X111725000Y-62935000D02*
X111725000Y-62955000D01*
X111725000Y-63355000D02*
X111725000Y-63375000D01*
X111725000Y-63775000D02*
X111725000Y-63795000D01*
X111725000Y-64195000D02*
X111725000Y-64215000D01*
X111725000Y-64450000D02*
X111705000Y-64450000D01*
X111305000Y-64450000D02*
X111285000Y-64450000D01*
X110885000Y-64450000D02*
X110865000Y-64450000D01*
X110465000Y-64450000D02*
X110445000Y-64450000D01*
X110045000Y-64450000D02*
X110025000Y-64450000D01*
X109625000Y-64450000D02*
X109605000Y-64450000D01*
X109205000Y-64450000D02*
X109185000Y-64450000D01*
X108785000Y-64450000D02*
X108765000Y-64450000D01*
X108365000Y-64450000D02*
X108345000Y-64450000D01*
X107945000Y-64450000D02*
X107925000Y-64450000D01*
X107525000Y-64450000D02*
X107505000Y-64450000D01*
X107105000Y-64450000D02*
X107085000Y-64450000D01*
X106685000Y-64450000D02*
X106665000Y-64450000D01*
X106265000Y-64450000D02*
X106245000Y-64450000D01*
X105845000Y-64450000D02*
X105825000Y-64450000D01*
X105425000Y-64450000D02*
X105405000Y-64450000D01*
X105005000Y-64450000D02*
X104985000Y-64450000D01*
X104585000Y-64450000D02*
X104565000Y-64450000D01*
X104165000Y-64450000D02*
X104145000Y-64450000D01*
X103745000Y-64450000D02*
X103725000Y-64450000D01*
X103325000Y-64450000D02*
X103305000Y-64450000D01*
X102905000Y-64450000D02*
X102885000Y-64450000D01*
X102485000Y-64450000D02*
X102465000Y-64450000D01*
X102065000Y-64450000D02*
X102045000Y-64450000D01*
X101645000Y-64450000D02*
X101625000Y-64450000D01*
X101225000Y-64450000D02*
X101205000Y-64450000D01*
X100805000Y-64450000D02*
X100785000Y-64450000D01*
X100385000Y-64450000D02*
X100365000Y-64450000D01*
X99965000Y-64450000D02*
X99945000Y-64450000D01*
X99545000Y-64450000D02*
X99525000Y-64450000D01*
X99125000Y-64450000D02*
X99105000Y-64450000D01*
X98705000Y-64450000D02*
X98685000Y-64450000D01*
X98285000Y-64450000D02*
X98265000Y-64450000D01*
X97865000Y-64450000D02*
X97845000Y-64450000D01*
X97445000Y-64450000D02*
X97425000Y-64450000D01*
X97025000Y-64450000D02*
X97005000Y-64450000D01*
X96825000Y-64450000D02*
X96825000Y-64430000D01*
X96825000Y-64030000D02*
X96825000Y-64010000D01*
X96825000Y-63610000D02*
X96825000Y-63590000D01*
X96825000Y-63190000D02*
X96825000Y-63170000D01*
X96825000Y-62770000D02*
X96825000Y-62750000D01*
X96825000Y-62350000D02*
X96825000Y-62330000D01*
X96825000Y-61930000D02*
X96825000Y-61910000D01*
X96825000Y-61510000D02*
X96825000Y-61490000D01*
X96825000Y-61090000D02*
X96825000Y-61070000D01*
X96825000Y-60670000D02*
X96825000Y-60650000D01*
X96825000Y-60250000D02*
X96825000Y-60230000D01*
X96825000Y-59830000D02*
X96825000Y-59810000D01*
X96825000Y-59410000D02*
X96825000Y-59390000D01*
X96825000Y-58990000D02*
X96825000Y-58970000D01*
X96825000Y-58570000D02*
X96825000Y-58550000D01*
X96825000Y-58150000D02*
X96825000Y-58130000D01*
X96825000Y-57730000D02*
X96825000Y-57710000D01*
X96825000Y-57310000D02*
X96825000Y-57290000D01*
X96825000Y-56890000D02*
X96825000Y-56870000D01*
X96825000Y-56470000D02*
X96825000Y-56450000D01*
X96825000Y-56050000D02*
X96825000Y-56030000D01*
X96825000Y-55630000D02*
X96825000Y-55610000D01*
X96825000Y-55210000D02*
X96825000Y-55190000D01*
X96825000Y-54790000D02*
X96825000Y-54770000D01*
X96825000Y-54370000D02*
X96825000Y-54350000D01*
X96825000Y-53950000D02*
X96825000Y-53930000D01*
X96825000Y-53530000D02*
X96825000Y-53510000D01*
X111050000Y-66500000D02*
X108425000Y-66500000D01*
X154100000Y-71250000D02*
X151775000Y-71250000D01*
X151775000Y-73950000D01*
X149225000Y-73950000D01*
X149225000Y-76300000D01*
X146650000Y-76300000D01*
X146650000Y-66500000D01*
X154100000Y-66500000D01*
X154100000Y-71250000D01*
G36*
X154100000Y-71250000D02*
G01*
X151775000Y-71250000D01*
X151775000Y-73950000D01*
X149225000Y-73950000D01*
X149225000Y-76300000D01*
X146650000Y-76300000D01*
X146650000Y-66500000D01*
X154100000Y-66500000D01*
X154100000Y-71250000D01*
G37*
X105775000Y-68675000D02*
X105775000Y-71175000D01*
X152025000Y-71500000D02*
X152025000Y-72600000D01*
X152025000Y-73000000D02*
X152025000Y-73020000D01*
X152025000Y-73420000D02*
X152025000Y-73975000D01*
X152025000Y-73975000D02*
X153125000Y-73975000D01*
X153525000Y-73975000D02*
X153545000Y-73975000D01*
X153945000Y-73975000D02*
X154350000Y-73975000D01*
X154350000Y-73975000D02*
X154350000Y-75075000D01*
X154350000Y-75475000D02*
X154350000Y-75495000D01*
X154350000Y-75895000D02*
X154350000Y-76325000D01*
X154350000Y-76325000D02*
X155450000Y-76325000D01*
X155850000Y-76325000D02*
X155870000Y-76325000D01*
X156270000Y-76325000D02*
X156700000Y-76325000D01*
X156700000Y-76325000D02*
X156700000Y-75225000D01*
X156700000Y-74825000D02*
X156700000Y-74805000D01*
X156700000Y-74405000D02*
X156700000Y-73305000D01*
X156700000Y-72905000D02*
X156700000Y-72885000D01*
X156700000Y-72485000D02*
X156700000Y-71385000D01*
X156700000Y-71375000D02*
X157800000Y-71375000D01*
X158200000Y-71375000D02*
X158220000Y-71375000D01*
X158620000Y-71375000D02*
X159720000Y-71375000D01*
X160120000Y-71375000D02*
X160140000Y-71375000D01*
X160540000Y-71375000D02*
X161640000Y-71375000D01*
X162040000Y-71375000D02*
X162060000Y-71375000D01*
X162460000Y-71375000D02*
X163560000Y-71375000D01*
X163960000Y-71375000D02*
X163980000Y-71375000D01*
X164380000Y-71375000D02*
X164875000Y-71375000D01*
X164875000Y-71375000D02*
X164875000Y-70275000D01*
X164875000Y-69875000D02*
X164875000Y-69855000D01*
X164875000Y-69455000D02*
X164875000Y-68355000D01*
X164875000Y-67955000D02*
X164875000Y-67935000D01*
X164875000Y-67535000D02*
X164875000Y-66435000D01*
X164875000Y-66425000D02*
X163775000Y-66425000D01*
X163375000Y-66425000D02*
X163355000Y-66425000D01*
X162955000Y-66425000D02*
X161855000Y-66425000D01*
X161455000Y-66425000D02*
X161435000Y-66425000D01*
X161035000Y-66425000D02*
X159935000Y-66425000D01*
X159535000Y-66425000D02*
X159515000Y-66425000D01*
X159115000Y-66425000D02*
X158015000Y-66425000D01*
X157615000Y-66425000D02*
X157595000Y-66425000D01*
X157195000Y-66425000D02*
X156095000Y-66425000D01*
X155695000Y-66425000D02*
X155675000Y-66425000D01*
X155275000Y-66425000D02*
X154500000Y-66425000D01*
X154500000Y-66425000D02*
X154500000Y-67525000D01*
X154500000Y-67925000D02*
X154500000Y-67945000D01*
X154500000Y-68345000D02*
X154500000Y-69445000D01*
X154500000Y-69845000D02*
X154500000Y-69865000D01*
X154500000Y-70265000D02*
X154500000Y-71365000D01*
X154500000Y-71500000D02*
X153400000Y-71500000D01*
X153000000Y-71500000D02*
X152980000Y-71500000D01*
X152580000Y-71500000D02*
X152025000Y-71500000D01*
X118937500Y-66450000D02*
X120037500Y-66450000D01*
X120437500Y-66450000D02*
X121537500Y-66450000D01*
X121937500Y-66450000D02*
X123037500Y-66450000D01*
X123437500Y-66450000D02*
X123612500Y-66450000D01*
X123612500Y-66450000D02*
X123612500Y-67550000D01*
X123612500Y-67950000D02*
X123612500Y-68525000D01*
X123612500Y-68525000D02*
X122512500Y-68525000D01*
X122112500Y-68525000D02*
X121012500Y-68525000D01*
X120612500Y-68525000D02*
X119512500Y-68525000D01*
X119112500Y-68525000D02*
X118937500Y-68525000D01*
X118937500Y-68525000D02*
X118937500Y-67425000D01*
X118937500Y-67025000D02*
X118937500Y-66450000D01*
X138950000Y-69000000D02*
X136650000Y-69000000D01*
X136625000Y-71150000D01*
X139000000Y-71175000D01*
X139025000Y-76275000D01*
X136200000Y-76275000D01*
X136225000Y-71675000D01*
X134075000Y-71650000D01*
X134075000Y-76325000D01*
X131375000Y-76300000D01*
X131375000Y-71275000D01*
X133925000Y-71275000D01*
X133925000Y-66375000D01*
X138925000Y-66375000D01*
X138950000Y-69000000D01*
G36*
X138950000Y-69000000D02*
G01*
X136650000Y-69000000D01*
X136625000Y-71150000D01*
X139000000Y-71175000D01*
X139025000Y-76275000D01*
X136200000Y-76275000D01*
X136225000Y-71675000D01*
X134075000Y-71650000D01*
X134075000Y-76325000D01*
X131375000Y-76300000D01*
X131375000Y-71275000D01*
X133925000Y-71275000D01*
X133925000Y-66375000D01*
X138925000Y-66375000D01*
X138950000Y-69000000D01*
G37*
X112200000Y-53287500D02*
X112220000Y-53287500D01*
X112620000Y-53287500D02*
X112640000Y-53287500D01*
X113040000Y-53287500D02*
X113060000Y-53287500D01*
X113460000Y-53287500D02*
X113480000Y-53287500D01*
X113880000Y-53287500D02*
X113900000Y-53287500D01*
X114300000Y-53287500D02*
X114320000Y-53287500D01*
X114720000Y-53287500D02*
X114740000Y-53287500D01*
X115140000Y-53287500D02*
X115160000Y-53287500D01*
X115560000Y-53287500D02*
X115580000Y-53287500D01*
X115980000Y-53287500D02*
X116000000Y-53287500D01*
X116400000Y-53287500D02*
X116420000Y-53287500D01*
X116820000Y-53287500D02*
X116840000Y-53287500D01*
X117240000Y-53287500D02*
X117260000Y-53287500D01*
X117660000Y-53287500D02*
X117680000Y-53287500D01*
X117700000Y-53287500D02*
X117700000Y-53307500D01*
X117700000Y-53707500D02*
X117700000Y-53727500D01*
X117700000Y-54127500D02*
X117700000Y-54147500D01*
X117700000Y-54547500D02*
X117700000Y-54567500D01*
X117700000Y-54967500D02*
X117700000Y-54987500D01*
X117700000Y-55387500D02*
X117700000Y-55407500D01*
X117700000Y-55807500D02*
X117700000Y-55827500D01*
X117700000Y-56227500D02*
X117700000Y-56247500D01*
X117700000Y-56647500D02*
X117700000Y-56667500D01*
X117700000Y-57067500D02*
X117700000Y-57087500D01*
X117700000Y-57487500D02*
X117700000Y-57507500D01*
X117700000Y-57907500D02*
X117700000Y-57927500D01*
X117700000Y-58327500D02*
X117700000Y-58347500D01*
X117700000Y-58747500D02*
X117700000Y-58767500D01*
X117700000Y-59167500D02*
X117700000Y-59187500D01*
X117700000Y-59587500D02*
X117700000Y-59607500D01*
X117700000Y-60007500D02*
X117700000Y-60027500D01*
X117700000Y-60427500D02*
X117700000Y-60447500D01*
X117700000Y-60847500D02*
X117700000Y-60867500D01*
X117700000Y-61267500D02*
X117700000Y-61287500D01*
X117700000Y-61687500D02*
X117700000Y-61707500D01*
X117700000Y-62107500D02*
X117700000Y-62127500D01*
X117700000Y-62527500D02*
X117700000Y-62547500D01*
X117700000Y-62947500D02*
X117700000Y-62967500D01*
X117700000Y-63367500D02*
X117700000Y-63387500D01*
X117700000Y-63787500D02*
X117700000Y-63807500D01*
X117700000Y-64207500D02*
X117700000Y-64227500D01*
X117700000Y-64462500D02*
X117680000Y-64462500D01*
X117280000Y-64462500D02*
X117260000Y-64462500D01*
X116860000Y-64462500D02*
X116840000Y-64462500D01*
X116440000Y-64462500D02*
X116420000Y-64462500D01*
X116020000Y-64462500D02*
X116000000Y-64462500D01*
X115600000Y-64462500D02*
X115580000Y-64462500D01*
X115180000Y-64462500D02*
X115160000Y-64462500D01*
X114760000Y-64462500D02*
X114740000Y-64462500D01*
X114340000Y-64462500D02*
X114320000Y-64462500D01*
X113920000Y-64462500D02*
X113900000Y-64462500D01*
X113500000Y-64462500D02*
X113480000Y-64462500D01*
X113080000Y-64462500D02*
X113060000Y-64462500D01*
X112660000Y-64462500D02*
X112640000Y-64462500D01*
X112240000Y-64462500D02*
X112220000Y-64462500D01*
X112200000Y-64462500D02*
X112200000Y-64442500D01*
X112200000Y-64042500D02*
X112200000Y-64022500D01*
X112200000Y-63622500D02*
X112200000Y-63602500D01*
X112200000Y-63202500D02*
X112200000Y-63182500D01*
X112200000Y-62782500D02*
X112200000Y-62762500D01*
X112200000Y-62362500D02*
X112200000Y-62342500D01*
X112200000Y-61942500D02*
X112200000Y-61922500D01*
X112200000Y-61522500D02*
X112200000Y-61502500D01*
X112200000Y-61102500D02*
X112200000Y-61082500D01*
X112200000Y-60682500D02*
X112200000Y-60662500D01*
X112200000Y-60262500D02*
X112200000Y-60242500D01*
X112200000Y-59842500D02*
X112200000Y-59822500D01*
X112200000Y-59422500D02*
X112200000Y-59402500D01*
X112200000Y-59002500D02*
X112200000Y-58982500D01*
X112200000Y-58582500D02*
X112200000Y-58562500D01*
X112200000Y-58162500D02*
X112200000Y-58142500D01*
X112200000Y-57742500D02*
X112200000Y-57722500D01*
X112200000Y-57322500D02*
X112200000Y-57302500D01*
X112200000Y-56902500D02*
X112200000Y-56882500D01*
X112200000Y-56482500D02*
X112200000Y-56462500D01*
X112200000Y-56062500D02*
X112200000Y-56042500D01*
X112200000Y-55642500D02*
X112200000Y-55622500D01*
X112200000Y-55222500D02*
X112200000Y-55202500D01*
X112200000Y-54802500D02*
X112200000Y-54782500D01*
X112200000Y-54382500D02*
X112200000Y-54362500D01*
X112200000Y-53962500D02*
X112200000Y-53942500D01*
X112200000Y-53542500D02*
X112200000Y-53522500D01*
X132575000Y-53300000D02*
X132595000Y-53300000D01*
X132995000Y-53300000D02*
X133015000Y-53300000D01*
X133415000Y-53300000D02*
X133435000Y-53300000D01*
X133835000Y-53300000D02*
X133855000Y-53300000D01*
X134255000Y-53300000D02*
X134275000Y-53300000D01*
X134675000Y-53300000D02*
X134695000Y-53300000D01*
X135095000Y-53300000D02*
X135115000Y-53300000D01*
X135515000Y-53300000D02*
X135535000Y-53300000D01*
X135935000Y-53300000D02*
X135955000Y-53300000D01*
X136355000Y-53300000D02*
X136375000Y-53300000D01*
X136775000Y-53300000D02*
X136795000Y-53300000D01*
X137195000Y-53300000D02*
X137215000Y-53300000D01*
X137615000Y-53300000D02*
X137635000Y-53300000D01*
X138035000Y-53300000D02*
X138055000Y-53300000D01*
X138075000Y-53300000D02*
X138075000Y-53320000D01*
X138075000Y-53720000D02*
X138075000Y-53740000D01*
X138075000Y-54140000D02*
X138075000Y-54160000D01*
X138075000Y-54560000D02*
X138075000Y-54580000D01*
X138075000Y-54980000D02*
X138075000Y-55000000D01*
X138075000Y-55400000D02*
X138075000Y-55420000D01*
X138075000Y-55820000D02*
X138075000Y-55840000D01*
X138075000Y-56240000D02*
X138075000Y-56260000D01*
X138075000Y-56660000D02*
X138075000Y-56680000D01*
X138075000Y-57080000D02*
X138075000Y-57100000D01*
X138075000Y-57500000D02*
X138075000Y-57520000D01*
X138075000Y-57920000D02*
X138075000Y-57940000D01*
X138075000Y-58340000D02*
X138075000Y-58360000D01*
X138075000Y-58760000D02*
X138075000Y-58780000D01*
X138075000Y-59180000D02*
X138075000Y-59200000D01*
X138075000Y-59600000D02*
X138075000Y-59620000D01*
X138075000Y-60020000D02*
X138075000Y-60040000D01*
X138075000Y-60440000D02*
X138075000Y-60460000D01*
X138075000Y-60860000D02*
X138075000Y-60880000D01*
X138075000Y-61280000D02*
X138075000Y-61300000D01*
X138075000Y-61700000D02*
X138075000Y-61720000D01*
X138075000Y-62120000D02*
X138075000Y-62140000D01*
X138075000Y-62540000D02*
X138075000Y-62560000D01*
X138075000Y-62960000D02*
X138075000Y-62980000D01*
X138075000Y-63380000D02*
X138075000Y-63400000D01*
X138075000Y-63800000D02*
X138075000Y-63820000D01*
X138075000Y-64220000D02*
X138075000Y-64240000D01*
X138075000Y-64475000D02*
X138055000Y-64475000D01*
X137655000Y-64475000D02*
X137635000Y-64475000D01*
X137235000Y-64475000D02*
X137215000Y-64475000D01*
X136815000Y-64475000D02*
X136795000Y-64475000D01*
X136395000Y-64475000D02*
X136375000Y-64475000D01*
X135975000Y-64475000D02*
X135955000Y-64475000D01*
X135555000Y-64475000D02*
X135535000Y-64475000D01*
X135135000Y-64475000D02*
X135115000Y-64475000D01*
X134715000Y-64475000D02*
X134695000Y-64475000D01*
X134295000Y-64475000D02*
X134275000Y-64475000D01*
X133875000Y-64475000D02*
X133855000Y-64475000D01*
X133455000Y-64475000D02*
X133435000Y-64475000D01*
X133035000Y-64475000D02*
X133015000Y-64475000D01*
X132615000Y-64475000D02*
X132595000Y-64475000D01*
X132575000Y-64475000D02*
X132575000Y-64455000D01*
X132575000Y-64055000D02*
X132575000Y-64035000D01*
X132575000Y-63635000D02*
X132575000Y-63615000D01*
X132575000Y-63215000D02*
X132575000Y-63195000D01*
X132575000Y-62795000D02*
X132575000Y-62775000D01*
X132575000Y-62375000D02*
X132575000Y-62355000D01*
X132575000Y-61955000D02*
X132575000Y-61935000D01*
X132575000Y-61535000D02*
X132575000Y-61515000D01*
X132575000Y-61115000D02*
X132575000Y-61095000D01*
X132575000Y-60695000D02*
X132575000Y-60675000D01*
X132575000Y-60275000D02*
X132575000Y-60255000D01*
X132575000Y-59855000D02*
X132575000Y-59835000D01*
X132575000Y-59435000D02*
X132575000Y-59415000D01*
X132575000Y-59015000D02*
X132575000Y-58995000D01*
X132575000Y-58595000D02*
X132575000Y-58575000D01*
X132575000Y-58175000D02*
X132575000Y-58155000D01*
X132575000Y-57755000D02*
X132575000Y-57735000D01*
X132575000Y-57335000D02*
X132575000Y-57315000D01*
X132575000Y-56915000D02*
X132575000Y-56895000D01*
X132575000Y-56495000D02*
X132575000Y-56475000D01*
X132575000Y-56075000D02*
X132575000Y-56055000D01*
X132575000Y-55655000D02*
X132575000Y-55635000D01*
X132575000Y-55235000D02*
X132575000Y-55215000D01*
X132575000Y-54815000D02*
X132575000Y-54795000D01*
X132575000Y-54395000D02*
X132575000Y-54375000D01*
X132575000Y-53975000D02*
X132575000Y-53955000D01*
X132575000Y-53555000D02*
X132575000Y-53535000D01*
X119125000Y-53312500D02*
X119145000Y-53312500D01*
X119545000Y-53312500D02*
X119565000Y-53312500D01*
X119965000Y-53312500D02*
X119985000Y-53312500D01*
X120385000Y-53312500D02*
X120405000Y-53312500D01*
X120805000Y-53312500D02*
X120825000Y-53312500D01*
X121225000Y-53312500D02*
X121245000Y-53312500D01*
X121645000Y-53312500D02*
X121665000Y-53312500D01*
X122065000Y-53312500D02*
X122085000Y-53312500D01*
X122485000Y-53312500D02*
X122505000Y-53312500D01*
X122905000Y-53312500D02*
X122925000Y-53312500D01*
X123325000Y-53312500D02*
X123345000Y-53312500D01*
X123745000Y-53312500D02*
X123765000Y-53312500D01*
X124165000Y-53312500D02*
X124185000Y-53312500D01*
X124585000Y-53312500D02*
X124605000Y-53312500D01*
X124625000Y-53312500D02*
X124625000Y-53332500D01*
X124625000Y-53732500D02*
X124625000Y-53752500D01*
X124625000Y-54152500D02*
X124625000Y-54172500D01*
X124625000Y-54572500D02*
X124625000Y-54592500D01*
X124625000Y-54992500D02*
X124625000Y-55012500D01*
X124625000Y-55412500D02*
X124625000Y-55432500D01*
X124625000Y-55832500D02*
X124625000Y-55852500D01*
X124625000Y-56252500D02*
X124625000Y-56272500D01*
X124625000Y-56672500D02*
X124625000Y-56692500D01*
X124625000Y-57092500D02*
X124625000Y-57112500D01*
X124625000Y-57512500D02*
X124625000Y-57532500D01*
X124625000Y-57932500D02*
X124625000Y-57952500D01*
X124625000Y-58352500D02*
X124625000Y-58372500D01*
X124625000Y-58772500D02*
X124625000Y-58792500D01*
X124625000Y-59192500D02*
X124625000Y-59212500D01*
X124625000Y-59612500D02*
X124625000Y-59632500D01*
X124625000Y-60032500D02*
X124625000Y-60052500D01*
X124625000Y-60452500D02*
X124625000Y-60472500D01*
X124625000Y-60872500D02*
X124625000Y-60892500D01*
X124625000Y-61292500D02*
X124625000Y-61312500D01*
X124625000Y-61712500D02*
X124625000Y-61732500D01*
X124625000Y-62132500D02*
X124625000Y-62152500D01*
X124625000Y-62552500D02*
X124625000Y-62572500D01*
X124625000Y-62972500D02*
X124625000Y-62992500D01*
X124625000Y-63392500D02*
X124625000Y-63412500D01*
X124625000Y-63812500D02*
X124625000Y-63832500D01*
X124625000Y-64232500D02*
X124625000Y-64252500D01*
X124625000Y-64487500D02*
X124605000Y-64487500D01*
X124205000Y-64487500D02*
X124185000Y-64487500D01*
X123785000Y-64487500D02*
X123765000Y-64487500D01*
X123365000Y-64487500D02*
X123345000Y-64487500D01*
X122945000Y-64487500D02*
X122925000Y-64487500D01*
X122525000Y-64487500D02*
X122505000Y-64487500D01*
X122105000Y-64487500D02*
X122085000Y-64487500D01*
X121685000Y-64487500D02*
X121665000Y-64487500D01*
X121265000Y-64487500D02*
X121245000Y-64487500D01*
X120845000Y-64487500D02*
X120825000Y-64487500D01*
X120425000Y-64487500D02*
X120405000Y-64487500D01*
X120005000Y-64487500D02*
X119985000Y-64487500D01*
X119585000Y-64487500D02*
X119565000Y-64487500D01*
X119165000Y-64487500D02*
X119145000Y-64487500D01*
X119125000Y-64487500D02*
X119125000Y-64467500D01*
X119125000Y-64067500D02*
X119125000Y-64047500D01*
X119125000Y-63647500D02*
X119125000Y-63627500D01*
X119125000Y-63227500D02*
X119125000Y-63207500D01*
X119125000Y-62807500D02*
X119125000Y-62787500D01*
X119125000Y-62387500D02*
X119125000Y-62367500D01*
X119125000Y-61967500D02*
X119125000Y-61947500D01*
X119125000Y-61547500D02*
X119125000Y-61527500D01*
X119125000Y-61127500D02*
X119125000Y-61107500D01*
X119125000Y-60707500D02*
X119125000Y-60687500D01*
X119125000Y-60287500D02*
X119125000Y-60267500D01*
X119125000Y-59867500D02*
X119125000Y-59847500D01*
X119125000Y-59447500D02*
X119125000Y-59427500D01*
X119125000Y-59027500D02*
X119125000Y-59007500D01*
X119125000Y-58607500D02*
X119125000Y-58587500D01*
X119125000Y-58187500D02*
X119125000Y-58167500D01*
X119125000Y-57767500D02*
X119125000Y-57747500D01*
X119125000Y-57347500D02*
X119125000Y-57327500D01*
X119125000Y-56927500D02*
X119125000Y-56907500D01*
X119125000Y-56507500D02*
X119125000Y-56487500D01*
X119125000Y-56087500D02*
X119125000Y-56067500D01*
X119125000Y-55667500D02*
X119125000Y-55647500D01*
X119125000Y-55247500D02*
X119125000Y-55227500D01*
X119125000Y-54827500D02*
X119125000Y-54807500D01*
X119125000Y-54407500D02*
X119125000Y-54387500D01*
X119125000Y-53987500D02*
X119125000Y-53967500D01*
X119125000Y-53567500D02*
X119125000Y-53547500D01*
X129175000Y-66362500D02*
X133575000Y-66362500D01*
X133575000Y-71037500D01*
X129175000Y-71037500D01*
X129175000Y-66362500D01*
X105775000Y-71175000D02*
X111050000Y-71175000D01*
X133668452Y-78025000D02*
X133688452Y-78025000D01*
X134088452Y-78025000D02*
X134108452Y-78025000D01*
X134508452Y-78025000D02*
X134528452Y-78025000D01*
X134928452Y-78025000D02*
X134948452Y-78025000D01*
X135348452Y-78025000D02*
X135368452Y-78025000D01*
X135768452Y-78025000D02*
X135788452Y-78025000D01*
X136188452Y-78025000D02*
X136208452Y-78025000D01*
X136608452Y-78025000D02*
X136628452Y-78025000D01*
X137028452Y-78025000D02*
X137048452Y-78025000D01*
X137448452Y-78025000D02*
X137468452Y-78025000D01*
X137868452Y-78025000D02*
X137888452Y-78025000D01*
X138288452Y-78025000D02*
X138308452Y-78025000D01*
X138708452Y-78025000D02*
X138728452Y-78025000D01*
X139128452Y-78025000D02*
X139148452Y-78025000D01*
X139548452Y-78025000D02*
X139568452Y-78025000D01*
X139968452Y-78025000D02*
X139988452Y-78025000D01*
X140388452Y-78025000D02*
X140408452Y-78025000D01*
X140808452Y-78025000D02*
X140828452Y-78025000D01*
X141228452Y-78025000D02*
X141248452Y-78025000D01*
X141648452Y-78025000D02*
X141668452Y-78025000D01*
X142068452Y-78025000D02*
X142088452Y-78025000D01*
X142488452Y-78025000D02*
X142508452Y-78025000D01*
X142568452Y-78025000D02*
X142568452Y-78045000D01*
X142568452Y-78445000D02*
X142568452Y-78465000D01*
X142568452Y-78865000D02*
X142568452Y-78885000D01*
X142568452Y-79285000D02*
X142568452Y-79305000D01*
X142568452Y-79705000D02*
X142568452Y-79725000D01*
X142568452Y-80125000D02*
X142568452Y-80145000D01*
X142568452Y-80545000D02*
X142568452Y-80565000D01*
X142568452Y-80965000D02*
X142568452Y-80985000D01*
X142568452Y-81385000D02*
X142568452Y-81405000D01*
X142568452Y-81805000D02*
X142568452Y-81825000D01*
X142568452Y-82225000D02*
X142568452Y-82245000D01*
X142568452Y-82645000D02*
X142568452Y-82665000D01*
X142568452Y-83065000D02*
X142568452Y-83085000D01*
X142568452Y-83485000D02*
X142568452Y-83505000D01*
X142568452Y-83905000D02*
X142568452Y-83925000D01*
X142568452Y-84325000D02*
X142568452Y-84345000D01*
X142568452Y-84745000D02*
X142568452Y-84765000D01*
X142568452Y-85165000D02*
X142568452Y-85185000D01*
X142568452Y-85585000D02*
X142568452Y-85605000D01*
X142568452Y-86005000D02*
X142568452Y-86025000D01*
X142568452Y-86425000D02*
X142568452Y-86445000D01*
X142568452Y-86725000D02*
X142548452Y-86725000D01*
X142148452Y-86725000D02*
X142128452Y-86725000D01*
X141728452Y-86725000D02*
X141708452Y-86725000D01*
X141308452Y-86725000D02*
X141288452Y-86725000D01*
X140888452Y-86725000D02*
X140868452Y-86725000D01*
X140468452Y-86725000D02*
X140448452Y-86725000D01*
X140048452Y-86725000D02*
X140028452Y-86725000D01*
X139628452Y-86725000D02*
X139608452Y-86725000D01*
X139208452Y-86725000D02*
X139188452Y-86725000D01*
X138788452Y-86725000D02*
X138768452Y-86725000D01*
X138368452Y-86725000D02*
X138348452Y-86725000D01*
X137948452Y-86725000D02*
X137928452Y-86725000D01*
X137528452Y-86725000D02*
X137508452Y-86725000D01*
X137108452Y-86725000D02*
X137088452Y-86725000D01*
X136688452Y-86725000D02*
X136668452Y-86725000D01*
X136268452Y-86725000D02*
X136248452Y-86725000D01*
X135848452Y-86725000D02*
X135828452Y-86725000D01*
X135428452Y-86725000D02*
X135408452Y-86725000D01*
X135008452Y-86725000D02*
X134988452Y-86725000D01*
X134588452Y-86725000D02*
X134568452Y-86725000D01*
X134168452Y-86725000D02*
X134148452Y-86725000D01*
X133748452Y-86725000D02*
X133728452Y-86725000D01*
X133668452Y-86725000D02*
X133668452Y-86705000D01*
X133668452Y-86305000D02*
X133668452Y-86285000D01*
X133668452Y-85885000D02*
X133668452Y-85865000D01*
X133668452Y-85465000D02*
X133668452Y-85445000D01*
X133668452Y-85045000D02*
X133668452Y-85025000D01*
X133668452Y-84625000D02*
X133668452Y-84605000D01*
X133668452Y-84205000D02*
X133668452Y-84185000D01*
X133668452Y-83785000D02*
X133668452Y-83765000D01*
X133668452Y-83365000D02*
X133668452Y-83345000D01*
X133668452Y-82945000D02*
X133668452Y-82925000D01*
X133668452Y-82525000D02*
X133668452Y-82505000D01*
X133668452Y-82105000D02*
X133668452Y-82085000D01*
X133668452Y-81685000D02*
X133668452Y-81665000D01*
X133668452Y-81265000D02*
X133668452Y-81245000D01*
X133668452Y-80845000D02*
X133668452Y-80825000D01*
X133668452Y-80425000D02*
X133668452Y-80405000D01*
X133668452Y-80005000D02*
X133668452Y-79985000D01*
X133668452Y-79585000D02*
X133668452Y-79565000D01*
X133668452Y-79165000D02*
X133668452Y-79145000D01*
X133668452Y-78745000D02*
X133668452Y-78725000D01*
X133668452Y-78325000D02*
X133668452Y-78305000D01*
X111250000Y-66487500D02*
X112350000Y-66487500D01*
X112750000Y-66487500D02*
X113425000Y-66487500D01*
X113425000Y-66487500D02*
X113425000Y-67587500D01*
X113425000Y-67987500D02*
X113425000Y-69087500D01*
X113425000Y-69487500D02*
X113425000Y-70587500D01*
X113425000Y-70987500D02*
X113425000Y-71162500D01*
X113425000Y-71162500D02*
X112325000Y-71162500D01*
X111925000Y-71162500D02*
X111250000Y-71162500D01*
X111250000Y-71162500D02*
X111250000Y-70062500D01*
X111250000Y-69662500D02*
X111250000Y-68562500D01*
X111250000Y-68162500D02*
X111250000Y-67062500D01*
X111250000Y-66662500D02*
X111250000Y-66487500D01*
X103350000Y-66500000D02*
X103350000Y-68675000D01*
X111050000Y-71175000D02*
X111050000Y-69150000D01*
X149425000Y-74200000D02*
X150525000Y-74200000D01*
X150925000Y-74200000D02*
X150945000Y-74200000D01*
X151345000Y-74200000D02*
X152445000Y-74200000D01*
X152845000Y-74200000D02*
X152865000Y-74200000D01*
X153265000Y-74200000D02*
X154100000Y-74200000D01*
X154100000Y-74200000D02*
X154100000Y-75300000D01*
X154100000Y-75700000D02*
X154100000Y-75720000D01*
X154100000Y-76120000D02*
X154100000Y-76275000D01*
X154100000Y-76275000D02*
X153000000Y-76275000D01*
X152600000Y-76275000D02*
X152580000Y-76275000D01*
X152180000Y-76275000D02*
X151080000Y-76275000D01*
X150680000Y-76275000D02*
X150660000Y-76275000D01*
X150260000Y-76275000D02*
X149425000Y-76275000D01*
X149425000Y-76275000D02*
X149425000Y-75175000D01*
X149425000Y-74775000D02*
X149425000Y-74755000D01*
X149425000Y-74355000D02*
X149425000Y-74200000D01*
X139425000Y-57062500D02*
X139445000Y-57062500D01*
X139845000Y-57062500D02*
X139865000Y-57062500D01*
X140265000Y-57062500D02*
X140285000Y-57062500D01*
X140685000Y-57062500D02*
X140705000Y-57062500D01*
X141105000Y-57062500D02*
X141125000Y-57062500D01*
X141525000Y-57062500D02*
X141545000Y-57062500D01*
X141945000Y-57062500D02*
X141965000Y-57062500D01*
X142365000Y-57062500D02*
X142385000Y-57062500D01*
X142785000Y-57062500D02*
X142805000Y-57062500D01*
X143205000Y-57062500D02*
X143225000Y-57062500D01*
X143625000Y-57062500D02*
X143645000Y-57062500D01*
X144045000Y-57062500D02*
X144065000Y-57062500D01*
X144465000Y-57062500D02*
X144485000Y-57062500D01*
X144885000Y-57062500D02*
X144905000Y-57062500D01*
X145305000Y-57062500D02*
X145325000Y-57062500D01*
X145725000Y-57062500D02*
X145745000Y-57062500D01*
X146145000Y-57062500D02*
X146165000Y-57062500D01*
X146565000Y-57062500D02*
X146585000Y-57062500D01*
X146985000Y-57062500D02*
X147005000Y-57062500D01*
X147405000Y-57062500D02*
X147425000Y-57062500D01*
X147775000Y-57062500D02*
X147775000Y-57082500D01*
X147775000Y-57482500D02*
X147775000Y-57502500D01*
X147775000Y-57902500D02*
X147775000Y-57922500D01*
X147775000Y-58322500D02*
X147775000Y-58342500D01*
X147775000Y-58742500D02*
X147775000Y-58762500D01*
X147775000Y-59162500D02*
X147775000Y-59182500D01*
X147775000Y-59582500D02*
X147775000Y-59602500D01*
X147775000Y-60002500D02*
X147775000Y-60022500D01*
X147775000Y-60422500D02*
X147775000Y-60442500D01*
X147775000Y-60842500D02*
X147775000Y-60862500D01*
X147775000Y-61262500D02*
X147775000Y-61282500D01*
X147775000Y-61682500D02*
X147775000Y-61702500D01*
X147775000Y-62102500D02*
X147775000Y-62122500D01*
X147775000Y-62522500D02*
X147775000Y-62542500D01*
X147775000Y-62942500D02*
X147775000Y-62962500D01*
X147775000Y-63362500D02*
X147775000Y-63382500D01*
X147775000Y-63782500D02*
X147775000Y-63802500D01*
X147775000Y-64202500D02*
X147775000Y-64222500D01*
X147775000Y-64462500D02*
X147755000Y-64462500D01*
X147355000Y-64462500D02*
X147335000Y-64462500D01*
X146935000Y-64462500D02*
X146915000Y-64462500D01*
X146515000Y-64462500D02*
X146495000Y-64462500D01*
X146095000Y-64462500D02*
X146075000Y-64462500D01*
X145675000Y-64462500D02*
X145655000Y-64462500D01*
X145255000Y-64462500D02*
X145235000Y-64462500D01*
X144835000Y-64462500D02*
X144815000Y-64462500D01*
X144415000Y-64462500D02*
X144395000Y-64462500D01*
X143995000Y-64462500D02*
X143975000Y-64462500D01*
X143575000Y-64462500D02*
X143555000Y-64462500D01*
X143155000Y-64462500D02*
X143135000Y-64462500D01*
X142735000Y-64462500D02*
X142715000Y-64462500D01*
X142315000Y-64462500D02*
X142295000Y-64462500D01*
X141895000Y-64462500D02*
X141875000Y-64462500D01*
X141475000Y-64462500D02*
X141455000Y-64462500D01*
X141055000Y-64462500D02*
X141035000Y-64462500D01*
X140635000Y-64462500D02*
X140615000Y-64462500D01*
X140215000Y-64462500D02*
X140195000Y-64462500D01*
X139795000Y-64462500D02*
X139775000Y-64462500D01*
X139425000Y-64462500D02*
X139425000Y-64442500D01*
X139425000Y-64042500D02*
X139425000Y-64022500D01*
X139425000Y-63622500D02*
X139425000Y-63602500D01*
X139425000Y-63202500D02*
X139425000Y-63182500D01*
X139425000Y-62782500D02*
X139425000Y-62762500D01*
X139425000Y-62362500D02*
X139425000Y-62342500D01*
X139425000Y-61942500D02*
X139425000Y-61922500D01*
X139425000Y-61522500D02*
X139425000Y-61502500D01*
X139425000Y-61102500D02*
X139425000Y-61082500D01*
X139425000Y-60682500D02*
X139425000Y-60662500D01*
X139425000Y-60262500D02*
X139425000Y-60242500D01*
X139425000Y-59842500D02*
X139425000Y-59822500D01*
X139425000Y-59422500D02*
X139425000Y-59402500D01*
X139425000Y-59002500D02*
X139425000Y-58982500D01*
X139425000Y-58582500D02*
X139425000Y-58562500D01*
X139425000Y-58162500D02*
X139425000Y-58142500D01*
X139425000Y-57742500D02*
X139425000Y-57722500D01*
X139425000Y-57322500D02*
X139425000Y-57302500D01*
D11*
X89685404Y-72877287D02*
X89685404Y-72401097D01*
X89971119Y-72972525D02*
X88971119Y-72639192D01*
X88971119Y-72639192D02*
X89971119Y-72305859D01*
X89971119Y-71972525D02*
X88971119Y-71972525D01*
X88971119Y-71972525D02*
X88971119Y-71734430D01*
X88971119Y-71734430D02*
X89018738Y-71591573D01*
X89018738Y-71591573D02*
X89113976Y-71496335D01*
X89113976Y-71496335D02*
X89209214Y-71448716D01*
X89209214Y-71448716D02*
X89399690Y-71401097D01*
X89399690Y-71401097D02*
X89542547Y-71401097D01*
X89542547Y-71401097D02*
X89733023Y-71448716D01*
X89733023Y-71448716D02*
X89828261Y-71496335D01*
X89828261Y-71496335D02*
X89923500Y-71591573D01*
X89923500Y-71591573D02*
X89971119Y-71734430D01*
X89971119Y-71734430D02*
X89971119Y-71972525D01*
X89875880Y-70401097D02*
X89923500Y-70448716D01*
X89923500Y-70448716D02*
X89971119Y-70591573D01*
X89971119Y-70591573D02*
X89971119Y-70686811D01*
X89971119Y-70686811D02*
X89923500Y-70829668D01*
X89923500Y-70829668D02*
X89828261Y-70924906D01*
X89828261Y-70924906D02*
X89733023Y-70972525D01*
X89733023Y-70972525D02*
X89542547Y-71020144D01*
X89542547Y-71020144D02*
X89399690Y-71020144D01*
X89399690Y-71020144D02*
X89209214Y-70972525D01*
X89209214Y-70972525D02*
X89113976Y-70924906D01*
X89113976Y-70924906D02*
X89018738Y-70829668D01*
X89018738Y-70829668D02*
X88971119Y-70686811D01*
X88971119Y-70686811D02*
X88971119Y-70591573D01*
X88971119Y-70591573D02*
X89018738Y-70448716D01*
X89018738Y-70448716D02*
X89066357Y-70401097D01*
X89923500Y-70020144D02*
X89971119Y-69877287D01*
X89971119Y-69877287D02*
X89971119Y-69639192D01*
X89971119Y-69639192D02*
X89923500Y-69543954D01*
X89923500Y-69543954D02*
X89875880Y-69496335D01*
X89875880Y-69496335D02*
X89780642Y-69448716D01*
X89780642Y-69448716D02*
X89685404Y-69448716D01*
X89685404Y-69448716D02*
X89590166Y-69496335D01*
X89590166Y-69496335D02*
X89542547Y-69543954D01*
X89542547Y-69543954D02*
X89494928Y-69639192D01*
X89494928Y-69639192D02*
X89447309Y-69829668D01*
X89447309Y-69829668D02*
X89399690Y-69924906D01*
X89399690Y-69924906D02*
X89352071Y-69972525D01*
X89352071Y-69972525D02*
X89256833Y-70020144D01*
X89256833Y-70020144D02*
X89161595Y-70020144D01*
X89161595Y-70020144D02*
X89066357Y-69972525D01*
X89066357Y-69972525D02*
X89018738Y-69924906D01*
X89018738Y-69924906D02*
X88971119Y-69829668D01*
X88971119Y-69829668D02*
X88971119Y-69591573D01*
X88971119Y-69591573D02*
X89018738Y-69448716D01*
X135048902Y-83398500D02*
X135191759Y-83446119D01*
X135191759Y-83446119D02*
X135429854Y-83446119D01*
X135429854Y-83446119D02*
X135525092Y-83398500D01*
X135525092Y-83398500D02*
X135572711Y-83350880D01*
X135572711Y-83350880D02*
X135620330Y-83255642D01*
X135620330Y-83255642D02*
X135620330Y-83160404D01*
X135620330Y-83160404D02*
X135572711Y-83065166D01*
X135572711Y-83065166D02*
X135525092Y-83017547D01*
X135525092Y-83017547D02*
X135429854Y-82969928D01*
X135429854Y-82969928D02*
X135239378Y-82922309D01*
X135239378Y-82922309D02*
X135144140Y-82874690D01*
X135144140Y-82874690D02*
X135096521Y-82827071D01*
X135096521Y-82827071D02*
X135048902Y-82731833D01*
X135048902Y-82731833D02*
X135048902Y-82636595D01*
X135048902Y-82636595D02*
X135096521Y-82541357D01*
X135096521Y-82541357D02*
X135144140Y-82493738D01*
X135144140Y-82493738D02*
X135239378Y-82446119D01*
X135239378Y-82446119D02*
X135477473Y-82446119D01*
X135477473Y-82446119D02*
X135620330Y-82493738D01*
X136048902Y-83446119D02*
X136048902Y-82446119D01*
X136048902Y-82446119D02*
X136286997Y-82446119D01*
X136286997Y-82446119D02*
X136429854Y-82493738D01*
X136429854Y-82493738D02*
X136525092Y-82588976D01*
X136525092Y-82588976D02*
X136572711Y-82684214D01*
X136572711Y-82684214D02*
X136620330Y-82874690D01*
X136620330Y-82874690D02*
X136620330Y-83017547D01*
X136620330Y-83017547D02*
X136572711Y-83208023D01*
X136572711Y-83208023D02*
X136525092Y-83303261D01*
X136525092Y-83303261D02*
X136429854Y-83398500D01*
X136429854Y-83398500D02*
X136286997Y-83446119D01*
X136286997Y-83446119D02*
X136048902Y-83446119D01*
X137001283Y-83160404D02*
X137477473Y-83160404D01*
X136906045Y-83446119D02*
X137239378Y-82446119D01*
X137239378Y-82446119D02*
X137572711Y-83446119D01*
X91921119Y-68895740D02*
X91921119Y-69371930D01*
X91921119Y-69371930D02*
X90921119Y-69371930D01*
D12*
X130731504Y-62352945D02*
X130731504Y-61876755D01*
X131017219Y-62448183D02*
X130017219Y-62114850D01*
X130017219Y-62114850D02*
X131017219Y-61781517D01*
X131017219Y-61448183D02*
X130017219Y-61448183D01*
X130017219Y-61448183D02*
X130017219Y-61210088D01*
X130017219Y-61210088D02*
X130064838Y-61067231D01*
X130064838Y-61067231D02*
X130160076Y-60971993D01*
X130160076Y-60971993D02*
X130255314Y-60924374D01*
X130255314Y-60924374D02*
X130445790Y-60876755D01*
X130445790Y-60876755D02*
X130588647Y-60876755D01*
X130588647Y-60876755D02*
X130779123Y-60924374D01*
X130779123Y-60924374D02*
X130874361Y-60971993D01*
X130874361Y-60971993D02*
X130969600Y-61067231D01*
X130969600Y-61067231D02*
X131017219Y-61210088D01*
X131017219Y-61210088D02*
X131017219Y-61448183D01*
X130921980Y-59876755D02*
X130969600Y-59924374D01*
X130969600Y-59924374D02*
X131017219Y-60067231D01*
X131017219Y-60067231D02*
X131017219Y-60162469D01*
X131017219Y-60162469D02*
X130969600Y-60305326D01*
X130969600Y-60305326D02*
X130874361Y-60400564D01*
X130874361Y-60400564D02*
X130779123Y-60448183D01*
X130779123Y-60448183D02*
X130588647Y-60495802D01*
X130588647Y-60495802D02*
X130445790Y-60495802D01*
X130445790Y-60495802D02*
X130255314Y-60448183D01*
X130255314Y-60448183D02*
X130160076Y-60400564D01*
X130160076Y-60400564D02*
X130064838Y-60305326D01*
X130064838Y-60305326D02*
X130017219Y-60162469D01*
X130017219Y-60162469D02*
X130017219Y-60067231D01*
X130017219Y-60067231D02*
X130064838Y-59924374D01*
X130064838Y-59924374D02*
X130112457Y-59876755D01*
X130969600Y-59495802D02*
X131017219Y-59352945D01*
X131017219Y-59352945D02*
X131017219Y-59114850D01*
X131017219Y-59114850D02*
X130969600Y-59019612D01*
X130969600Y-59019612D02*
X130921980Y-58971993D01*
X130921980Y-58971993D02*
X130826742Y-58924374D01*
X130826742Y-58924374D02*
X130731504Y-58924374D01*
X130731504Y-58924374D02*
X130636266Y-58971993D01*
X130636266Y-58971993D02*
X130588647Y-59019612D01*
X130588647Y-59019612D02*
X130541028Y-59114850D01*
X130541028Y-59114850D02*
X130493409Y-59305326D01*
X130493409Y-59305326D02*
X130445790Y-59400564D01*
X130445790Y-59400564D02*
X130398171Y-59448183D01*
X130398171Y-59448183D02*
X130302933Y-59495802D01*
X130302933Y-59495802D02*
X130207695Y-59495802D01*
X130207695Y-59495802D02*
X130112457Y-59448183D01*
X130112457Y-59448183D02*
X130064838Y-59400564D01*
X130064838Y-59400564D02*
X130017219Y-59305326D01*
X130017219Y-59305326D02*
X130017219Y-59067231D01*
X130017219Y-59067231D02*
X130064838Y-58924374D01*
X131017219Y-57733897D02*
X130017219Y-57733897D01*
X130017219Y-57067231D02*
X130017219Y-56876755D01*
X130017219Y-56876755D02*
X130064838Y-56781517D01*
X130064838Y-56781517D02*
X130160076Y-56686279D01*
X130160076Y-56686279D02*
X130350552Y-56638660D01*
X130350552Y-56638660D02*
X130683885Y-56638660D01*
X130683885Y-56638660D02*
X130874361Y-56686279D01*
X130874361Y-56686279D02*
X130969600Y-56781517D01*
X130969600Y-56781517D02*
X131017219Y-56876755D01*
X131017219Y-56876755D02*
X131017219Y-57067231D01*
X131017219Y-57067231D02*
X130969600Y-57162469D01*
X130969600Y-57162469D02*
X130874361Y-57257707D01*
X130874361Y-57257707D02*
X130683885Y-57305326D01*
X130683885Y-57305326D02*
X130350552Y-57305326D01*
X130350552Y-57305326D02*
X130160076Y-57257707D01*
X130160076Y-57257707D02*
X130064838Y-57162469D01*
X130064838Y-57162469D02*
X130017219Y-57067231D01*
D10*
X113575313Y-53747419D02*
X114146741Y-53747419D01*
X113861027Y-54747419D02*
X113861027Y-53747419D01*
X114384837Y-54747419D02*
X114908646Y-54080752D01*
X114384837Y-54080752D02*
X114908646Y-54747419D01*
X112003884Y-65359919D02*
X112003884Y-66169442D01*
X112003884Y-66169442D02*
X112051503Y-66264680D01*
X112051503Y-66264680D02*
X112099122Y-66312300D01*
X112099122Y-66312300D02*
X112194360Y-66359919D01*
X112194360Y-66359919D02*
X112384836Y-66359919D01*
X112384836Y-66359919D02*
X112480074Y-66312300D01*
X112480074Y-66312300D02*
X112527693Y-66264680D01*
X112527693Y-66264680D02*
X112575312Y-66169442D01*
X112575312Y-66169442D02*
X112575312Y-65359919D01*
X152502693Y-56259538D02*
X152407455Y-56211919D01*
X152407455Y-56211919D02*
X152264598Y-56211919D01*
X152264598Y-56211919D02*
X152121741Y-56259538D01*
X152121741Y-56259538D02*
X152026503Y-56354776D01*
X152026503Y-56354776D02*
X151978884Y-56450014D01*
X151978884Y-56450014D02*
X151931265Y-56640490D01*
X151931265Y-56640490D02*
X151931265Y-56783347D01*
X151931265Y-56783347D02*
X151978884Y-56973823D01*
X151978884Y-56973823D02*
X152026503Y-57069061D01*
X152026503Y-57069061D02*
X152121741Y-57164300D01*
X152121741Y-57164300D02*
X152264598Y-57211919D01*
X152264598Y-57211919D02*
X152359836Y-57211919D01*
X152359836Y-57211919D02*
X152502693Y-57164300D01*
X152502693Y-57164300D02*
X152550312Y-57116680D01*
X152550312Y-57116680D02*
X152550312Y-56783347D01*
X152550312Y-56783347D02*
X152359836Y-56783347D01*
D11*
X155822117Y-83736175D02*
X155822117Y-82736175D01*
X155822117Y-82736175D02*
X156203069Y-82736175D01*
X156203069Y-82736175D02*
X156298307Y-82783794D01*
X156298307Y-82783794D02*
X156345926Y-82831413D01*
X156345926Y-82831413D02*
X156393545Y-82926651D01*
X156393545Y-82926651D02*
X156393545Y-83069508D01*
X156393545Y-83069508D02*
X156345926Y-83164746D01*
X156345926Y-83164746D02*
X156298307Y-83212365D01*
X156298307Y-83212365D02*
X156203069Y-83259984D01*
X156203069Y-83259984D02*
X155822117Y-83259984D01*
X156774498Y-83450460D02*
X157250688Y-83450460D01*
X156679260Y-83736175D02*
X157012593Y-82736175D01*
X157012593Y-82736175D02*
X157345926Y-83736175D01*
X157679260Y-83736175D02*
X157679260Y-82736175D01*
X157679260Y-82736175D02*
X158250688Y-83736175D01*
X158250688Y-83736175D02*
X158250688Y-82736175D01*
X158726879Y-83212365D02*
X159060212Y-83212365D01*
X159203069Y-83736175D02*
X158726879Y-83736175D01*
X158726879Y-83736175D02*
X158726879Y-82736175D01*
X158726879Y-82736175D02*
X159203069Y-82736175D01*
X160107831Y-83736175D02*
X159631641Y-83736175D01*
X159631641Y-83736175D02*
X159631641Y-82736175D01*
X160393546Y-83688556D02*
X160536403Y-83736175D01*
X160536403Y-83736175D02*
X160774498Y-83736175D01*
X160774498Y-83736175D02*
X160869736Y-83688556D01*
X160869736Y-83688556D02*
X160917355Y-83640936D01*
X160917355Y-83640936D02*
X160964974Y-83545698D01*
X160964974Y-83545698D02*
X160964974Y-83450460D01*
X160964974Y-83450460D02*
X160917355Y-83355222D01*
X160917355Y-83355222D02*
X160869736Y-83307603D01*
X160869736Y-83307603D02*
X160774498Y-83259984D01*
X160774498Y-83259984D02*
X160584022Y-83212365D01*
X160584022Y-83212365D02*
X160488784Y-83164746D01*
X160488784Y-83164746D02*
X160441165Y-83117127D01*
X160441165Y-83117127D02*
X160393546Y-83021889D01*
X160393546Y-83021889D02*
X160393546Y-82926651D01*
X160393546Y-82926651D02*
X160441165Y-82831413D01*
X160441165Y-82831413D02*
X160488784Y-82783794D01*
X160488784Y-82783794D02*
X160584022Y-82736175D01*
X160584022Y-82736175D02*
X160822117Y-82736175D01*
X160822117Y-82736175D02*
X160964974Y-82783794D01*
X157822117Y-84346119D02*
X157345927Y-84346119D01*
X157345927Y-84346119D02*
X157298308Y-84822309D01*
X157298308Y-84822309D02*
X157345927Y-84774690D01*
X157345927Y-84774690D02*
X157441165Y-84727071D01*
X157441165Y-84727071D02*
X157679260Y-84727071D01*
X157679260Y-84727071D02*
X157774498Y-84774690D01*
X157774498Y-84774690D02*
X157822117Y-84822309D01*
X157822117Y-84822309D02*
X157869736Y-84917547D01*
X157869736Y-84917547D02*
X157869736Y-85155642D01*
X157869736Y-85155642D02*
X157822117Y-85250880D01*
X157822117Y-85250880D02*
X157774498Y-85298500D01*
X157774498Y-85298500D02*
X157679260Y-85346119D01*
X157679260Y-85346119D02*
X157441165Y-85346119D01*
X157441165Y-85346119D02*
X157345927Y-85298500D01*
X157345927Y-85298500D02*
X157298308Y-85250880D01*
X158155451Y-84346119D02*
X158488784Y-85346119D01*
X158488784Y-85346119D02*
X158822117Y-84346119D01*
D10*
X150347932Y-59159919D02*
X150681265Y-60159919D01*
X150681265Y-60159919D02*
X151014598Y-59159919D01*
X151681265Y-59636109D02*
X151824122Y-59683728D01*
X151824122Y-59683728D02*
X151871741Y-59731347D01*
X151871741Y-59731347D02*
X151919360Y-59826585D01*
X151919360Y-59826585D02*
X151919360Y-59969442D01*
X151919360Y-59969442D02*
X151871741Y-60064680D01*
X151871741Y-60064680D02*
X151824122Y-60112300D01*
X151824122Y-60112300D02*
X151728884Y-60159919D01*
X151728884Y-60159919D02*
X151347932Y-60159919D01*
X151347932Y-60159919D02*
X151347932Y-59159919D01*
X151347932Y-59159919D02*
X151681265Y-59159919D01*
X151681265Y-59159919D02*
X151776503Y-59207538D01*
X151776503Y-59207538D02*
X151824122Y-59255157D01*
X151824122Y-59255157D02*
X151871741Y-59350395D01*
X151871741Y-59350395D02*
X151871741Y-59445633D01*
X151871741Y-59445633D02*
X151824122Y-59540871D01*
X151824122Y-59540871D02*
X151776503Y-59588490D01*
X151776503Y-59588490D02*
X151681265Y-59636109D01*
X151681265Y-59636109D02*
X151347932Y-59636109D01*
X152300313Y-59874204D02*
X152776503Y-59874204D01*
X152205075Y-60159919D02*
X152538408Y-59159919D01*
X152538408Y-59159919D02*
X152871741Y-60159919D01*
X153062218Y-59159919D02*
X153633646Y-59159919D01*
X153347932Y-60159919D02*
X153347932Y-59159919D01*
X164637217Y-59636109D02*
X164303884Y-59636109D01*
X164303884Y-60159919D02*
X164303884Y-59159919D01*
X164303884Y-59159919D02*
X164780074Y-59159919D01*
X104095550Y-54677180D02*
X104047931Y-54724800D01*
X104047931Y-54724800D02*
X103905074Y-54772419D01*
X103905074Y-54772419D02*
X103809836Y-54772419D01*
X103809836Y-54772419D02*
X103666979Y-54724800D01*
X103666979Y-54724800D02*
X103571741Y-54629561D01*
X103571741Y-54629561D02*
X103524122Y-54534323D01*
X103524122Y-54534323D02*
X103476503Y-54343847D01*
X103476503Y-54343847D02*
X103476503Y-54200990D01*
X103476503Y-54200990D02*
X103524122Y-54010514D01*
X103524122Y-54010514D02*
X103571741Y-53915276D01*
X103571741Y-53915276D02*
X103666979Y-53820038D01*
X103666979Y-53820038D02*
X103809836Y-53772419D01*
X103809836Y-53772419D02*
X103905074Y-53772419D01*
X103905074Y-53772419D02*
X104047931Y-53820038D01*
X104047931Y-53820038D02*
X104095550Y-53867657D01*
X105000312Y-54772419D02*
X104524122Y-54772419D01*
X104524122Y-54772419D02*
X104524122Y-53772419D01*
X105333646Y-54772419D02*
X105333646Y-53772419D01*
X105905074Y-54772419D02*
X105476503Y-54200990D01*
X105905074Y-53772419D02*
X105333646Y-54343847D01*
X153575312Y-83321055D02*
X153527693Y-83368675D01*
X153527693Y-83368675D02*
X153384836Y-83416294D01*
X153384836Y-83416294D02*
X153289598Y-83416294D01*
X153289598Y-83416294D02*
X153146741Y-83368675D01*
X153146741Y-83368675D02*
X153051503Y-83273436D01*
X153051503Y-83273436D02*
X153003884Y-83178198D01*
X153003884Y-83178198D02*
X152956265Y-82987722D01*
X152956265Y-82987722D02*
X152956265Y-82844865D01*
X152956265Y-82844865D02*
X153003884Y-82654389D01*
X153003884Y-82654389D02*
X153051503Y-82559151D01*
X153051503Y-82559151D02*
X153146741Y-82463913D01*
X153146741Y-82463913D02*
X153289598Y-82416294D01*
X153289598Y-82416294D02*
X153384836Y-82416294D01*
X153384836Y-82416294D02*
X153527693Y-82463913D01*
X153527693Y-82463913D02*
X153575312Y-82511532D01*
X135677693Y-65270038D02*
X135582455Y-65222419D01*
X135582455Y-65222419D02*
X135439598Y-65222419D01*
X135439598Y-65222419D02*
X135296741Y-65270038D01*
X135296741Y-65270038D02*
X135201503Y-65365276D01*
X135201503Y-65365276D02*
X135153884Y-65460514D01*
X135153884Y-65460514D02*
X135106265Y-65650990D01*
X135106265Y-65650990D02*
X135106265Y-65793847D01*
X135106265Y-65793847D02*
X135153884Y-65984323D01*
X135153884Y-65984323D02*
X135201503Y-66079561D01*
X135201503Y-66079561D02*
X135296741Y-66174800D01*
X135296741Y-66174800D02*
X135439598Y-66222419D01*
X135439598Y-66222419D02*
X135534836Y-66222419D01*
X135534836Y-66222419D02*
X135677693Y-66174800D01*
X135677693Y-66174800D02*
X135725312Y-66127180D01*
X135725312Y-66127180D02*
X135725312Y-65793847D01*
X135725312Y-65793847D02*
X135534836Y-65793847D01*
X136153884Y-66222419D02*
X136153884Y-65222419D01*
X136153884Y-65222419D02*
X136725312Y-66222419D01*
X136725312Y-66222419D02*
X136725312Y-65222419D01*
X137201503Y-66222419D02*
X137201503Y-65222419D01*
X137201503Y-65222419D02*
X137439598Y-65222419D01*
X137439598Y-65222419D02*
X137582455Y-65270038D01*
X137582455Y-65270038D02*
X137677693Y-65365276D01*
X137677693Y-65365276D02*
X137725312Y-65460514D01*
X137725312Y-65460514D02*
X137772931Y-65650990D01*
X137772931Y-65650990D02*
X137772931Y-65793847D01*
X137772931Y-65793847D02*
X137725312Y-65984323D01*
X137725312Y-65984323D02*
X137677693Y-66079561D01*
X137677693Y-66079561D02*
X137582455Y-66174800D01*
X137582455Y-66174800D02*
X137439598Y-66222419D01*
X137439598Y-66222419D02*
X137201503Y-66222419D01*
D11*
X91921119Y-64545740D02*
X91921119Y-65021930D01*
X91921119Y-65021930D02*
X90921119Y-65021930D01*
D10*
X134545550Y-54659919D02*
X134212217Y-54183728D01*
X133974122Y-54659919D02*
X133974122Y-53659919D01*
X133974122Y-53659919D02*
X134355074Y-53659919D01*
X134355074Y-53659919D02*
X134450312Y-53707538D01*
X134450312Y-53707538D02*
X134497931Y-53755157D01*
X134497931Y-53755157D02*
X134545550Y-53850395D01*
X134545550Y-53850395D02*
X134545550Y-53993252D01*
X134545550Y-53993252D02*
X134497931Y-54088490D01*
X134497931Y-54088490D02*
X134450312Y-54136109D01*
X134450312Y-54136109D02*
X134355074Y-54183728D01*
X134355074Y-54183728D02*
X133974122Y-54183728D01*
X134878884Y-54659919D02*
X135402693Y-53993252D01*
X134878884Y-53993252D02*
X135402693Y-54659919D01*
D11*
X116206641Y-83446119D02*
X116206641Y-82446119D01*
X116206641Y-82446119D02*
X116587593Y-82446119D01*
X116587593Y-82446119D02*
X116682831Y-82493738D01*
X116682831Y-82493738D02*
X116730450Y-82541357D01*
X116730450Y-82541357D02*
X116778069Y-82636595D01*
X116778069Y-82636595D02*
X116778069Y-82779452D01*
X116778069Y-82779452D02*
X116730450Y-82874690D01*
X116730450Y-82874690D02*
X116682831Y-82922309D01*
X116682831Y-82922309D02*
X116587593Y-82969928D01*
X116587593Y-82969928D02*
X116206641Y-82969928D01*
X117206641Y-83446119D02*
X117206641Y-82446119D01*
X117206641Y-82446119D02*
X117587593Y-82446119D01*
X117587593Y-82446119D02*
X117682831Y-82493738D01*
X117682831Y-82493738D02*
X117730450Y-82541357D01*
X117730450Y-82541357D02*
X117778069Y-82636595D01*
X117778069Y-82636595D02*
X117778069Y-82779452D01*
X117778069Y-82779452D02*
X117730450Y-82874690D01*
X117730450Y-82874690D02*
X117682831Y-82922309D01*
X117682831Y-82922309D02*
X117587593Y-82969928D01*
X117587593Y-82969928D02*
X117206641Y-82969928D01*
X118159022Y-83398500D02*
X118301879Y-83446119D01*
X118301879Y-83446119D02*
X118539974Y-83446119D01*
X118539974Y-83446119D02*
X118635212Y-83398500D01*
X118635212Y-83398500D02*
X118682831Y-83350880D01*
X118682831Y-83350880D02*
X118730450Y-83255642D01*
X118730450Y-83255642D02*
X118730450Y-83160404D01*
X118730450Y-83160404D02*
X118682831Y-83065166D01*
X118682831Y-83065166D02*
X118635212Y-83017547D01*
X118635212Y-83017547D02*
X118539974Y-82969928D01*
X118539974Y-82969928D02*
X118349498Y-82922309D01*
X118349498Y-82922309D02*
X118254260Y-82874690D01*
X118254260Y-82874690D02*
X118206641Y-82827071D01*
X118206641Y-82827071D02*
X118159022Y-82731833D01*
X118159022Y-82731833D02*
X118159022Y-82636595D01*
X118159022Y-82636595D02*
X118206641Y-82541357D01*
X118206641Y-82541357D02*
X118254260Y-82493738D01*
X118254260Y-82493738D02*
X118349498Y-82446119D01*
X118349498Y-82446119D02*
X118587593Y-82446119D01*
X118587593Y-82446119D02*
X118730450Y-82493738D01*
D10*
X149287217Y-82892484D02*
X149430074Y-82940103D01*
X149430074Y-82940103D02*
X149477693Y-82987722D01*
X149477693Y-82987722D02*
X149525312Y-83082960D01*
X149525312Y-83082960D02*
X149525312Y-83225817D01*
X149525312Y-83225817D02*
X149477693Y-83321055D01*
X149477693Y-83321055D02*
X149430074Y-83368675D01*
X149430074Y-83368675D02*
X149334836Y-83416294D01*
X149334836Y-83416294D02*
X148953884Y-83416294D01*
X148953884Y-83416294D02*
X148953884Y-82416294D01*
X148953884Y-82416294D02*
X149287217Y-82416294D01*
X149287217Y-82416294D02*
X149382455Y-82463913D01*
X149382455Y-82463913D02*
X149430074Y-82511532D01*
X149430074Y-82511532D02*
X149477693Y-82606770D01*
X149477693Y-82606770D02*
X149477693Y-82702008D01*
X149477693Y-82702008D02*
X149430074Y-82797246D01*
X149430074Y-82797246D02*
X149382455Y-82844865D01*
X149382455Y-82844865D02*
X149287217Y-82892484D01*
X149287217Y-82892484D02*
X148953884Y-82892484D01*
D11*
X91921119Y-73840978D02*
X90921119Y-73840978D01*
X91397309Y-73840978D02*
X91397309Y-73269550D01*
X91921119Y-73269550D02*
X90921119Y-73269550D01*
D10*
X120500313Y-59172419D02*
X121071741Y-59172419D01*
X120786027Y-60172419D02*
X120786027Y-59172419D01*
X121309837Y-60172419D02*
X121833646Y-59505752D01*
X121309837Y-59505752D02*
X121833646Y-60172419D01*
X119456265Y-66011704D02*
X119932455Y-66011704D01*
X119361027Y-66297419D02*
X119694360Y-65297419D01*
X119694360Y-65297419D02*
X120027693Y-66297419D01*
X120361027Y-66297419D02*
X120361027Y-65297419D01*
X120361027Y-65297419D02*
X120599122Y-65297419D01*
X120599122Y-65297419D02*
X120741979Y-65345038D01*
X120741979Y-65345038D02*
X120837217Y-65440276D01*
X120837217Y-65440276D02*
X120884836Y-65535514D01*
X120884836Y-65535514D02*
X120932455Y-65725990D01*
X120932455Y-65725990D02*
X120932455Y-65868847D01*
X120932455Y-65868847D02*
X120884836Y-66059323D01*
X120884836Y-66059323D02*
X120837217Y-66154561D01*
X120837217Y-66154561D02*
X120741979Y-66249800D01*
X120741979Y-66249800D02*
X120599122Y-66297419D01*
X120599122Y-66297419D02*
X120361027Y-66297419D01*
X121932455Y-66202180D02*
X121884836Y-66249800D01*
X121884836Y-66249800D02*
X121741979Y-66297419D01*
X121741979Y-66297419D02*
X121646741Y-66297419D01*
X121646741Y-66297419D02*
X121503884Y-66249800D01*
X121503884Y-66249800D02*
X121408646Y-66154561D01*
X121408646Y-66154561D02*
X121361027Y-66059323D01*
X121361027Y-66059323D02*
X121313408Y-65868847D01*
X121313408Y-65868847D02*
X121313408Y-65725990D01*
X121313408Y-65725990D02*
X121361027Y-65535514D01*
X121361027Y-65535514D02*
X121408646Y-65440276D01*
X121408646Y-65440276D02*
X121503884Y-65345038D01*
X121503884Y-65345038D02*
X121646741Y-65297419D01*
X121646741Y-65297419D02*
X121741979Y-65297419D01*
X121741979Y-65297419D02*
X121884836Y-65345038D01*
X121884836Y-65345038D02*
X121932455Y-65392657D01*
X122313408Y-66249800D02*
X122456265Y-66297419D01*
X122456265Y-66297419D02*
X122694360Y-66297419D01*
X122694360Y-66297419D02*
X122789598Y-66249800D01*
X122789598Y-66249800D02*
X122837217Y-66202180D01*
X122837217Y-66202180D02*
X122884836Y-66106942D01*
X122884836Y-66106942D02*
X122884836Y-66011704D01*
X122884836Y-66011704D02*
X122837217Y-65916466D01*
X122837217Y-65916466D02*
X122789598Y-65868847D01*
X122789598Y-65868847D02*
X122694360Y-65821228D01*
X122694360Y-65821228D02*
X122503884Y-65773609D01*
X122503884Y-65773609D02*
X122408646Y-65725990D01*
X122408646Y-65725990D02*
X122361027Y-65678371D01*
X122361027Y-65678371D02*
X122313408Y-65583133D01*
X122313408Y-65583133D02*
X122313408Y-65487895D01*
X122313408Y-65487895D02*
X122361027Y-65392657D01*
X122361027Y-65392657D02*
X122408646Y-65345038D01*
X122408646Y-65345038D02*
X122503884Y-65297419D01*
X122503884Y-65297419D02*
X122741979Y-65297419D01*
X122741979Y-65297419D02*
X122884836Y-65345038D01*
D11*
X89996119Y-81454668D02*
X88996119Y-81454668D01*
X88996119Y-81454668D02*
X89710404Y-81121335D01*
X89710404Y-81121335D02*
X88996119Y-80788002D01*
X88996119Y-80788002D02*
X89996119Y-80788002D01*
X89996119Y-79883240D02*
X89472309Y-79883240D01*
X89472309Y-79883240D02*
X89377071Y-79930859D01*
X89377071Y-79930859D02*
X89329452Y-80026097D01*
X89329452Y-80026097D02*
X89329452Y-80216573D01*
X89329452Y-80216573D02*
X89377071Y-80311811D01*
X89948500Y-79883240D02*
X89996119Y-79978478D01*
X89996119Y-79978478D02*
X89996119Y-80216573D01*
X89996119Y-80216573D02*
X89948500Y-80311811D01*
X89948500Y-80311811D02*
X89853261Y-80359430D01*
X89853261Y-80359430D02*
X89758023Y-80359430D01*
X89758023Y-80359430D02*
X89662785Y-80311811D01*
X89662785Y-80311811D02*
X89615166Y-80216573D01*
X89615166Y-80216573D02*
X89615166Y-79978478D01*
X89615166Y-79978478D02*
X89567547Y-79883240D01*
X89996119Y-79407049D02*
X89329452Y-79407049D01*
X88996119Y-79407049D02*
X89043738Y-79454668D01*
X89043738Y-79454668D02*
X89091357Y-79407049D01*
X89091357Y-79407049D02*
X89043738Y-79359430D01*
X89043738Y-79359430D02*
X88996119Y-79407049D01*
X88996119Y-79407049D02*
X89091357Y-79407049D01*
X89329452Y-78930859D02*
X89996119Y-78930859D01*
X89424690Y-78930859D02*
X89377071Y-78883240D01*
X89377071Y-78883240D02*
X89329452Y-78788002D01*
X89329452Y-78788002D02*
X89329452Y-78645145D01*
X89329452Y-78645145D02*
X89377071Y-78549907D01*
X89377071Y-78549907D02*
X89472309Y-78502288D01*
X89472309Y-78502288D02*
X89996119Y-78502288D01*
D12*
X137188125Y-86417219D02*
X137188125Y-85417219D01*
X137616696Y-85512457D02*
X137664315Y-85464838D01*
X137664315Y-85464838D02*
X137759553Y-85417219D01*
X137759553Y-85417219D02*
X137997648Y-85417219D01*
X137997648Y-85417219D02*
X138092886Y-85464838D01*
X138092886Y-85464838D02*
X138140505Y-85512457D01*
X138140505Y-85512457D02*
X138188124Y-85607695D01*
X138188124Y-85607695D02*
X138188124Y-85702933D01*
X138188124Y-85702933D02*
X138140505Y-85845790D01*
X138140505Y-85845790D02*
X137569077Y-86417219D01*
X137569077Y-86417219D02*
X138188124Y-86417219D01*
X139188124Y-86321980D02*
X139140505Y-86369600D01*
X139140505Y-86369600D02*
X138997648Y-86417219D01*
X138997648Y-86417219D02*
X138902410Y-86417219D01*
X138902410Y-86417219D02*
X138759553Y-86369600D01*
X138759553Y-86369600D02*
X138664315Y-86274361D01*
X138664315Y-86274361D02*
X138616696Y-86179123D01*
X138616696Y-86179123D02*
X138569077Y-85988647D01*
X138569077Y-85988647D02*
X138569077Y-85845790D01*
X138569077Y-85845790D02*
X138616696Y-85655314D01*
X138616696Y-85655314D02*
X138664315Y-85560076D01*
X138664315Y-85560076D02*
X138759553Y-85464838D01*
X138759553Y-85464838D02*
X138902410Y-85417219D01*
X138902410Y-85417219D02*
X138997648Y-85417219D01*
X138997648Y-85417219D02*
X139140505Y-85464838D01*
X139140505Y-85464838D02*
X139188124Y-85512457D01*
D13*
X91361653Y-57707971D02*
X91290225Y-57779400D01*
X91290225Y-57779400D02*
X91075939Y-57850828D01*
X91075939Y-57850828D02*
X90933082Y-57850828D01*
X90933082Y-57850828D02*
X90718796Y-57779400D01*
X90718796Y-57779400D02*
X90575939Y-57636542D01*
X90575939Y-57636542D02*
X90504510Y-57493685D01*
X90504510Y-57493685D02*
X90433082Y-57207971D01*
X90433082Y-57207971D02*
X90433082Y-56993685D01*
X90433082Y-56993685D02*
X90504510Y-56707971D01*
X90504510Y-56707971D02*
X90575939Y-56565114D01*
X90575939Y-56565114D02*
X90718796Y-56422257D01*
X90718796Y-56422257D02*
X90933082Y-56350828D01*
X90933082Y-56350828D02*
X91075939Y-56350828D01*
X91075939Y-56350828D02*
X91290225Y-56422257D01*
X91290225Y-56422257D02*
X91361653Y-56493685D01*
X91933082Y-57422257D02*
X92647368Y-57422257D01*
X91790225Y-57850828D02*
X92290225Y-56350828D01*
X92290225Y-56350828D02*
X92790225Y-57850828D01*
X93290224Y-57850828D02*
X93290224Y-56350828D01*
X93290224Y-56350828D02*
X94147367Y-57850828D01*
X94147367Y-57850828D02*
X94147367Y-56350828D01*
D10*
X160414003Y-59636109D02*
X160747336Y-59636109D01*
X160890193Y-60159919D02*
X160414003Y-60159919D01*
X160414003Y-60159919D02*
X160414003Y-59159919D01*
X160414003Y-59159919D02*
X160890193Y-59159919D01*
D12*
X98269600Y-63202945D02*
X98317219Y-63060088D01*
X98317219Y-63060088D02*
X98317219Y-62821993D01*
X98317219Y-62821993D02*
X98269600Y-62726755D01*
X98269600Y-62726755D02*
X98221980Y-62679136D01*
X98221980Y-62679136D02*
X98126742Y-62631517D01*
X98126742Y-62631517D02*
X98031504Y-62631517D01*
X98031504Y-62631517D02*
X97936266Y-62679136D01*
X97936266Y-62679136D02*
X97888647Y-62726755D01*
X97888647Y-62726755D02*
X97841028Y-62821993D01*
X97841028Y-62821993D02*
X97793409Y-63012469D01*
X97793409Y-63012469D02*
X97745790Y-63107707D01*
X97745790Y-63107707D02*
X97698171Y-63155326D01*
X97698171Y-63155326D02*
X97602933Y-63202945D01*
X97602933Y-63202945D02*
X97507695Y-63202945D01*
X97507695Y-63202945D02*
X97412457Y-63155326D01*
X97412457Y-63155326D02*
X97364838Y-63107707D01*
X97364838Y-63107707D02*
X97317219Y-63012469D01*
X97317219Y-63012469D02*
X97317219Y-62774374D01*
X97317219Y-62774374D02*
X97364838Y-62631517D01*
X97317219Y-62298183D02*
X98317219Y-62060088D01*
X98317219Y-62060088D02*
X97602933Y-61869612D01*
X97602933Y-61869612D02*
X98317219Y-61679136D01*
X98317219Y-61679136D02*
X97317219Y-61441041D01*
X98317219Y-61060088D02*
X97317219Y-61060088D01*
X97317219Y-61060088D02*
X97317219Y-60821993D01*
X97317219Y-60821993D02*
X97364838Y-60679136D01*
X97364838Y-60679136D02*
X97460076Y-60583898D01*
X97460076Y-60583898D02*
X97555314Y-60536279D01*
X97555314Y-60536279D02*
X97745790Y-60488660D01*
X97745790Y-60488660D02*
X97888647Y-60488660D01*
X97888647Y-60488660D02*
X98079123Y-60536279D01*
X98079123Y-60536279D02*
X98174361Y-60583898D01*
X98174361Y-60583898D02*
X98269600Y-60679136D01*
X98269600Y-60679136D02*
X98317219Y-60821993D01*
X98317219Y-60821993D02*
X98317219Y-61060088D01*
D11*
X139022712Y-83398500D02*
X139165569Y-83446119D01*
X139165569Y-83446119D02*
X139403664Y-83446119D01*
X139403664Y-83446119D02*
X139498902Y-83398500D01*
X139498902Y-83398500D02*
X139546521Y-83350880D01*
X139546521Y-83350880D02*
X139594140Y-83255642D01*
X139594140Y-83255642D02*
X139594140Y-83160404D01*
X139594140Y-83160404D02*
X139546521Y-83065166D01*
X139546521Y-83065166D02*
X139498902Y-83017547D01*
X139498902Y-83017547D02*
X139403664Y-82969928D01*
X139403664Y-82969928D02*
X139213188Y-82922309D01*
X139213188Y-82922309D02*
X139117950Y-82874690D01*
X139117950Y-82874690D02*
X139070331Y-82827071D01*
X139070331Y-82827071D02*
X139022712Y-82731833D01*
X139022712Y-82731833D02*
X139022712Y-82636595D01*
X139022712Y-82636595D02*
X139070331Y-82541357D01*
X139070331Y-82541357D02*
X139117950Y-82493738D01*
X139117950Y-82493738D02*
X139213188Y-82446119D01*
X139213188Y-82446119D02*
X139451283Y-82446119D01*
X139451283Y-82446119D02*
X139594140Y-82493738D01*
X140594140Y-83350880D02*
X140546521Y-83398500D01*
X140546521Y-83398500D02*
X140403664Y-83446119D01*
X140403664Y-83446119D02*
X140308426Y-83446119D01*
X140308426Y-83446119D02*
X140165569Y-83398500D01*
X140165569Y-83398500D02*
X140070331Y-83303261D01*
X140070331Y-83303261D02*
X140022712Y-83208023D01*
X140022712Y-83208023D02*
X139975093Y-83017547D01*
X139975093Y-83017547D02*
X139975093Y-82874690D01*
X139975093Y-82874690D02*
X140022712Y-82684214D01*
X140022712Y-82684214D02*
X140070331Y-82588976D01*
X140070331Y-82588976D02*
X140165569Y-82493738D01*
X140165569Y-82493738D02*
X140308426Y-82446119D01*
X140308426Y-82446119D02*
X140403664Y-82446119D01*
X140403664Y-82446119D02*
X140546521Y-82493738D01*
X140546521Y-82493738D02*
X140594140Y-82541357D01*
X141498902Y-83446119D02*
X141022712Y-83446119D01*
X141022712Y-83446119D02*
X141022712Y-82446119D01*
D10*
X100991980Y-60247419D02*
X100991980Y-59247419D01*
X100991980Y-59247419D02*
X101230075Y-59247419D01*
X101230075Y-59247419D02*
X101372932Y-59295038D01*
X101372932Y-59295038D02*
X101468170Y-59390276D01*
X101468170Y-59390276D02*
X101515789Y-59485514D01*
X101515789Y-59485514D02*
X101563408Y-59675990D01*
X101563408Y-59675990D02*
X101563408Y-59818847D01*
X101563408Y-59818847D02*
X101515789Y-60009323D01*
X101515789Y-60009323D02*
X101468170Y-60104561D01*
X101468170Y-60104561D02*
X101372932Y-60199800D01*
X101372932Y-60199800D02*
X101230075Y-60247419D01*
X101230075Y-60247419D02*
X100991980Y-60247419D01*
X101991980Y-60247419D02*
X101991980Y-59247419D01*
X102658646Y-59247419D02*
X102849122Y-59247419D01*
X102849122Y-59247419D02*
X102944360Y-59295038D01*
X102944360Y-59295038D02*
X103039598Y-59390276D01*
X103039598Y-59390276D02*
X103087217Y-59580752D01*
X103087217Y-59580752D02*
X103087217Y-59914085D01*
X103087217Y-59914085D02*
X103039598Y-60104561D01*
X103039598Y-60104561D02*
X102944360Y-60199800D01*
X102944360Y-60199800D02*
X102849122Y-60247419D01*
X102849122Y-60247419D02*
X102658646Y-60247419D01*
X102658646Y-60247419D02*
X102563408Y-60199800D01*
X102563408Y-60199800D02*
X102468170Y-60104561D01*
X102468170Y-60104561D02*
X102420551Y-59914085D01*
X102420551Y-59914085D02*
X102420551Y-59580752D01*
X102420551Y-59580752D02*
X102468170Y-59390276D01*
X102468170Y-59390276D02*
X102563408Y-59295038D01*
X102563408Y-59295038D02*
X102658646Y-59247419D01*
D11*
X102495925Y-83446119D02*
X102162592Y-82969928D01*
X101924497Y-83446119D02*
X101924497Y-82446119D01*
X101924497Y-82446119D02*
X102305449Y-82446119D01*
X102305449Y-82446119D02*
X102400687Y-82493738D01*
X102400687Y-82493738D02*
X102448306Y-82541357D01*
X102448306Y-82541357D02*
X102495925Y-82636595D01*
X102495925Y-82636595D02*
X102495925Y-82779452D01*
X102495925Y-82779452D02*
X102448306Y-82874690D01*
X102448306Y-82874690D02*
X102400687Y-82922309D01*
X102400687Y-82922309D02*
X102305449Y-82969928D01*
X102305449Y-82969928D02*
X101924497Y-82969928D01*
X102829259Y-82446119D02*
X103495925Y-83446119D01*
X103495925Y-82446119D02*
X102829259Y-83446119D01*
X103876878Y-83446119D02*
X103876878Y-82446119D01*
X103876878Y-82446119D02*
X104448306Y-83446119D01*
X104448306Y-83446119D02*
X104448306Y-82446119D01*
D10*
X157878884Y-57211919D02*
X157878884Y-56211919D01*
X157878884Y-56688109D02*
X158450312Y-56688109D01*
X158450312Y-57211919D02*
X158450312Y-56211919D01*
D12*
X149318409Y-57680326D02*
X149318409Y-57346993D01*
X149842219Y-57204136D02*
X149842219Y-57680326D01*
X149842219Y-57680326D02*
X148842219Y-57680326D01*
X148842219Y-57680326D02*
X148842219Y-57204136D01*
X149842219Y-56775564D02*
X148842219Y-56775564D01*
X148842219Y-56775564D02*
X148842219Y-56394612D01*
X148842219Y-56394612D02*
X148889838Y-56299374D01*
X148889838Y-56299374D02*
X148937457Y-56251755D01*
X148937457Y-56251755D02*
X149032695Y-56204136D01*
X149032695Y-56204136D02*
X149175552Y-56204136D01*
X149175552Y-56204136D02*
X149270790Y-56251755D01*
X149270790Y-56251755D02*
X149318409Y-56299374D01*
X149318409Y-56299374D02*
X149366028Y-56394612D01*
X149366028Y-56394612D02*
X149366028Y-56775564D01*
X149794600Y-55823183D02*
X149842219Y-55680326D01*
X149842219Y-55680326D02*
X149842219Y-55442231D01*
X149842219Y-55442231D02*
X149794600Y-55346993D01*
X149794600Y-55346993D02*
X149746980Y-55299374D01*
X149746980Y-55299374D02*
X149651742Y-55251755D01*
X149651742Y-55251755D02*
X149556504Y-55251755D01*
X149556504Y-55251755D02*
X149461266Y-55299374D01*
X149461266Y-55299374D02*
X149413647Y-55346993D01*
X149413647Y-55346993D02*
X149366028Y-55442231D01*
X149366028Y-55442231D02*
X149318409Y-55632707D01*
X149318409Y-55632707D02*
X149270790Y-55727945D01*
X149270790Y-55727945D02*
X149223171Y-55775564D01*
X149223171Y-55775564D02*
X149127933Y-55823183D01*
X149127933Y-55823183D02*
X149032695Y-55823183D01*
X149032695Y-55823183D02*
X148937457Y-55775564D01*
X148937457Y-55775564D02*
X148889838Y-55727945D01*
X148889838Y-55727945D02*
X148842219Y-55632707D01*
X148842219Y-55632707D02*
X148842219Y-55394612D01*
X148842219Y-55394612D02*
X148889838Y-55251755D01*
D10*
X126433646Y-59723609D02*
X126576503Y-59771228D01*
X126576503Y-59771228D02*
X126624122Y-59818847D01*
X126624122Y-59818847D02*
X126671741Y-59914085D01*
X126671741Y-59914085D02*
X126671741Y-60056942D01*
X126671741Y-60056942D02*
X126624122Y-60152180D01*
X126624122Y-60152180D02*
X126576503Y-60199800D01*
X126576503Y-60199800D02*
X126481265Y-60247419D01*
X126481265Y-60247419D02*
X126100313Y-60247419D01*
X126100313Y-60247419D02*
X126100313Y-59247419D01*
X126100313Y-59247419D02*
X126433646Y-59247419D01*
X126433646Y-59247419D02*
X126528884Y-59295038D01*
X126528884Y-59295038D02*
X126576503Y-59342657D01*
X126576503Y-59342657D02*
X126624122Y-59437895D01*
X126624122Y-59437895D02*
X126624122Y-59533133D01*
X126624122Y-59533133D02*
X126576503Y-59628371D01*
X126576503Y-59628371D02*
X126528884Y-59675990D01*
X126528884Y-59675990D02*
X126433646Y-59723609D01*
X126433646Y-59723609D02*
X126100313Y-59723609D01*
X127290789Y-59247419D02*
X127481265Y-59247419D01*
X127481265Y-59247419D02*
X127576503Y-59295038D01*
X127576503Y-59295038D02*
X127671741Y-59390276D01*
X127671741Y-59390276D02*
X127719360Y-59580752D01*
X127719360Y-59580752D02*
X127719360Y-59914085D01*
X127719360Y-59914085D02*
X127671741Y-60104561D01*
X127671741Y-60104561D02*
X127576503Y-60199800D01*
X127576503Y-60199800D02*
X127481265Y-60247419D01*
X127481265Y-60247419D02*
X127290789Y-60247419D01*
X127290789Y-60247419D02*
X127195551Y-60199800D01*
X127195551Y-60199800D02*
X127100313Y-60104561D01*
X127100313Y-60104561D02*
X127052694Y-59914085D01*
X127052694Y-59914085D02*
X127052694Y-59580752D01*
X127052694Y-59580752D02*
X127100313Y-59390276D01*
X127100313Y-59390276D02*
X127195551Y-59295038D01*
X127195551Y-59295038D02*
X127290789Y-59247419D01*
X128338408Y-59247419D02*
X128528884Y-59247419D01*
X128528884Y-59247419D02*
X128624122Y-59295038D01*
X128624122Y-59295038D02*
X128719360Y-59390276D01*
X128719360Y-59390276D02*
X128766979Y-59580752D01*
X128766979Y-59580752D02*
X128766979Y-59914085D01*
X128766979Y-59914085D02*
X128719360Y-60104561D01*
X128719360Y-60104561D02*
X128624122Y-60199800D01*
X128624122Y-60199800D02*
X128528884Y-60247419D01*
X128528884Y-60247419D02*
X128338408Y-60247419D01*
X128338408Y-60247419D02*
X128243170Y-60199800D01*
X128243170Y-60199800D02*
X128147932Y-60104561D01*
X128147932Y-60104561D02*
X128100313Y-59914085D01*
X128100313Y-59914085D02*
X128100313Y-59580752D01*
X128100313Y-59580752D02*
X128147932Y-59390276D01*
X128147932Y-59390276D02*
X128243170Y-59295038D01*
X128243170Y-59295038D02*
X128338408Y-59247419D01*
X129052694Y-59247419D02*
X129624122Y-59247419D01*
X129338408Y-60247419D02*
X129338408Y-59247419D01*
D11*
X89971119Y-65858240D02*
X89494928Y-66191573D01*
X89971119Y-66429668D02*
X88971119Y-66429668D01*
X88971119Y-66429668D02*
X88971119Y-66048716D01*
X88971119Y-66048716D02*
X89018738Y-65953478D01*
X89018738Y-65953478D02*
X89066357Y-65905859D01*
X89066357Y-65905859D02*
X89161595Y-65858240D01*
X89161595Y-65858240D02*
X89304452Y-65858240D01*
X89304452Y-65858240D02*
X89399690Y-65905859D01*
X89399690Y-65905859D02*
X89447309Y-65953478D01*
X89447309Y-65953478D02*
X89494928Y-66048716D01*
X89494928Y-66048716D02*
X89494928Y-66429668D01*
X89923500Y-65048716D02*
X89971119Y-65143954D01*
X89971119Y-65143954D02*
X89971119Y-65334430D01*
X89971119Y-65334430D02*
X89923500Y-65429668D01*
X89923500Y-65429668D02*
X89828261Y-65477287D01*
X89828261Y-65477287D02*
X89447309Y-65477287D01*
X89447309Y-65477287D02*
X89352071Y-65429668D01*
X89352071Y-65429668D02*
X89304452Y-65334430D01*
X89304452Y-65334430D02*
X89304452Y-65143954D01*
X89304452Y-65143954D02*
X89352071Y-65048716D01*
X89352071Y-65048716D02*
X89447309Y-65001097D01*
X89447309Y-65001097D02*
X89542547Y-65001097D01*
X89542547Y-65001097D02*
X89637785Y-65477287D01*
X89971119Y-64143954D02*
X88971119Y-64143954D01*
X89923500Y-64143954D02*
X89971119Y-64239192D01*
X89971119Y-64239192D02*
X89971119Y-64429668D01*
X89971119Y-64429668D02*
X89923500Y-64524906D01*
X89923500Y-64524906D02*
X89875880Y-64572525D01*
X89875880Y-64572525D02*
X89780642Y-64620144D01*
X89780642Y-64620144D02*
X89494928Y-64620144D01*
X89494928Y-64620144D02*
X89399690Y-64572525D01*
X89399690Y-64572525D02*
X89352071Y-64524906D01*
X89352071Y-64524906D02*
X89304452Y-64429668D01*
X89304452Y-64429668D02*
X89304452Y-64239192D01*
X89304452Y-64239192D02*
X89352071Y-64143954D01*
X89304452Y-63239192D02*
X89971119Y-63239192D01*
X89304452Y-63667763D02*
X89828261Y-63667763D01*
X89828261Y-63667763D02*
X89923500Y-63620144D01*
X89923500Y-63620144D02*
X89971119Y-63524906D01*
X89971119Y-63524906D02*
X89971119Y-63382049D01*
X89971119Y-63382049D02*
X89923500Y-63286811D01*
X89923500Y-63286811D02*
X89875880Y-63239192D01*
X89304452Y-62763001D02*
X89971119Y-62763001D01*
X89399690Y-62763001D02*
X89352071Y-62715382D01*
X89352071Y-62715382D02*
X89304452Y-62620144D01*
X89304452Y-62620144D02*
X89304452Y-62477287D01*
X89304452Y-62477287D02*
X89352071Y-62382049D01*
X89352071Y-62382049D02*
X89447309Y-62334430D01*
X89447309Y-62334430D02*
X89971119Y-62334430D01*
X89971119Y-61429668D02*
X88971119Y-61429668D01*
X89923500Y-61429668D02*
X89971119Y-61524906D01*
X89971119Y-61524906D02*
X89971119Y-61715382D01*
X89971119Y-61715382D02*
X89923500Y-61810620D01*
X89923500Y-61810620D02*
X89875880Y-61858239D01*
X89875880Y-61858239D02*
X89780642Y-61905858D01*
X89780642Y-61905858D02*
X89494928Y-61905858D01*
X89494928Y-61905858D02*
X89399690Y-61858239D01*
X89399690Y-61858239D02*
X89352071Y-61810620D01*
X89352071Y-61810620D02*
X89304452Y-61715382D01*
X89304452Y-61715382D02*
X89304452Y-61524906D01*
X89304452Y-61524906D02*
X89352071Y-61429668D01*
X89971119Y-60524906D02*
X89447309Y-60524906D01*
X89447309Y-60524906D02*
X89352071Y-60572525D01*
X89352071Y-60572525D02*
X89304452Y-60667763D01*
X89304452Y-60667763D02*
X89304452Y-60858239D01*
X89304452Y-60858239D02*
X89352071Y-60953477D01*
X89923500Y-60524906D02*
X89971119Y-60620144D01*
X89971119Y-60620144D02*
X89971119Y-60858239D01*
X89971119Y-60858239D02*
X89923500Y-60953477D01*
X89923500Y-60953477D02*
X89828261Y-61001096D01*
X89828261Y-61001096D02*
X89733023Y-61001096D01*
X89733023Y-61001096D02*
X89637785Y-60953477D01*
X89637785Y-60953477D02*
X89590166Y-60858239D01*
X89590166Y-60858239D02*
X89590166Y-60620144D01*
X89590166Y-60620144D02*
X89542547Y-60524906D01*
X89304452Y-60048715D02*
X89971119Y-60048715D01*
X89399690Y-60048715D02*
X89352071Y-60001096D01*
X89352071Y-60001096D02*
X89304452Y-59905858D01*
X89304452Y-59905858D02*
X89304452Y-59763001D01*
X89304452Y-59763001D02*
X89352071Y-59667763D01*
X89352071Y-59667763D02*
X89447309Y-59620144D01*
X89447309Y-59620144D02*
X89971119Y-59620144D01*
X89304452Y-59286810D02*
X89304452Y-58905858D01*
X88971119Y-59143953D02*
X89828261Y-59143953D01*
X89828261Y-59143953D02*
X89923500Y-59096334D01*
X89923500Y-59096334D02*
X89971119Y-59001096D01*
X89971119Y-59001096D02*
X89971119Y-58905858D01*
D10*
X121095550Y-54672419D02*
X120762217Y-54196228D01*
X120524122Y-54672419D02*
X120524122Y-53672419D01*
X120524122Y-53672419D02*
X120905074Y-53672419D01*
X120905074Y-53672419D02*
X121000312Y-53720038D01*
X121000312Y-53720038D02*
X121047931Y-53767657D01*
X121047931Y-53767657D02*
X121095550Y-53862895D01*
X121095550Y-53862895D02*
X121095550Y-54005752D01*
X121095550Y-54005752D02*
X121047931Y-54100990D01*
X121047931Y-54100990D02*
X121000312Y-54148609D01*
X121000312Y-54148609D02*
X120905074Y-54196228D01*
X120905074Y-54196228D02*
X120524122Y-54196228D01*
X121428884Y-54672419D02*
X121952693Y-54005752D01*
X121428884Y-54005752D02*
X121952693Y-54672419D01*
D11*
X91921119Y-77609430D02*
X91921119Y-78085620D01*
X91921119Y-78085620D02*
X90921119Y-78085620D01*
D10*
X156303884Y-60159919D02*
X156303884Y-59159919D01*
X156303884Y-59159919D02*
X156541979Y-59159919D01*
X156541979Y-59159919D02*
X156684836Y-59207538D01*
X156684836Y-59207538D02*
X156780074Y-59302776D01*
X156780074Y-59302776D02*
X156827693Y-59398014D01*
X156827693Y-59398014D02*
X156875312Y-59588490D01*
X156875312Y-59588490D02*
X156875312Y-59731347D01*
X156875312Y-59731347D02*
X156827693Y-59921823D01*
X156827693Y-59921823D02*
X156780074Y-60017061D01*
X156780074Y-60017061D02*
X156684836Y-60112300D01*
X156684836Y-60112300D02*
X156541979Y-60159919D01*
X156541979Y-60159919D02*
X156303884Y-60159919D01*
D12*
X147941102Y-85893409D02*
X148274435Y-85893409D01*
X148417292Y-86417219D02*
X147941102Y-86417219D01*
X147941102Y-86417219D02*
X147941102Y-85417219D01*
X147941102Y-85417219D02*
X148417292Y-85417219D01*
X148845864Y-86417219D02*
X148845864Y-85417219D01*
X148845864Y-85417219D02*
X149226816Y-85417219D01*
X149226816Y-85417219D02*
X149322054Y-85464838D01*
X149322054Y-85464838D02*
X149369673Y-85512457D01*
X149369673Y-85512457D02*
X149417292Y-85607695D01*
X149417292Y-85607695D02*
X149417292Y-85750552D01*
X149417292Y-85750552D02*
X149369673Y-85845790D01*
X149369673Y-85845790D02*
X149322054Y-85893409D01*
X149322054Y-85893409D02*
X149226816Y-85941028D01*
X149226816Y-85941028D02*
X148845864Y-85941028D01*
X149798245Y-86369600D02*
X149941102Y-86417219D01*
X149941102Y-86417219D02*
X150179197Y-86417219D01*
X150179197Y-86417219D02*
X150274435Y-86369600D01*
X150274435Y-86369600D02*
X150322054Y-86321980D01*
X150322054Y-86321980D02*
X150369673Y-86226742D01*
X150369673Y-86226742D02*
X150369673Y-86131504D01*
X150369673Y-86131504D02*
X150322054Y-86036266D01*
X150322054Y-86036266D02*
X150274435Y-85988647D01*
X150274435Y-85988647D02*
X150179197Y-85941028D01*
X150179197Y-85941028D02*
X149988721Y-85893409D01*
X149988721Y-85893409D02*
X149893483Y-85845790D01*
X149893483Y-85845790D02*
X149845864Y-85798171D01*
X149845864Y-85798171D02*
X149798245Y-85702933D01*
X149798245Y-85702933D02*
X149798245Y-85607695D01*
X149798245Y-85607695D02*
X149845864Y-85512457D01*
X149845864Y-85512457D02*
X149893483Y-85464838D01*
X149893483Y-85464838D02*
X149988721Y-85417219D01*
X149988721Y-85417219D02*
X150226816Y-85417219D01*
X150226816Y-85417219D02*
X150369673Y-85464838D01*
D11*
X122329260Y-82446119D02*
X122900688Y-82446119D01*
X122614974Y-83446119D02*
X122614974Y-82446119D01*
X123138784Y-83446119D02*
X123662593Y-82779452D01*
X123138784Y-82779452D02*
X123662593Y-83446119D01*
D12*
X142122054Y-58256504D02*
X142598244Y-58256504D01*
X142026816Y-58542219D02*
X142360149Y-57542219D01*
X142360149Y-57542219D02*
X142693482Y-58542219D01*
X143026816Y-58542219D02*
X143026816Y-57542219D01*
X143026816Y-57542219D02*
X143264911Y-57542219D01*
X143264911Y-57542219D02*
X143407768Y-57589838D01*
X143407768Y-57589838D02*
X143503006Y-57685076D01*
X143503006Y-57685076D02*
X143550625Y-57780314D01*
X143550625Y-57780314D02*
X143598244Y-57970790D01*
X143598244Y-57970790D02*
X143598244Y-58113647D01*
X143598244Y-58113647D02*
X143550625Y-58304123D01*
X143550625Y-58304123D02*
X143503006Y-58399361D01*
X143503006Y-58399361D02*
X143407768Y-58494600D01*
X143407768Y-58494600D02*
X143264911Y-58542219D01*
X143264911Y-58542219D02*
X143026816Y-58542219D01*
X144598244Y-58446980D02*
X144550625Y-58494600D01*
X144550625Y-58494600D02*
X144407768Y-58542219D01*
X144407768Y-58542219D02*
X144312530Y-58542219D01*
X144312530Y-58542219D02*
X144169673Y-58494600D01*
X144169673Y-58494600D02*
X144074435Y-58399361D01*
X144074435Y-58399361D02*
X144026816Y-58304123D01*
X144026816Y-58304123D02*
X143979197Y-58113647D01*
X143979197Y-58113647D02*
X143979197Y-57970790D01*
X143979197Y-57970790D02*
X144026816Y-57780314D01*
X144026816Y-57780314D02*
X144074435Y-57685076D01*
X144074435Y-57685076D02*
X144169673Y-57589838D01*
X144169673Y-57589838D02*
X144312530Y-57542219D01*
X144312530Y-57542219D02*
X144407768Y-57542219D01*
X144407768Y-57542219D02*
X144550625Y-57589838D01*
X144550625Y-57589838D02*
X144598244Y-57637457D01*
X144979197Y-58494600D02*
X145122054Y-58542219D01*
X145122054Y-58542219D02*
X145360149Y-58542219D01*
X145360149Y-58542219D02*
X145455387Y-58494600D01*
X145455387Y-58494600D02*
X145503006Y-58446980D01*
X145503006Y-58446980D02*
X145550625Y-58351742D01*
X145550625Y-58351742D02*
X145550625Y-58256504D01*
X145550625Y-58256504D02*
X145503006Y-58161266D01*
X145503006Y-58161266D02*
X145455387Y-58113647D01*
X145455387Y-58113647D02*
X145360149Y-58066028D01*
X145360149Y-58066028D02*
X145169673Y-58018409D01*
X145169673Y-58018409D02*
X145074435Y-57970790D01*
X145074435Y-57970790D02*
X145026816Y-57923171D01*
X145026816Y-57923171D02*
X144979197Y-57827933D01*
X144979197Y-57827933D02*
X144979197Y-57732695D01*
X144979197Y-57732695D02*
X145026816Y-57637457D01*
X145026816Y-57637457D02*
X145074435Y-57589838D01*
X145074435Y-57589838D02*
X145169673Y-57542219D01*
X145169673Y-57542219D02*
X145407768Y-57542219D01*
X145407768Y-57542219D02*
X145550625Y-57589838D01*
D11*
X123595331Y-84021119D02*
X123595331Y-84830642D01*
X123595331Y-84830642D02*
X123642950Y-84925880D01*
X123642950Y-84925880D02*
X123690569Y-84973500D01*
X123690569Y-84973500D02*
X123785807Y-85021119D01*
X123785807Y-85021119D02*
X123976283Y-85021119D01*
X123976283Y-85021119D02*
X124071521Y-84973500D01*
X124071521Y-84973500D02*
X124119140Y-84925880D01*
X124119140Y-84925880D02*
X124166759Y-84830642D01*
X124166759Y-84830642D02*
X124166759Y-84021119D01*
X124595331Y-84735404D02*
X125071521Y-84735404D01*
X124500093Y-85021119D02*
X124833426Y-84021119D01*
X124833426Y-84021119D02*
X125166759Y-85021119D01*
X126071521Y-85021119D02*
X125738188Y-84544928D01*
X125500093Y-85021119D02*
X125500093Y-84021119D01*
X125500093Y-84021119D02*
X125881045Y-84021119D01*
X125881045Y-84021119D02*
X125976283Y-84068738D01*
X125976283Y-84068738D02*
X126023902Y-84116357D01*
X126023902Y-84116357D02*
X126071521Y-84211595D01*
X126071521Y-84211595D02*
X126071521Y-84354452D01*
X126071521Y-84354452D02*
X126023902Y-84449690D01*
X126023902Y-84449690D02*
X125976283Y-84497309D01*
X125976283Y-84497309D02*
X125881045Y-84544928D01*
X125881045Y-84544928D02*
X125500093Y-84544928D01*
X126357236Y-84021119D02*
X126928664Y-84021119D01*
X126642950Y-85021119D02*
X126642950Y-84021119D01*
D10*
X98327180Y-73399687D02*
X98374800Y-73447306D01*
X98374800Y-73447306D02*
X98422419Y-73590163D01*
X98422419Y-73590163D02*
X98422419Y-73685401D01*
X98422419Y-73685401D02*
X98374800Y-73828258D01*
X98374800Y-73828258D02*
X98279561Y-73923496D01*
X98279561Y-73923496D02*
X98184323Y-73971115D01*
X98184323Y-73971115D02*
X97993847Y-74018734D01*
X97993847Y-74018734D02*
X97850990Y-74018734D01*
X97850990Y-74018734D02*
X97660514Y-73971115D01*
X97660514Y-73971115D02*
X97565276Y-73923496D01*
X97565276Y-73923496D02*
X97470038Y-73828258D01*
X97470038Y-73828258D02*
X97422419Y-73685401D01*
X97422419Y-73685401D02*
X97422419Y-73590163D01*
X97422419Y-73590163D02*
X97470038Y-73447306D01*
X97470038Y-73447306D02*
X97517657Y-73399687D01*
X98136704Y-73018734D02*
X98136704Y-72542544D01*
X98422419Y-73113972D02*
X97422419Y-72780639D01*
X97422419Y-72780639D02*
X98422419Y-72447306D01*
X98422419Y-72113972D02*
X97422419Y-72113972D01*
X97422419Y-72113972D02*
X98422419Y-71542544D01*
X98422419Y-71542544D02*
X97422419Y-71542544D01*
X141580074Y-59159919D02*
X141103884Y-59159919D01*
X141103884Y-59159919D02*
X141056265Y-59636109D01*
X141056265Y-59636109D02*
X141103884Y-59588490D01*
X141103884Y-59588490D02*
X141199122Y-59540871D01*
X141199122Y-59540871D02*
X141437217Y-59540871D01*
X141437217Y-59540871D02*
X141532455Y-59588490D01*
X141532455Y-59588490D02*
X141580074Y-59636109D01*
X141580074Y-59636109D02*
X141627693Y-59731347D01*
X141627693Y-59731347D02*
X141627693Y-59969442D01*
X141627693Y-59969442D02*
X141580074Y-60064680D01*
X141580074Y-60064680D02*
X141532455Y-60112300D01*
X141532455Y-60112300D02*
X141437217Y-60159919D01*
X141437217Y-60159919D02*
X141199122Y-60159919D01*
X141199122Y-60159919D02*
X141103884Y-60112300D01*
X141103884Y-60112300D02*
X141056265Y-60064680D01*
X141913408Y-59159919D02*
X142246741Y-60159919D01*
X142246741Y-60159919D02*
X142580074Y-59159919D01*
X108577694Y-53772419D02*
X109196741Y-53772419D01*
X109196741Y-53772419D02*
X108863408Y-54153371D01*
X108863408Y-54153371D02*
X109006265Y-54153371D01*
X109006265Y-54153371D02*
X109101503Y-54200990D01*
X109101503Y-54200990D02*
X109149122Y-54248609D01*
X109149122Y-54248609D02*
X109196741Y-54343847D01*
X109196741Y-54343847D02*
X109196741Y-54581942D01*
X109196741Y-54581942D02*
X109149122Y-54677180D01*
X109149122Y-54677180D02*
X109101503Y-54724800D01*
X109101503Y-54724800D02*
X109006265Y-54772419D01*
X109006265Y-54772419D02*
X108720551Y-54772419D01*
X108720551Y-54772419D02*
X108625313Y-54724800D01*
X108625313Y-54724800D02*
X108577694Y-54677180D01*
X109482456Y-53772419D02*
X109815789Y-54772419D01*
X109815789Y-54772419D02*
X110149122Y-53772419D01*
X110387218Y-53772419D02*
X111006265Y-53772419D01*
X111006265Y-53772419D02*
X110672932Y-54153371D01*
X110672932Y-54153371D02*
X110815789Y-54153371D01*
X110815789Y-54153371D02*
X110911027Y-54200990D01*
X110911027Y-54200990D02*
X110958646Y-54248609D01*
X110958646Y-54248609D02*
X111006265Y-54343847D01*
X111006265Y-54343847D02*
X111006265Y-54581942D01*
X111006265Y-54581942D02*
X110958646Y-54677180D01*
X110958646Y-54677180D02*
X110911027Y-54724800D01*
X110911027Y-54724800D02*
X110815789Y-54772419D01*
X110815789Y-54772419D02*
X110530075Y-54772419D01*
X110530075Y-54772419D02*
X110434837Y-54724800D01*
X110434837Y-54724800D02*
X110387218Y-54677180D01*
X163753884Y-57222419D02*
X163753884Y-56222419D01*
X97399122Y-53722419D02*
X97970550Y-53722419D01*
X97684836Y-54722419D02*
X97684836Y-53722419D01*
X98875312Y-54722419D02*
X98541979Y-54246228D01*
X98303884Y-54722419D02*
X98303884Y-53722419D01*
X98303884Y-53722419D02*
X98684836Y-53722419D01*
X98684836Y-53722419D02*
X98780074Y-53770038D01*
X98780074Y-53770038D02*
X98827693Y-53817657D01*
X98827693Y-53817657D02*
X98875312Y-53912895D01*
X98875312Y-53912895D02*
X98875312Y-54055752D01*
X98875312Y-54055752D02*
X98827693Y-54150990D01*
X98827693Y-54150990D02*
X98780074Y-54198609D01*
X98780074Y-54198609D02*
X98684836Y-54246228D01*
X98684836Y-54246228D02*
X98303884Y-54246228D01*
X99256265Y-54436704D02*
X99732455Y-54436704D01*
X99161027Y-54722419D02*
X99494360Y-53722419D01*
X99494360Y-53722419D02*
X99827693Y-54722419D01*
X100732455Y-54627180D02*
X100684836Y-54674800D01*
X100684836Y-54674800D02*
X100541979Y-54722419D01*
X100541979Y-54722419D02*
X100446741Y-54722419D01*
X100446741Y-54722419D02*
X100303884Y-54674800D01*
X100303884Y-54674800D02*
X100208646Y-54579561D01*
X100208646Y-54579561D02*
X100161027Y-54484323D01*
X100161027Y-54484323D02*
X100113408Y-54293847D01*
X100113408Y-54293847D02*
X100113408Y-54150990D01*
X100113408Y-54150990D02*
X100161027Y-53960514D01*
X100161027Y-53960514D02*
X100208646Y-53865276D01*
X100208646Y-53865276D02*
X100303884Y-53770038D01*
X100303884Y-53770038D02*
X100446741Y-53722419D01*
X100446741Y-53722419D02*
X100541979Y-53722419D01*
X100541979Y-53722419D02*
X100684836Y-53770038D01*
X100684836Y-53770038D02*
X100732455Y-53817657D01*
X101161027Y-54198609D02*
X101494360Y-54198609D01*
X101637217Y-54722419D02*
X101161027Y-54722419D01*
X101161027Y-54722419D02*
X101161027Y-53722419D01*
X101161027Y-53722419D02*
X101637217Y-53722419D01*
X149627693Y-65370038D02*
X149532455Y-65322419D01*
X149532455Y-65322419D02*
X149389598Y-65322419D01*
X149389598Y-65322419D02*
X149246741Y-65370038D01*
X149246741Y-65370038D02*
X149151503Y-65465276D01*
X149151503Y-65465276D02*
X149103884Y-65560514D01*
X149103884Y-65560514D02*
X149056265Y-65750990D01*
X149056265Y-65750990D02*
X149056265Y-65893847D01*
X149056265Y-65893847D02*
X149103884Y-66084323D01*
X149103884Y-66084323D02*
X149151503Y-66179561D01*
X149151503Y-66179561D02*
X149246741Y-66274800D01*
X149246741Y-66274800D02*
X149389598Y-66322419D01*
X149389598Y-66322419D02*
X149484836Y-66322419D01*
X149484836Y-66322419D02*
X149627693Y-66274800D01*
X149627693Y-66274800D02*
X149675312Y-66227180D01*
X149675312Y-66227180D02*
X149675312Y-65893847D01*
X149675312Y-65893847D02*
X149484836Y-65893847D01*
X150103884Y-66322419D02*
X150103884Y-65322419D01*
X150103884Y-65322419D02*
X150675312Y-66322419D01*
X150675312Y-66322419D02*
X150675312Y-65322419D01*
X151151503Y-66322419D02*
X151151503Y-65322419D01*
X151151503Y-65322419D02*
X151389598Y-65322419D01*
X151389598Y-65322419D02*
X151532455Y-65370038D01*
X151532455Y-65370038D02*
X151627693Y-65465276D01*
X151627693Y-65465276D02*
X151675312Y-65560514D01*
X151675312Y-65560514D02*
X151722931Y-65750990D01*
X151722931Y-65750990D02*
X151722931Y-65893847D01*
X151722931Y-65893847D02*
X151675312Y-66084323D01*
X151675312Y-66084323D02*
X151627693Y-66179561D01*
X151627693Y-66179561D02*
X151532455Y-66274800D01*
X151532455Y-66274800D02*
X151389598Y-66322419D01*
X151389598Y-66322419D02*
X151151503Y-66322419D01*
X155728884Y-65773609D02*
X156062217Y-65773609D01*
X156205074Y-66297419D02*
X155728884Y-66297419D01*
X155728884Y-66297419D02*
X155728884Y-65297419D01*
X155728884Y-65297419D02*
X156205074Y-65297419D01*
X156633646Y-66297419D02*
X156633646Y-65297419D01*
X156633646Y-65297419D02*
X157014598Y-65297419D01*
X157014598Y-65297419D02*
X157109836Y-65345038D01*
X157109836Y-65345038D02*
X157157455Y-65392657D01*
X157157455Y-65392657D02*
X157205074Y-65487895D01*
X157205074Y-65487895D02*
X157205074Y-65630752D01*
X157205074Y-65630752D02*
X157157455Y-65725990D01*
X157157455Y-65725990D02*
X157109836Y-65773609D01*
X157109836Y-65773609D02*
X157014598Y-65821228D01*
X157014598Y-65821228D02*
X156633646Y-65821228D01*
X157586027Y-66249800D02*
X157728884Y-66297419D01*
X157728884Y-66297419D02*
X157966979Y-66297419D01*
X157966979Y-66297419D02*
X158062217Y-66249800D01*
X158062217Y-66249800D02*
X158109836Y-66202180D01*
X158109836Y-66202180D02*
X158157455Y-66106942D01*
X158157455Y-66106942D02*
X158157455Y-66011704D01*
X158157455Y-66011704D02*
X158109836Y-65916466D01*
X158109836Y-65916466D02*
X158062217Y-65868847D01*
X158062217Y-65868847D02*
X157966979Y-65821228D01*
X157966979Y-65821228D02*
X157776503Y-65773609D01*
X157776503Y-65773609D02*
X157681265Y-65725990D01*
X157681265Y-65725990D02*
X157633646Y-65678371D01*
X157633646Y-65678371D02*
X157586027Y-65583133D01*
X157586027Y-65583133D02*
X157586027Y-65487895D01*
X157586027Y-65487895D02*
X157633646Y-65392657D01*
X157633646Y-65392657D02*
X157681265Y-65345038D01*
X157681265Y-65345038D02*
X157776503Y-65297419D01*
X157776503Y-65297419D02*
X158014598Y-65297419D01*
X158014598Y-65297419D02*
X158157455Y-65345038D01*
X159871741Y-65345038D02*
X159776503Y-65297419D01*
X159776503Y-65297419D02*
X159633646Y-65297419D01*
X159633646Y-65297419D02*
X159490789Y-65345038D01*
X159490789Y-65345038D02*
X159395551Y-65440276D01*
X159395551Y-65440276D02*
X159347932Y-65535514D01*
X159347932Y-65535514D02*
X159300313Y-65725990D01*
X159300313Y-65725990D02*
X159300313Y-65868847D01*
X159300313Y-65868847D02*
X159347932Y-66059323D01*
X159347932Y-66059323D02*
X159395551Y-66154561D01*
X159395551Y-66154561D02*
X159490789Y-66249800D01*
X159490789Y-66249800D02*
X159633646Y-66297419D01*
X159633646Y-66297419D02*
X159728884Y-66297419D01*
X159728884Y-66297419D02*
X159871741Y-66249800D01*
X159871741Y-66249800D02*
X159919360Y-66202180D01*
X159919360Y-66202180D02*
X159919360Y-65868847D01*
X159919360Y-65868847D02*
X159728884Y-65868847D01*
X160347932Y-66297419D02*
X160347932Y-65297419D01*
X160347932Y-65297419D02*
X160728884Y-65297419D01*
X160728884Y-65297419D02*
X160824122Y-65345038D01*
X160824122Y-65345038D02*
X160871741Y-65392657D01*
X160871741Y-65392657D02*
X160919360Y-65487895D01*
X160919360Y-65487895D02*
X160919360Y-65630752D01*
X160919360Y-65630752D02*
X160871741Y-65725990D01*
X160871741Y-65725990D02*
X160824122Y-65773609D01*
X160824122Y-65773609D02*
X160728884Y-65821228D01*
X160728884Y-65821228D02*
X160347932Y-65821228D01*
X161347932Y-66297419D02*
X161347932Y-65297419D01*
X162014598Y-65297419D02*
X162205074Y-65297419D01*
X162205074Y-65297419D02*
X162300312Y-65345038D01*
X162300312Y-65345038D02*
X162395550Y-65440276D01*
X162395550Y-65440276D02*
X162443169Y-65630752D01*
X162443169Y-65630752D02*
X162443169Y-65964085D01*
X162443169Y-65964085D02*
X162395550Y-66154561D01*
X162395550Y-66154561D02*
X162300312Y-66249800D01*
X162300312Y-66249800D02*
X162205074Y-66297419D01*
X162205074Y-66297419D02*
X162014598Y-66297419D01*
X162014598Y-66297419D02*
X161919360Y-66249800D01*
X161919360Y-66249800D02*
X161824122Y-66154561D01*
X161824122Y-66154561D02*
X161776503Y-65964085D01*
X161776503Y-65964085D02*
X161776503Y-65630752D01*
X161776503Y-65630752D02*
X161824122Y-65440276D01*
X161824122Y-65440276D02*
X161919360Y-65345038D01*
X161919360Y-65345038D02*
X162014598Y-65297419D01*
D11*
X167310212Y-78600460D02*
X167786402Y-78600460D01*
X167214974Y-78886175D02*
X167548307Y-77886175D01*
X167548307Y-77886175D02*
X167881640Y-78886175D01*
X168214974Y-78886175D02*
X168214974Y-77886175D01*
X168214974Y-77886175D02*
X168453069Y-77886175D01*
X168453069Y-77886175D02*
X168595926Y-77933794D01*
X168595926Y-77933794D02*
X168691164Y-78029032D01*
X168691164Y-78029032D02*
X168738783Y-78124270D01*
X168738783Y-78124270D02*
X168786402Y-78314746D01*
X168786402Y-78314746D02*
X168786402Y-78457603D01*
X168786402Y-78457603D02*
X168738783Y-78648079D01*
X168738783Y-78648079D02*
X168691164Y-78743317D01*
X168691164Y-78743317D02*
X168595926Y-78838556D01*
X168595926Y-78838556D02*
X168453069Y-78886175D01*
X168453069Y-78886175D02*
X168214974Y-78886175D01*
X169214974Y-78886175D02*
X169214974Y-77886175D01*
X169214974Y-77886175D02*
X169548307Y-78600460D01*
X169548307Y-78600460D02*
X169881640Y-77886175D01*
X169881640Y-77886175D02*
X169881640Y-78886175D01*
X167834021Y-79496119D02*
X167357831Y-79496119D01*
X167357831Y-79496119D02*
X167310212Y-79972309D01*
X167310212Y-79972309D02*
X167357831Y-79924690D01*
X167357831Y-79924690D02*
X167453069Y-79877071D01*
X167453069Y-79877071D02*
X167691164Y-79877071D01*
X167691164Y-79877071D02*
X167786402Y-79924690D01*
X167786402Y-79924690D02*
X167834021Y-79972309D01*
X167834021Y-79972309D02*
X167881640Y-80067547D01*
X167881640Y-80067547D02*
X167881640Y-80305642D01*
X167881640Y-80305642D02*
X167834021Y-80400880D01*
X167834021Y-80400880D02*
X167786402Y-80448500D01*
X167786402Y-80448500D02*
X167691164Y-80496119D01*
X167691164Y-80496119D02*
X167453069Y-80496119D01*
X167453069Y-80496119D02*
X167357831Y-80448500D01*
X167357831Y-80448500D02*
X167310212Y-80400880D01*
X168167355Y-79496119D02*
X168500688Y-80496119D01*
X168500688Y-80496119D02*
X168834021Y-79496119D01*
X110084022Y-82446119D02*
X110655450Y-82446119D01*
X110369736Y-83446119D02*
X110369736Y-82446119D01*
X110893546Y-82446119D02*
X111560212Y-83446119D01*
X111560212Y-82446119D02*
X110893546Y-83446119D01*
X111941165Y-83446119D02*
X111941165Y-82446119D01*
X111941165Y-82446119D02*
X112512593Y-83446119D01*
X112512593Y-83446119D02*
X112512593Y-82446119D01*
D12*
X123392219Y-62164850D02*
X123392219Y-61974374D01*
X123392219Y-61974374D02*
X123439838Y-61879136D01*
X123439838Y-61879136D02*
X123535076Y-61783898D01*
X123535076Y-61783898D02*
X123725552Y-61736279D01*
X123725552Y-61736279D02*
X124058885Y-61736279D01*
X124058885Y-61736279D02*
X124249361Y-61783898D01*
X124249361Y-61783898D02*
X124344600Y-61879136D01*
X124344600Y-61879136D02*
X124392219Y-61974374D01*
X124392219Y-61974374D02*
X124392219Y-62164850D01*
X124392219Y-62164850D02*
X124344600Y-62260088D01*
X124344600Y-62260088D02*
X124249361Y-62355326D01*
X124249361Y-62355326D02*
X124058885Y-62402945D01*
X124058885Y-62402945D02*
X123725552Y-62402945D01*
X123725552Y-62402945D02*
X123535076Y-62355326D01*
X123535076Y-62355326D02*
X123439838Y-62260088D01*
X123439838Y-62260088D02*
X123392219Y-62164850D01*
X123868409Y-60974374D02*
X123916028Y-60831517D01*
X123916028Y-60831517D02*
X123963647Y-60783898D01*
X123963647Y-60783898D02*
X124058885Y-60736279D01*
X124058885Y-60736279D02*
X124201742Y-60736279D01*
X124201742Y-60736279D02*
X124296980Y-60783898D01*
X124296980Y-60783898D02*
X124344600Y-60831517D01*
X124344600Y-60831517D02*
X124392219Y-60926755D01*
X124392219Y-60926755D02*
X124392219Y-61307707D01*
X124392219Y-61307707D02*
X123392219Y-61307707D01*
X123392219Y-61307707D02*
X123392219Y-60974374D01*
X123392219Y-60974374D02*
X123439838Y-60879136D01*
X123439838Y-60879136D02*
X123487457Y-60831517D01*
X123487457Y-60831517D02*
X123582695Y-60783898D01*
X123582695Y-60783898D02*
X123677933Y-60783898D01*
X123677933Y-60783898D02*
X123773171Y-60831517D01*
X123773171Y-60831517D02*
X123820790Y-60879136D01*
X123820790Y-60879136D02*
X123868409Y-60974374D01*
X123868409Y-60974374D02*
X123868409Y-61307707D01*
X124296980Y-59736279D02*
X124344600Y-59783898D01*
X124344600Y-59783898D02*
X124392219Y-59926755D01*
X124392219Y-59926755D02*
X124392219Y-60021993D01*
X124392219Y-60021993D02*
X124344600Y-60164850D01*
X124344600Y-60164850D02*
X124249361Y-60260088D01*
X124249361Y-60260088D02*
X124154123Y-60307707D01*
X124154123Y-60307707D02*
X123963647Y-60355326D01*
X123963647Y-60355326D02*
X123820790Y-60355326D01*
X123820790Y-60355326D02*
X123630314Y-60307707D01*
X123630314Y-60307707D02*
X123535076Y-60260088D01*
X123535076Y-60260088D02*
X123439838Y-60164850D01*
X123439838Y-60164850D02*
X123392219Y-60021993D01*
X123392219Y-60021993D02*
X123392219Y-59926755D01*
X123392219Y-59926755D02*
X123439838Y-59783898D01*
X123439838Y-59783898D02*
X123487457Y-59736279D01*
X123392219Y-58545802D02*
X124201742Y-58545802D01*
X124201742Y-58545802D02*
X124296980Y-58498183D01*
X124296980Y-58498183D02*
X124344600Y-58450564D01*
X124344600Y-58450564D02*
X124392219Y-58355326D01*
X124392219Y-58355326D02*
X124392219Y-58164850D01*
X124392219Y-58164850D02*
X124344600Y-58069612D01*
X124344600Y-58069612D02*
X124296980Y-58021993D01*
X124296980Y-58021993D02*
X124201742Y-57974374D01*
X124201742Y-57974374D02*
X123392219Y-57974374D01*
X124106504Y-57545802D02*
X124106504Y-57069612D01*
X124392219Y-57641040D02*
X123392219Y-57307707D01*
X123392219Y-57307707D02*
X124392219Y-56974374D01*
X124392219Y-56069612D02*
X123916028Y-56402945D01*
X124392219Y-56641040D02*
X123392219Y-56641040D01*
X123392219Y-56641040D02*
X123392219Y-56260088D01*
X123392219Y-56260088D02*
X123439838Y-56164850D01*
X123439838Y-56164850D02*
X123487457Y-56117231D01*
X123487457Y-56117231D02*
X123582695Y-56069612D01*
X123582695Y-56069612D02*
X123725552Y-56069612D01*
X123725552Y-56069612D02*
X123820790Y-56117231D01*
X123820790Y-56117231D02*
X123868409Y-56164850D01*
X123868409Y-56164850D02*
X123916028Y-56260088D01*
X123916028Y-56260088D02*
X123916028Y-56641040D01*
X123392219Y-55783897D02*
X123392219Y-55212469D01*
X124392219Y-55498183D02*
X123392219Y-55498183D01*
X111347054Y-86231504D02*
X111823244Y-86231504D01*
X111251816Y-86517219D02*
X111585149Y-85517219D01*
X111585149Y-85517219D02*
X111918482Y-86517219D01*
X112251816Y-86517219D02*
X112251816Y-85517219D01*
X112251816Y-85517219D02*
X112489911Y-85517219D01*
X112489911Y-85517219D02*
X112632768Y-85564838D01*
X112632768Y-85564838D02*
X112728006Y-85660076D01*
X112728006Y-85660076D02*
X112775625Y-85755314D01*
X112775625Y-85755314D02*
X112823244Y-85945790D01*
X112823244Y-85945790D02*
X112823244Y-86088647D01*
X112823244Y-86088647D02*
X112775625Y-86279123D01*
X112775625Y-86279123D02*
X112728006Y-86374361D01*
X112728006Y-86374361D02*
X112632768Y-86469600D01*
X112632768Y-86469600D02*
X112489911Y-86517219D01*
X112489911Y-86517219D02*
X112251816Y-86517219D01*
X113823244Y-86421980D02*
X113775625Y-86469600D01*
X113775625Y-86469600D02*
X113632768Y-86517219D01*
X113632768Y-86517219D02*
X113537530Y-86517219D01*
X113537530Y-86517219D02*
X113394673Y-86469600D01*
X113394673Y-86469600D02*
X113299435Y-86374361D01*
X113299435Y-86374361D02*
X113251816Y-86279123D01*
X113251816Y-86279123D02*
X113204197Y-86088647D01*
X113204197Y-86088647D02*
X113204197Y-85945790D01*
X113204197Y-85945790D02*
X113251816Y-85755314D01*
X113251816Y-85755314D02*
X113299435Y-85660076D01*
X113299435Y-85660076D02*
X113394673Y-85564838D01*
X113394673Y-85564838D02*
X113537530Y-85517219D01*
X113537530Y-85517219D02*
X113632768Y-85517219D01*
X113632768Y-85517219D02*
X113775625Y-85564838D01*
X113775625Y-85564838D02*
X113823244Y-85612457D01*
X114204197Y-86469600D02*
X114347054Y-86517219D01*
X114347054Y-86517219D02*
X114585149Y-86517219D01*
X114585149Y-86517219D02*
X114680387Y-86469600D01*
X114680387Y-86469600D02*
X114728006Y-86421980D01*
X114728006Y-86421980D02*
X114775625Y-86326742D01*
X114775625Y-86326742D02*
X114775625Y-86231504D01*
X114775625Y-86231504D02*
X114728006Y-86136266D01*
X114728006Y-86136266D02*
X114680387Y-86088647D01*
X114680387Y-86088647D02*
X114585149Y-86041028D01*
X114585149Y-86041028D02*
X114394673Y-85993409D01*
X114394673Y-85993409D02*
X114299435Y-85945790D01*
X114299435Y-85945790D02*
X114251816Y-85898171D01*
X114251816Y-85898171D02*
X114204197Y-85802933D01*
X114204197Y-85802933D02*
X114204197Y-85707695D01*
X114204197Y-85707695D02*
X114251816Y-85612457D01*
X114251816Y-85612457D02*
X114299435Y-85564838D01*
X114299435Y-85564838D02*
X114394673Y-85517219D01*
X114394673Y-85517219D02*
X114632768Y-85517219D01*
X114632768Y-85517219D02*
X114775625Y-85564838D01*
D11*
X103366759Y-85021119D02*
X103033426Y-84544928D01*
X102795331Y-85021119D02*
X102795331Y-84021119D01*
X102795331Y-84021119D02*
X103176283Y-84021119D01*
X103176283Y-84021119D02*
X103271521Y-84068738D01*
X103271521Y-84068738D02*
X103319140Y-84116357D01*
X103319140Y-84116357D02*
X103366759Y-84211595D01*
X103366759Y-84211595D02*
X103366759Y-84354452D01*
X103366759Y-84354452D02*
X103319140Y-84449690D01*
X103319140Y-84449690D02*
X103271521Y-84497309D01*
X103271521Y-84497309D02*
X103176283Y-84544928D01*
X103176283Y-84544928D02*
X102795331Y-84544928D01*
X103747712Y-84973500D02*
X103890569Y-85021119D01*
X103890569Y-85021119D02*
X104128664Y-85021119D01*
X104128664Y-85021119D02*
X104223902Y-84973500D01*
X104223902Y-84973500D02*
X104271521Y-84925880D01*
X104271521Y-84925880D02*
X104319140Y-84830642D01*
X104319140Y-84830642D02*
X104319140Y-84735404D01*
X104319140Y-84735404D02*
X104271521Y-84640166D01*
X104271521Y-84640166D02*
X104223902Y-84592547D01*
X104223902Y-84592547D02*
X104128664Y-84544928D01*
X104128664Y-84544928D02*
X103938188Y-84497309D01*
X103938188Y-84497309D02*
X103842950Y-84449690D01*
X103842950Y-84449690D02*
X103795331Y-84402071D01*
X103795331Y-84402071D02*
X103747712Y-84306833D01*
X103747712Y-84306833D02*
X103747712Y-84211595D01*
X103747712Y-84211595D02*
X103795331Y-84116357D01*
X103795331Y-84116357D02*
X103842950Y-84068738D01*
X103842950Y-84068738D02*
X103938188Y-84021119D01*
X103938188Y-84021119D02*
X104176283Y-84021119D01*
X104176283Y-84021119D02*
X104319140Y-84068738D01*
X105176283Y-84354452D02*
X105176283Y-85021119D01*
X104938188Y-83973500D02*
X104700093Y-84687785D01*
X104700093Y-84687785D02*
X105319140Y-84687785D01*
X105652474Y-84116357D02*
X105700093Y-84068738D01*
X105700093Y-84068738D02*
X105795331Y-84021119D01*
X105795331Y-84021119D02*
X106033426Y-84021119D01*
X106033426Y-84021119D02*
X106128664Y-84068738D01*
X106128664Y-84068738D02*
X106176283Y-84116357D01*
X106176283Y-84116357D02*
X106223902Y-84211595D01*
X106223902Y-84211595D02*
X106223902Y-84306833D01*
X106223902Y-84306833D02*
X106176283Y-84449690D01*
X106176283Y-84449690D02*
X105604855Y-85021119D01*
X105604855Y-85021119D02*
X106223902Y-85021119D01*
X106604855Y-84116357D02*
X106652474Y-84068738D01*
X106652474Y-84068738D02*
X106747712Y-84021119D01*
X106747712Y-84021119D02*
X106985807Y-84021119D01*
X106985807Y-84021119D02*
X107081045Y-84068738D01*
X107081045Y-84068738D02*
X107128664Y-84116357D01*
X107128664Y-84116357D02*
X107176283Y-84211595D01*
X107176283Y-84211595D02*
X107176283Y-84306833D01*
X107176283Y-84306833D02*
X107128664Y-84449690D01*
X107128664Y-84449690D02*
X106557236Y-85021119D01*
X106557236Y-85021119D02*
X107176283Y-85021119D01*
D10*
X157919360Y-76522419D02*
X158109836Y-76522419D01*
X158109836Y-76522419D02*
X158205074Y-76570038D01*
X158205074Y-76570038D02*
X158300312Y-76665276D01*
X158300312Y-76665276D02*
X158347931Y-76855752D01*
X158347931Y-76855752D02*
X158347931Y-77189085D01*
X158347931Y-77189085D02*
X158300312Y-77379561D01*
X158300312Y-77379561D02*
X158205074Y-77474800D01*
X158205074Y-77474800D02*
X158109836Y-77522419D01*
X158109836Y-77522419D02*
X157919360Y-77522419D01*
X157919360Y-77522419D02*
X157824122Y-77474800D01*
X157824122Y-77474800D02*
X157728884Y-77379561D01*
X157728884Y-77379561D02*
X157681265Y-77189085D01*
X157681265Y-77189085D02*
X157681265Y-76855752D01*
X157681265Y-76855752D02*
X157728884Y-76665276D01*
X157728884Y-76665276D02*
X157824122Y-76570038D01*
X157824122Y-76570038D02*
X157919360Y-76522419D01*
X159109836Y-76998609D02*
X159252693Y-77046228D01*
X159252693Y-77046228D02*
X159300312Y-77093847D01*
X159300312Y-77093847D02*
X159347931Y-77189085D01*
X159347931Y-77189085D02*
X159347931Y-77331942D01*
X159347931Y-77331942D02*
X159300312Y-77427180D01*
X159300312Y-77427180D02*
X159252693Y-77474800D01*
X159252693Y-77474800D02*
X159157455Y-77522419D01*
X159157455Y-77522419D02*
X158776503Y-77522419D01*
X158776503Y-77522419D02*
X158776503Y-76522419D01*
X158776503Y-76522419D02*
X159109836Y-76522419D01*
X159109836Y-76522419D02*
X159205074Y-76570038D01*
X159205074Y-76570038D02*
X159252693Y-76617657D01*
X159252693Y-76617657D02*
X159300312Y-76712895D01*
X159300312Y-76712895D02*
X159300312Y-76808133D01*
X159300312Y-76808133D02*
X159252693Y-76903371D01*
X159252693Y-76903371D02*
X159205074Y-76950990D01*
X159205074Y-76950990D02*
X159109836Y-76998609D01*
X159109836Y-76998609D02*
X158776503Y-76998609D01*
X160347931Y-77427180D02*
X160300312Y-77474800D01*
X160300312Y-77474800D02*
X160157455Y-77522419D01*
X160157455Y-77522419D02*
X160062217Y-77522419D01*
X160062217Y-77522419D02*
X159919360Y-77474800D01*
X159919360Y-77474800D02*
X159824122Y-77379561D01*
X159824122Y-77379561D02*
X159776503Y-77284323D01*
X159776503Y-77284323D02*
X159728884Y-77093847D01*
X159728884Y-77093847D02*
X159728884Y-76950990D01*
X159728884Y-76950990D02*
X159776503Y-76760514D01*
X159776503Y-76760514D02*
X159824122Y-76665276D01*
X159824122Y-76665276D02*
X159919360Y-76570038D01*
X159919360Y-76570038D02*
X160062217Y-76522419D01*
X160062217Y-76522419D02*
X160157455Y-76522419D01*
X160157455Y-76522419D02*
X160300312Y-76570038D01*
X160300312Y-76570038D02*
X160347931Y-76617657D01*
X161538408Y-77522419D02*
X161538408Y-76522419D01*
X161538408Y-76522419D02*
X161919360Y-76522419D01*
X161919360Y-76522419D02*
X162014598Y-76570038D01*
X162014598Y-76570038D02*
X162062217Y-76617657D01*
X162062217Y-76617657D02*
X162109836Y-76712895D01*
X162109836Y-76712895D02*
X162109836Y-76855752D01*
X162109836Y-76855752D02*
X162062217Y-76950990D01*
X162062217Y-76950990D02*
X162014598Y-76998609D01*
X162014598Y-76998609D02*
X161919360Y-77046228D01*
X161919360Y-77046228D02*
X161538408Y-77046228D01*
X162443170Y-76522419D02*
X162681265Y-77522419D01*
X162681265Y-77522419D02*
X162871741Y-76808133D01*
X162871741Y-76808133D02*
X163062217Y-77522419D01*
X163062217Y-77522419D02*
X163300313Y-76522419D01*
X164252693Y-77522419D02*
X163919360Y-77046228D01*
X163681265Y-77522419D02*
X163681265Y-76522419D01*
X163681265Y-76522419D02*
X164062217Y-76522419D01*
X164062217Y-76522419D02*
X164157455Y-76570038D01*
X164157455Y-76570038D02*
X164205074Y-76617657D01*
X164205074Y-76617657D02*
X164252693Y-76712895D01*
X164252693Y-76712895D02*
X164252693Y-76855752D01*
X164252693Y-76855752D02*
X164205074Y-76950990D01*
X164205074Y-76950990D02*
X164157455Y-76998609D01*
X164157455Y-76998609D02*
X164062217Y-77046228D01*
X164062217Y-77046228D02*
X163681265Y-77046228D01*
D12*
X130644673Y-82583213D02*
X130549435Y-82535594D01*
X130549435Y-82535594D02*
X130406578Y-82535594D01*
X130406578Y-82535594D02*
X130263721Y-82583213D01*
X130263721Y-82583213D02*
X130168483Y-82678451D01*
X130168483Y-82678451D02*
X130120864Y-82773689D01*
X130120864Y-82773689D02*
X130073245Y-82964165D01*
X130073245Y-82964165D02*
X130073245Y-83107022D01*
X130073245Y-83107022D02*
X130120864Y-83297498D01*
X130120864Y-83297498D02*
X130168483Y-83392736D01*
X130168483Y-83392736D02*
X130263721Y-83487975D01*
X130263721Y-83487975D02*
X130406578Y-83535594D01*
X130406578Y-83535594D02*
X130501816Y-83535594D01*
X130501816Y-83535594D02*
X130644673Y-83487975D01*
X130644673Y-83487975D02*
X130692292Y-83440355D01*
X130692292Y-83440355D02*
X130692292Y-83107022D01*
X130692292Y-83107022D02*
X130501816Y-83107022D01*
X131120864Y-83535594D02*
X131120864Y-82535594D01*
X131120864Y-82535594D02*
X131692292Y-83535594D01*
X131692292Y-83535594D02*
X131692292Y-82535594D01*
X132168483Y-83535594D02*
X132168483Y-82535594D01*
X132168483Y-82535594D02*
X132406578Y-82535594D01*
X132406578Y-82535594D02*
X132549435Y-82583213D01*
X132549435Y-82583213D02*
X132644673Y-82678451D01*
X132644673Y-82678451D02*
X132692292Y-82773689D01*
X132692292Y-82773689D02*
X132739911Y-82964165D01*
X132739911Y-82964165D02*
X132739911Y-83107022D01*
X132739911Y-83107022D02*
X132692292Y-83297498D01*
X132692292Y-83297498D02*
X132644673Y-83392736D01*
X132644673Y-83392736D02*
X132549435Y-83487975D01*
X132549435Y-83487975D02*
X132406578Y-83535594D01*
X132406578Y-83535594D02*
X132168483Y-83535594D01*
D11*
X167026034Y-68714895D02*
X166453615Y-68613880D01*
X166621973Y-69118957D02*
X165914867Y-68411850D01*
X165914867Y-68411850D02*
X166184241Y-68142476D01*
X166184241Y-68142476D02*
X166285256Y-68108804D01*
X166285256Y-68108804D02*
X166352599Y-68108804D01*
X166352599Y-68108804D02*
X166453615Y-68142476D01*
X166453615Y-68142476D02*
X166554630Y-68243491D01*
X166554630Y-68243491D02*
X166588302Y-68344506D01*
X166588302Y-68344506D02*
X166588302Y-68411850D01*
X166588302Y-68411850D02*
X166554630Y-68512865D01*
X166554630Y-68512865D02*
X166285256Y-68782239D01*
X166958691Y-68041460D02*
X167194393Y-67805758D01*
X167665798Y-68075132D02*
X167329080Y-68411850D01*
X167329080Y-68411850D02*
X166621973Y-67704743D01*
X166621973Y-67704743D02*
X166958691Y-67368025D01*
X167968843Y-67772086D02*
X167261737Y-67064980D01*
X167261737Y-67064980D02*
X167430095Y-66896621D01*
X167430095Y-66896621D02*
X167564782Y-66829277D01*
X167564782Y-66829277D02*
X167699469Y-66829277D01*
X167699469Y-66829277D02*
X167800485Y-66862949D01*
X167800485Y-66862949D02*
X167968843Y-66963964D01*
X167968843Y-66963964D02*
X168069859Y-67064980D01*
X168069859Y-67064980D02*
X168170874Y-67233338D01*
X168170874Y-67233338D02*
X168204546Y-67334354D01*
X168204546Y-67334354D02*
X168204546Y-67469041D01*
X168204546Y-67469041D02*
X168137202Y-67603728D01*
X168137202Y-67603728D02*
X167968843Y-67772086D01*
X168642279Y-65684438D02*
X168776966Y-65549751D01*
X168776966Y-65549751D02*
X168877981Y-65516079D01*
X168877981Y-65516079D02*
X169012668Y-65516079D01*
X169012668Y-65516079D02*
X169181027Y-65617094D01*
X169181027Y-65617094D02*
X169416729Y-65852796D01*
X169416729Y-65852796D02*
X169517744Y-66021155D01*
X169517744Y-66021155D02*
X169517744Y-66155842D01*
X169517744Y-66155842D02*
X169484072Y-66256857D01*
X169484072Y-66256857D02*
X169349385Y-66391544D01*
X169349385Y-66391544D02*
X169248370Y-66425216D01*
X169248370Y-66425216D02*
X169113683Y-66425216D01*
X169113683Y-66425216D02*
X168945324Y-66324201D01*
X168945324Y-66324201D02*
X168709622Y-66088499D01*
X168709622Y-66088499D02*
X168608607Y-65920140D01*
X168608607Y-65920140D02*
X168608607Y-65785453D01*
X168608607Y-65785453D02*
X168642279Y-65684438D01*
X169820790Y-65179361D02*
X169955477Y-65112018D01*
X169955477Y-65112018D02*
X170022820Y-65112018D01*
X170022820Y-65112018D02*
X170123836Y-65145690D01*
X170123836Y-65145690D02*
X170224851Y-65246705D01*
X170224851Y-65246705D02*
X170258523Y-65347720D01*
X170258523Y-65347720D02*
X170258523Y-65415064D01*
X170258523Y-65415064D02*
X170224851Y-65516079D01*
X170224851Y-65516079D02*
X169955477Y-65785453D01*
X169955477Y-65785453D02*
X169248370Y-65078346D01*
X169248370Y-65078346D02*
X169484072Y-64842644D01*
X169484072Y-64842644D02*
X169585088Y-64808972D01*
X169585088Y-64808972D02*
X169652431Y-64808972D01*
X169652431Y-64808972D02*
X169753446Y-64842644D01*
X169753446Y-64842644D02*
X169820790Y-64909987D01*
X169820790Y-64909987D02*
X169854462Y-65011003D01*
X169854462Y-65011003D02*
X169854462Y-65078346D01*
X169854462Y-65078346D02*
X169820790Y-65179361D01*
X169820790Y-65179361D02*
X169585088Y-65415064D01*
X170999301Y-64606942D02*
X170999301Y-64674285D01*
X170999301Y-64674285D02*
X170931958Y-64808972D01*
X170931958Y-64808972D02*
X170864614Y-64876316D01*
X170864614Y-64876316D02*
X170729927Y-64943659D01*
X170729927Y-64943659D02*
X170595240Y-64943659D01*
X170595240Y-64943659D02*
X170494225Y-64909987D01*
X170494225Y-64909987D02*
X170325866Y-64808972D01*
X170325866Y-64808972D02*
X170224851Y-64707957D01*
X170224851Y-64707957D02*
X170123836Y-64539598D01*
X170123836Y-64539598D02*
X170090164Y-64438583D01*
X170090164Y-64438583D02*
X170090164Y-64303896D01*
X170090164Y-64303896D02*
X170157507Y-64169209D01*
X170157507Y-64169209D02*
X170224851Y-64101865D01*
X170224851Y-64101865D02*
X170359538Y-64034522D01*
X170359538Y-64034522D02*
X170426881Y-64034522D01*
X168063421Y-68540099D02*
X168501154Y-68102366D01*
X168501154Y-68102366D02*
X168534826Y-68607442D01*
X168534826Y-68607442D02*
X168635841Y-68506427D01*
X168635841Y-68506427D02*
X168736856Y-68472755D01*
X168736856Y-68472755D02*
X168804200Y-68472755D01*
X168804200Y-68472755D02*
X168905215Y-68506427D01*
X168905215Y-68506427D02*
X169073574Y-68674786D01*
X169073574Y-68674786D02*
X169107246Y-68775801D01*
X169107246Y-68775801D02*
X169107246Y-68843145D01*
X169107246Y-68843145D02*
X169073574Y-68944160D01*
X169073574Y-68944160D02*
X168871543Y-69146190D01*
X168871543Y-69146190D02*
X168770528Y-69179862D01*
X168770528Y-69179862D02*
X168703185Y-69179862D01*
X168703185Y-67900336D02*
X169645994Y-68371740D01*
X169645994Y-68371740D02*
X169174589Y-67428931D01*
X169342948Y-67260572D02*
X169780681Y-66822839D01*
X169780681Y-66822839D02*
X169814353Y-67327916D01*
X169814353Y-67327916D02*
X169915368Y-67226900D01*
X169915368Y-67226900D02*
X170016383Y-67193229D01*
X170016383Y-67193229D02*
X170083727Y-67193229D01*
X170083727Y-67193229D02*
X170184742Y-67226900D01*
X170184742Y-67226900D02*
X170353101Y-67395259D01*
X170353101Y-67395259D02*
X170386772Y-67496274D01*
X170386772Y-67496274D02*
X170386772Y-67563618D01*
X170386772Y-67563618D02*
X170353101Y-67664633D01*
X170353101Y-67664633D02*
X170151070Y-67866664D01*
X170151070Y-67866664D02*
X170050055Y-67900335D01*
X170050055Y-67900335D02*
X169982711Y-67900335D01*
D10*
X106143765Y-66324800D02*
X106286622Y-66372419D01*
X106286622Y-66372419D02*
X106524717Y-66372419D01*
X106524717Y-66372419D02*
X106619955Y-66324800D01*
X106619955Y-66324800D02*
X106667574Y-66277180D01*
X106667574Y-66277180D02*
X106715193Y-66181942D01*
X106715193Y-66181942D02*
X106715193Y-66086704D01*
X106715193Y-66086704D02*
X106667574Y-65991466D01*
X106667574Y-65991466D02*
X106619955Y-65943847D01*
X106619955Y-65943847D02*
X106524717Y-65896228D01*
X106524717Y-65896228D02*
X106334241Y-65848609D01*
X106334241Y-65848609D02*
X106239003Y-65800990D01*
X106239003Y-65800990D02*
X106191384Y-65753371D01*
X106191384Y-65753371D02*
X106143765Y-65658133D01*
X106143765Y-65658133D02*
X106143765Y-65562895D01*
X106143765Y-65562895D02*
X106191384Y-65467657D01*
X106191384Y-65467657D02*
X106239003Y-65420038D01*
X106239003Y-65420038D02*
X106334241Y-65372419D01*
X106334241Y-65372419D02*
X106572336Y-65372419D01*
X106572336Y-65372419D02*
X106715193Y-65420038D01*
X107048527Y-65372419D02*
X107286622Y-66372419D01*
X107286622Y-66372419D02*
X107477098Y-65658133D01*
X107477098Y-65658133D02*
X107667574Y-66372419D01*
X107667574Y-66372419D02*
X107905670Y-65372419D01*
X108286622Y-66372419D02*
X108286622Y-65372419D01*
X108286622Y-65372419D02*
X108524717Y-65372419D01*
X108524717Y-65372419D02*
X108667574Y-65420038D01*
X108667574Y-65420038D02*
X108762812Y-65515276D01*
X108762812Y-65515276D02*
X108810431Y-65610514D01*
X108810431Y-65610514D02*
X108858050Y-65800990D01*
X108858050Y-65800990D02*
X108858050Y-65943847D01*
X108858050Y-65943847D02*
X108810431Y-66134323D01*
X108810431Y-66134323D02*
X108762812Y-66229561D01*
X108762812Y-66229561D02*
X108667574Y-66324800D01*
X108667574Y-66324800D02*
X108524717Y-66372419D01*
X108524717Y-66372419D02*
X108286622Y-66372419D01*
D12*
X137746980Y-62883898D02*
X137794600Y-62931517D01*
X137794600Y-62931517D02*
X137842219Y-63074374D01*
X137842219Y-63074374D02*
X137842219Y-63169612D01*
X137842219Y-63169612D02*
X137794600Y-63312469D01*
X137794600Y-63312469D02*
X137699361Y-63407707D01*
X137699361Y-63407707D02*
X137604123Y-63455326D01*
X137604123Y-63455326D02*
X137413647Y-63502945D01*
X137413647Y-63502945D02*
X137270790Y-63502945D01*
X137270790Y-63502945D02*
X137080314Y-63455326D01*
X137080314Y-63455326D02*
X136985076Y-63407707D01*
X136985076Y-63407707D02*
X136889838Y-63312469D01*
X136889838Y-63312469D02*
X136842219Y-63169612D01*
X136842219Y-63169612D02*
X136842219Y-63074374D01*
X136842219Y-63074374D02*
X136889838Y-62931517D01*
X136889838Y-62931517D02*
X136937457Y-62883898D01*
X136842219Y-62264850D02*
X136842219Y-62074374D01*
X136842219Y-62074374D02*
X136889838Y-61979136D01*
X136889838Y-61979136D02*
X136985076Y-61883898D01*
X136985076Y-61883898D02*
X137175552Y-61836279D01*
X137175552Y-61836279D02*
X137508885Y-61836279D01*
X137508885Y-61836279D02*
X137699361Y-61883898D01*
X137699361Y-61883898D02*
X137794600Y-61979136D01*
X137794600Y-61979136D02*
X137842219Y-62074374D01*
X137842219Y-62074374D02*
X137842219Y-62264850D01*
X137842219Y-62264850D02*
X137794600Y-62360088D01*
X137794600Y-62360088D02*
X137699361Y-62455326D01*
X137699361Y-62455326D02*
X137508885Y-62502945D01*
X137508885Y-62502945D02*
X137175552Y-62502945D01*
X137175552Y-62502945D02*
X136985076Y-62455326D01*
X136985076Y-62455326D02*
X136889838Y-62360088D01*
X136889838Y-62360088D02*
X136842219Y-62264850D01*
X137842219Y-61407707D02*
X136842219Y-61407707D01*
X136842219Y-61407707D02*
X137556504Y-61074374D01*
X137556504Y-61074374D02*
X136842219Y-60741041D01*
X136842219Y-60741041D02*
X137842219Y-60741041D01*
X137842219Y-60264850D02*
X136842219Y-60264850D01*
X136842219Y-60264850D02*
X137556504Y-59931517D01*
X137556504Y-59931517D02*
X136842219Y-59598184D01*
X136842219Y-59598184D02*
X137842219Y-59598184D01*
X137794600Y-59169612D02*
X137842219Y-59026755D01*
X137842219Y-59026755D02*
X137842219Y-58788660D01*
X137842219Y-58788660D02*
X137794600Y-58693422D01*
X137794600Y-58693422D02*
X137746980Y-58645803D01*
X137746980Y-58645803D02*
X137651742Y-58598184D01*
X137651742Y-58598184D02*
X137556504Y-58598184D01*
X137556504Y-58598184D02*
X137461266Y-58645803D01*
X137461266Y-58645803D02*
X137413647Y-58693422D01*
X137413647Y-58693422D02*
X137366028Y-58788660D01*
X137366028Y-58788660D02*
X137318409Y-58979136D01*
X137318409Y-58979136D02*
X137270790Y-59074374D01*
X137270790Y-59074374D02*
X137223171Y-59121993D01*
X137223171Y-59121993D02*
X137127933Y-59169612D01*
X137127933Y-59169612D02*
X137032695Y-59169612D01*
X137032695Y-59169612D02*
X136937457Y-59121993D01*
X136937457Y-59121993D02*
X136889838Y-59074374D01*
X136889838Y-59074374D02*
X136842219Y-58979136D01*
X136842219Y-58979136D02*
X136842219Y-58741041D01*
X136842219Y-58741041D02*
X136889838Y-58598184D01*
X136842219Y-57407707D02*
X137651742Y-57407707D01*
X137651742Y-57407707D02*
X137746980Y-57360088D01*
X137746980Y-57360088D02*
X137794600Y-57312469D01*
X137794600Y-57312469D02*
X137842219Y-57217231D01*
X137842219Y-57217231D02*
X137842219Y-57026755D01*
X137842219Y-57026755D02*
X137794600Y-56931517D01*
X137794600Y-56931517D02*
X137746980Y-56883898D01*
X137746980Y-56883898D02*
X137651742Y-56836279D01*
X137651742Y-56836279D02*
X136842219Y-56836279D01*
X137556504Y-56407707D02*
X137556504Y-55931517D01*
X137842219Y-56502945D02*
X136842219Y-56169612D01*
X136842219Y-56169612D02*
X137842219Y-55836279D01*
X137842219Y-54931517D02*
X137366028Y-55264850D01*
X137842219Y-55502945D02*
X136842219Y-55502945D01*
X136842219Y-55502945D02*
X136842219Y-55121993D01*
X136842219Y-55121993D02*
X136889838Y-55026755D01*
X136889838Y-55026755D02*
X136937457Y-54979136D01*
X136937457Y-54979136D02*
X137032695Y-54931517D01*
X137032695Y-54931517D02*
X137175552Y-54931517D01*
X137175552Y-54931517D02*
X137270790Y-54979136D01*
X137270790Y-54979136D02*
X137318409Y-55026755D01*
X137318409Y-55026755D02*
X137366028Y-55121993D01*
X137366028Y-55121993D02*
X137366028Y-55502945D01*
X136842219Y-54645802D02*
X136842219Y-54074374D01*
X137842219Y-54360088D02*
X136842219Y-54360088D01*
D11*
X106016163Y-82446119D02*
X106587591Y-82446119D01*
X106301877Y-83446119D02*
X106301877Y-82446119D01*
X106825687Y-82446119D02*
X107492353Y-83446119D01*
X107492353Y-82446119D02*
X106825687Y-83446119D01*
X107873306Y-83446119D02*
X107873306Y-82446119D01*
X107873306Y-82446119D02*
X108254258Y-82446119D01*
X108254258Y-82446119D02*
X108349496Y-82493738D01*
X108349496Y-82493738D02*
X108397115Y-82541357D01*
X108397115Y-82541357D02*
X108444734Y-82636595D01*
X108444734Y-82636595D02*
X108444734Y-82779452D01*
X108444734Y-82779452D02*
X108397115Y-82874690D01*
X108397115Y-82874690D02*
X108349496Y-82922309D01*
X108349496Y-82922309D02*
X108254258Y-82969928D01*
X108254258Y-82969928D02*
X107873306Y-82969928D01*
D10*
X144927694Y-83130579D02*
X145403884Y-83130579D01*
X144832456Y-83416294D02*
X145165789Y-82416294D01*
X145165789Y-82416294D02*
X145499122Y-83416294D01*
D11*
X91921119Y-60790978D02*
X90921119Y-60790978D01*
X91397309Y-60790978D02*
X91397309Y-60219550D01*
X91921119Y-60219550D02*
X90921119Y-60219550D01*
D10*
X124728884Y-65272419D02*
X124728884Y-66081942D01*
X124728884Y-66081942D02*
X124776503Y-66177180D01*
X124776503Y-66177180D02*
X124824122Y-66224800D01*
X124824122Y-66224800D02*
X124919360Y-66272419D01*
X124919360Y-66272419D02*
X125109836Y-66272419D01*
X125109836Y-66272419D02*
X125205074Y-66224800D01*
X125205074Y-66224800D02*
X125252693Y-66177180D01*
X125252693Y-66177180D02*
X125300312Y-66081942D01*
X125300312Y-66081942D02*
X125300312Y-65272419D01*
D11*
X98428069Y-83446119D02*
X98094736Y-82969928D01*
X97856641Y-83446119D02*
X97856641Y-82446119D01*
X97856641Y-82446119D02*
X98237593Y-82446119D01*
X98237593Y-82446119D02*
X98332831Y-82493738D01*
X98332831Y-82493738D02*
X98380450Y-82541357D01*
X98380450Y-82541357D02*
X98428069Y-82636595D01*
X98428069Y-82636595D02*
X98428069Y-82779452D01*
X98428069Y-82779452D02*
X98380450Y-82874690D01*
X98380450Y-82874690D02*
X98332831Y-82922309D01*
X98332831Y-82922309D02*
X98237593Y-82969928D01*
X98237593Y-82969928D02*
X97856641Y-82969928D01*
X98761403Y-82446119D02*
X99428069Y-83446119D01*
X99428069Y-82446119D02*
X98761403Y-83446119D01*
X99809022Y-83446119D02*
X99809022Y-82446119D01*
X99809022Y-82446119D02*
X100189974Y-82446119D01*
X100189974Y-82446119D02*
X100285212Y-82493738D01*
X100285212Y-82493738D02*
X100332831Y-82541357D01*
X100332831Y-82541357D02*
X100380450Y-82636595D01*
X100380450Y-82636595D02*
X100380450Y-82779452D01*
X100380450Y-82779452D02*
X100332831Y-82874690D01*
X100332831Y-82874690D02*
X100285212Y-82922309D01*
X100285212Y-82922309D02*
X100189974Y-82969928D01*
X100189974Y-82969928D02*
X99809022Y-82969928D01*
D10*
X150428884Y-77497419D02*
X150428884Y-76497419D01*
X150857455Y-76592657D02*
X150905074Y-76545038D01*
X150905074Y-76545038D02*
X151000312Y-76497419D01*
X151000312Y-76497419D02*
X151238407Y-76497419D01*
X151238407Y-76497419D02*
X151333645Y-76545038D01*
X151333645Y-76545038D02*
X151381264Y-76592657D01*
X151381264Y-76592657D02*
X151428883Y-76687895D01*
X151428883Y-76687895D02*
X151428883Y-76783133D01*
X151428883Y-76783133D02*
X151381264Y-76925990D01*
X151381264Y-76925990D02*
X150809836Y-77497419D01*
X150809836Y-77497419D02*
X151428883Y-77497419D01*
X152428883Y-77402180D02*
X152381264Y-77449800D01*
X152381264Y-77449800D02*
X152238407Y-77497419D01*
X152238407Y-77497419D02*
X152143169Y-77497419D01*
X152143169Y-77497419D02*
X152000312Y-77449800D01*
X152000312Y-77449800D02*
X151905074Y-77354561D01*
X151905074Y-77354561D02*
X151857455Y-77259323D01*
X151857455Y-77259323D02*
X151809836Y-77068847D01*
X151809836Y-77068847D02*
X151809836Y-76925990D01*
X151809836Y-76925990D02*
X151857455Y-76735514D01*
X151857455Y-76735514D02*
X151905074Y-76640276D01*
X151905074Y-76640276D02*
X152000312Y-76545038D01*
X152000312Y-76545038D02*
X152143169Y-76497419D01*
X152143169Y-76497419D02*
X152238407Y-76497419D01*
X152238407Y-76497419D02*
X152381264Y-76545038D01*
X152381264Y-76545038D02*
X152428883Y-76592657D01*
D11*
X126799497Y-83446119D02*
X126466164Y-82969928D01*
X126228069Y-83446119D02*
X126228069Y-82446119D01*
X126228069Y-82446119D02*
X126609021Y-82446119D01*
X126609021Y-82446119D02*
X126704259Y-82493738D01*
X126704259Y-82493738D02*
X126751878Y-82541357D01*
X126751878Y-82541357D02*
X126799497Y-82636595D01*
X126799497Y-82636595D02*
X126799497Y-82779452D01*
X126799497Y-82779452D02*
X126751878Y-82874690D01*
X126751878Y-82874690D02*
X126704259Y-82922309D01*
X126704259Y-82922309D02*
X126609021Y-82969928D01*
X126609021Y-82969928D02*
X126228069Y-82969928D01*
X127132831Y-83446119D02*
X127656640Y-82779452D01*
X127132831Y-82779452D02*
X127656640Y-83446119D01*
D10*
X114553884Y-65359919D02*
X114553884Y-66169442D01*
X114553884Y-66169442D02*
X114601503Y-66264680D01*
X114601503Y-66264680D02*
X114649122Y-66312300D01*
X114649122Y-66312300D02*
X114744360Y-66359919D01*
X114744360Y-66359919D02*
X114934836Y-66359919D01*
X114934836Y-66359919D02*
X115030074Y-66312300D01*
X115030074Y-66312300D02*
X115077693Y-66264680D01*
X115077693Y-66264680D02*
X115125312Y-66169442D01*
X115125312Y-66169442D02*
X115125312Y-65359919D01*
X133950313Y-59159919D02*
X134521741Y-59159919D01*
X134236027Y-60159919D02*
X134236027Y-59159919D01*
X134759837Y-60159919D02*
X135283646Y-59493252D01*
X134759837Y-59493252D02*
X135283646Y-60159919D01*
D11*
X162949498Y-82511175D02*
X163139974Y-82511175D01*
X163139974Y-82511175D02*
X163235212Y-82558794D01*
X163235212Y-82558794D02*
X163330450Y-82654032D01*
X163330450Y-82654032D02*
X163378069Y-82844508D01*
X163378069Y-82844508D02*
X163378069Y-83177841D01*
X163378069Y-83177841D02*
X163330450Y-83368317D01*
X163330450Y-83368317D02*
X163235212Y-83463556D01*
X163235212Y-83463556D02*
X163139974Y-83511175D01*
X163139974Y-83511175D02*
X162949498Y-83511175D01*
X162949498Y-83511175D02*
X162854260Y-83463556D01*
X162854260Y-83463556D02*
X162759022Y-83368317D01*
X162759022Y-83368317D02*
X162711403Y-83177841D01*
X162711403Y-83177841D02*
X162711403Y-82844508D01*
X162711403Y-82844508D02*
X162759022Y-82654032D01*
X162759022Y-82654032D02*
X162854260Y-82558794D01*
X162854260Y-82558794D02*
X162949498Y-82511175D01*
X164139974Y-82987365D02*
X164282831Y-83034984D01*
X164282831Y-83034984D02*
X164330450Y-83082603D01*
X164330450Y-83082603D02*
X164378069Y-83177841D01*
X164378069Y-83177841D02*
X164378069Y-83320698D01*
X164378069Y-83320698D02*
X164330450Y-83415936D01*
X164330450Y-83415936D02*
X164282831Y-83463556D01*
X164282831Y-83463556D02*
X164187593Y-83511175D01*
X164187593Y-83511175D02*
X163806641Y-83511175D01*
X163806641Y-83511175D02*
X163806641Y-82511175D01*
X163806641Y-82511175D02*
X164139974Y-82511175D01*
X164139974Y-82511175D02*
X164235212Y-82558794D01*
X164235212Y-82558794D02*
X164282831Y-82606413D01*
X164282831Y-82606413D02*
X164330450Y-82701651D01*
X164330450Y-82701651D02*
X164330450Y-82796889D01*
X164330450Y-82796889D02*
X164282831Y-82892127D01*
X164282831Y-82892127D02*
X164235212Y-82939746D01*
X164235212Y-82939746D02*
X164139974Y-82987365D01*
X164139974Y-82987365D02*
X163806641Y-82987365D01*
X165378069Y-83415936D02*
X165330450Y-83463556D01*
X165330450Y-83463556D02*
X165187593Y-83511175D01*
X165187593Y-83511175D02*
X165092355Y-83511175D01*
X165092355Y-83511175D02*
X164949498Y-83463556D01*
X164949498Y-83463556D02*
X164854260Y-83368317D01*
X164854260Y-83368317D02*
X164806641Y-83273079D01*
X164806641Y-83273079D02*
X164759022Y-83082603D01*
X164759022Y-83082603D02*
X164759022Y-82939746D01*
X164759022Y-82939746D02*
X164806641Y-82749270D01*
X164806641Y-82749270D02*
X164854260Y-82654032D01*
X164854260Y-82654032D02*
X164949498Y-82558794D01*
X164949498Y-82558794D02*
X165092355Y-82511175D01*
X165092355Y-82511175D02*
X165187593Y-82511175D01*
X165187593Y-82511175D02*
X165330450Y-82558794D01*
X165330450Y-82558794D02*
X165378069Y-82606413D01*
X162663784Y-84121119D02*
X163282831Y-84121119D01*
X163282831Y-84121119D02*
X162949498Y-84502071D01*
X162949498Y-84502071D02*
X163092355Y-84502071D01*
X163092355Y-84502071D02*
X163187593Y-84549690D01*
X163187593Y-84549690D02*
X163235212Y-84597309D01*
X163235212Y-84597309D02*
X163282831Y-84692547D01*
X163282831Y-84692547D02*
X163282831Y-84930642D01*
X163282831Y-84930642D02*
X163235212Y-85025880D01*
X163235212Y-85025880D02*
X163187593Y-85073500D01*
X163187593Y-85073500D02*
X163092355Y-85121119D01*
X163092355Y-85121119D02*
X162806641Y-85121119D01*
X162806641Y-85121119D02*
X162711403Y-85073500D01*
X162711403Y-85073500D02*
X162663784Y-85025880D01*
X163568546Y-84121119D02*
X163901879Y-85121119D01*
X163901879Y-85121119D02*
X164235212Y-84121119D01*
X164473308Y-84121119D02*
X165092355Y-84121119D01*
X165092355Y-84121119D02*
X164759022Y-84502071D01*
X164759022Y-84502071D02*
X164901879Y-84502071D01*
X164901879Y-84502071D02*
X164997117Y-84549690D01*
X164997117Y-84549690D02*
X165044736Y-84597309D01*
X165044736Y-84597309D02*
X165092355Y-84692547D01*
X165092355Y-84692547D02*
X165092355Y-84930642D01*
X165092355Y-84930642D02*
X165044736Y-85025880D01*
X165044736Y-85025880D02*
X164997117Y-85073500D01*
X164997117Y-85073500D02*
X164901879Y-85121119D01*
X164901879Y-85121119D02*
X164616165Y-85121119D01*
X164616165Y-85121119D02*
X164520927Y-85073500D01*
X164520927Y-85073500D02*
X164473308Y-85025880D01*
D10*
X127052694Y-54173609D02*
X127386027Y-54173609D01*
X127528884Y-54697419D02*
X127052694Y-54697419D01*
X127052694Y-54697419D02*
X127052694Y-53697419D01*
X127052694Y-53697419D02*
X127528884Y-53697419D01*
X127957456Y-54697419D02*
X127957456Y-53697419D01*
X127957456Y-53697419D02*
X128528884Y-54697419D01*
X128528884Y-54697419D02*
X128528884Y-53697419D01*
X114170550Y-60347419D02*
X113837217Y-59871228D01*
X113599122Y-60347419D02*
X113599122Y-59347419D01*
X113599122Y-59347419D02*
X113980074Y-59347419D01*
X113980074Y-59347419D02*
X114075312Y-59395038D01*
X114075312Y-59395038D02*
X114122931Y-59442657D01*
X114122931Y-59442657D02*
X114170550Y-59537895D01*
X114170550Y-59537895D02*
X114170550Y-59680752D01*
X114170550Y-59680752D02*
X114122931Y-59775990D01*
X114122931Y-59775990D02*
X114075312Y-59823609D01*
X114075312Y-59823609D02*
X113980074Y-59871228D01*
X113980074Y-59871228D02*
X113599122Y-59871228D01*
X114503884Y-60347419D02*
X115027693Y-59680752D01*
X114503884Y-59680752D02*
X115027693Y-60347419D01*
D12*
X117342219Y-63658898D02*
X116866028Y-63992231D01*
X117342219Y-64230326D02*
X116342219Y-64230326D01*
X116342219Y-64230326D02*
X116342219Y-63849374D01*
X116342219Y-63849374D02*
X116389838Y-63754136D01*
X116389838Y-63754136D02*
X116437457Y-63706517D01*
X116437457Y-63706517D02*
X116532695Y-63658898D01*
X116532695Y-63658898D02*
X116675552Y-63658898D01*
X116675552Y-63658898D02*
X116770790Y-63706517D01*
X116770790Y-63706517D02*
X116818409Y-63754136D01*
X116818409Y-63754136D02*
X116866028Y-63849374D01*
X116866028Y-63849374D02*
X116866028Y-64230326D01*
X116818409Y-63230326D02*
X116818409Y-62896993D01*
X117342219Y-62754136D02*
X117342219Y-63230326D01*
X117342219Y-63230326D02*
X116342219Y-63230326D01*
X116342219Y-63230326D02*
X116342219Y-62754136D01*
X117342219Y-62325564D02*
X116342219Y-62325564D01*
X116342219Y-62325564D02*
X116342219Y-62087469D01*
X116342219Y-62087469D02*
X116389838Y-61944612D01*
X116389838Y-61944612D02*
X116485076Y-61849374D01*
X116485076Y-61849374D02*
X116580314Y-61801755D01*
X116580314Y-61801755D02*
X116770790Y-61754136D01*
X116770790Y-61754136D02*
X116913647Y-61754136D01*
X116913647Y-61754136D02*
X117104123Y-61801755D01*
X117104123Y-61801755D02*
X117199361Y-61849374D01*
X117199361Y-61849374D02*
X117294600Y-61944612D01*
X117294600Y-61944612D02*
X117342219Y-62087469D01*
X117342219Y-62087469D02*
X117342219Y-62325564D01*
X116342219Y-60373183D02*
X116342219Y-60182707D01*
X116342219Y-60182707D02*
X116389838Y-60087469D01*
X116389838Y-60087469D02*
X116485076Y-59992231D01*
X116485076Y-59992231D02*
X116675552Y-59944612D01*
X116675552Y-59944612D02*
X117008885Y-59944612D01*
X117008885Y-59944612D02*
X117199361Y-59992231D01*
X117199361Y-59992231D02*
X117294600Y-60087469D01*
X117294600Y-60087469D02*
X117342219Y-60182707D01*
X117342219Y-60182707D02*
X117342219Y-60373183D01*
X117342219Y-60373183D02*
X117294600Y-60468421D01*
X117294600Y-60468421D02*
X117199361Y-60563659D01*
X117199361Y-60563659D02*
X117008885Y-60611278D01*
X117008885Y-60611278D02*
X116675552Y-60611278D01*
X116675552Y-60611278D02*
X116485076Y-60563659D01*
X116485076Y-60563659D02*
X116389838Y-60468421D01*
X116389838Y-60468421D02*
X116342219Y-60373183D01*
X116818409Y-59182707D02*
X116866028Y-59039850D01*
X116866028Y-59039850D02*
X116913647Y-58992231D01*
X116913647Y-58992231D02*
X117008885Y-58944612D01*
X117008885Y-58944612D02*
X117151742Y-58944612D01*
X117151742Y-58944612D02*
X117246980Y-58992231D01*
X117246980Y-58992231D02*
X117294600Y-59039850D01*
X117294600Y-59039850D02*
X117342219Y-59135088D01*
X117342219Y-59135088D02*
X117342219Y-59516040D01*
X117342219Y-59516040D02*
X116342219Y-59516040D01*
X116342219Y-59516040D02*
X116342219Y-59182707D01*
X116342219Y-59182707D02*
X116389838Y-59087469D01*
X116389838Y-59087469D02*
X116437457Y-59039850D01*
X116437457Y-59039850D02*
X116532695Y-58992231D01*
X116532695Y-58992231D02*
X116627933Y-58992231D01*
X116627933Y-58992231D02*
X116723171Y-59039850D01*
X116723171Y-59039850D02*
X116770790Y-59087469D01*
X116770790Y-59087469D02*
X116818409Y-59182707D01*
X116818409Y-59182707D02*
X116818409Y-59516040D01*
X117246980Y-57944612D02*
X117294600Y-57992231D01*
X117294600Y-57992231D02*
X117342219Y-58135088D01*
X117342219Y-58135088D02*
X117342219Y-58230326D01*
X117342219Y-58230326D02*
X117294600Y-58373183D01*
X117294600Y-58373183D02*
X117199361Y-58468421D01*
X117199361Y-58468421D02*
X117104123Y-58516040D01*
X117104123Y-58516040D02*
X116913647Y-58563659D01*
X116913647Y-58563659D02*
X116770790Y-58563659D01*
X116770790Y-58563659D02*
X116580314Y-58516040D01*
X116580314Y-58516040D02*
X116485076Y-58468421D01*
X116485076Y-58468421D02*
X116389838Y-58373183D01*
X116389838Y-58373183D02*
X116342219Y-58230326D01*
X116342219Y-58230326D02*
X116342219Y-58135088D01*
X116342219Y-58135088D02*
X116389838Y-57992231D01*
X116389838Y-57992231D02*
X116437457Y-57944612D01*
X116342219Y-56754135D02*
X117151742Y-56754135D01*
X117151742Y-56754135D02*
X117246980Y-56706516D01*
X117246980Y-56706516D02*
X117294600Y-56658897D01*
X117294600Y-56658897D02*
X117342219Y-56563659D01*
X117342219Y-56563659D02*
X117342219Y-56373183D01*
X117342219Y-56373183D02*
X117294600Y-56277945D01*
X117294600Y-56277945D02*
X117246980Y-56230326D01*
X117246980Y-56230326D02*
X117151742Y-56182707D01*
X117151742Y-56182707D02*
X116342219Y-56182707D01*
X117056504Y-55754135D02*
X117056504Y-55277945D01*
X117342219Y-55849373D02*
X116342219Y-55516040D01*
X116342219Y-55516040D02*
X117342219Y-55182707D01*
X117342219Y-54277945D02*
X116866028Y-54611278D01*
X117342219Y-54849373D02*
X116342219Y-54849373D01*
X116342219Y-54849373D02*
X116342219Y-54468421D01*
X116342219Y-54468421D02*
X116389838Y-54373183D01*
X116389838Y-54373183D02*
X116437457Y-54325564D01*
X116437457Y-54325564D02*
X116532695Y-54277945D01*
X116532695Y-54277945D02*
X116675552Y-54277945D01*
X116675552Y-54277945D02*
X116770790Y-54325564D01*
X116770790Y-54325564D02*
X116818409Y-54373183D01*
X116818409Y-54373183D02*
X116866028Y-54468421D01*
X116866028Y-54468421D02*
X116866028Y-54849373D01*
X116342219Y-53992230D02*
X116342219Y-53420802D01*
X117342219Y-53706516D02*
X116342219Y-53706516D01*
D10*
X129656265Y-65936704D02*
X130132455Y-65936704D01*
X129561027Y-66222419D02*
X129894360Y-65222419D01*
X129894360Y-65222419D02*
X130227693Y-66222419D01*
X130561027Y-66222419D02*
X130561027Y-65222419D01*
X130561027Y-65222419D02*
X130799122Y-65222419D01*
X130799122Y-65222419D02*
X130941979Y-65270038D01*
X130941979Y-65270038D02*
X131037217Y-65365276D01*
X131037217Y-65365276D02*
X131084836Y-65460514D01*
X131084836Y-65460514D02*
X131132455Y-65650990D01*
X131132455Y-65650990D02*
X131132455Y-65793847D01*
X131132455Y-65793847D02*
X131084836Y-65984323D01*
X131084836Y-65984323D02*
X131037217Y-66079561D01*
X131037217Y-66079561D02*
X130941979Y-66174800D01*
X130941979Y-66174800D02*
X130799122Y-66222419D01*
X130799122Y-66222419D02*
X130561027Y-66222419D01*
X132132455Y-66127180D02*
X132084836Y-66174800D01*
X132084836Y-66174800D02*
X131941979Y-66222419D01*
X131941979Y-66222419D02*
X131846741Y-66222419D01*
X131846741Y-66222419D02*
X131703884Y-66174800D01*
X131703884Y-66174800D02*
X131608646Y-66079561D01*
X131608646Y-66079561D02*
X131561027Y-65984323D01*
X131561027Y-65984323D02*
X131513408Y-65793847D01*
X131513408Y-65793847D02*
X131513408Y-65650990D01*
X131513408Y-65650990D02*
X131561027Y-65460514D01*
X131561027Y-65460514D02*
X131608646Y-65365276D01*
X131608646Y-65365276D02*
X131703884Y-65270038D01*
X131703884Y-65270038D02*
X131846741Y-65222419D01*
X131846741Y-65222419D02*
X131941979Y-65222419D01*
X131941979Y-65222419D02*
X132084836Y-65270038D01*
X132084836Y-65270038D02*
X132132455Y-65317657D01*
X132513408Y-66174800D02*
X132656265Y-66222419D01*
X132656265Y-66222419D02*
X132894360Y-66222419D01*
X132894360Y-66222419D02*
X132989598Y-66174800D01*
X132989598Y-66174800D02*
X133037217Y-66127180D01*
X133037217Y-66127180D02*
X133084836Y-66031942D01*
X133084836Y-66031942D02*
X133084836Y-65936704D01*
X133084836Y-65936704D02*
X133037217Y-65841466D01*
X133037217Y-65841466D02*
X132989598Y-65793847D01*
X132989598Y-65793847D02*
X132894360Y-65746228D01*
X132894360Y-65746228D02*
X132703884Y-65698609D01*
X132703884Y-65698609D02*
X132608646Y-65650990D01*
X132608646Y-65650990D02*
X132561027Y-65603371D01*
X132561027Y-65603371D02*
X132513408Y-65508133D01*
X132513408Y-65508133D02*
X132513408Y-65412895D01*
X132513408Y-65412895D02*
X132561027Y-65317657D01*
X132561027Y-65317657D02*
X132608646Y-65270038D01*
X132608646Y-65270038D02*
X132703884Y-65222419D01*
X132703884Y-65222419D02*
X132941979Y-65222419D01*
X132941979Y-65222419D02*
X133084836Y-65270038D01*
X106668169Y-60247419D02*
X106334836Y-59771228D01*
X106096741Y-60247419D02*
X106096741Y-59247419D01*
X106096741Y-59247419D02*
X106477693Y-59247419D01*
X106477693Y-59247419D02*
X106572931Y-59295038D01*
X106572931Y-59295038D02*
X106620550Y-59342657D01*
X106620550Y-59342657D02*
X106668169Y-59437895D01*
X106668169Y-59437895D02*
X106668169Y-59580752D01*
X106668169Y-59580752D02*
X106620550Y-59675990D01*
X106620550Y-59675990D02*
X106572931Y-59723609D01*
X106572931Y-59723609D02*
X106477693Y-59771228D01*
X106477693Y-59771228D02*
X106096741Y-59771228D01*
X107049122Y-60199800D02*
X107191979Y-60247419D01*
X107191979Y-60247419D02*
X107430074Y-60247419D01*
X107430074Y-60247419D02*
X107525312Y-60199800D01*
X107525312Y-60199800D02*
X107572931Y-60152180D01*
X107572931Y-60152180D02*
X107620550Y-60056942D01*
X107620550Y-60056942D02*
X107620550Y-59961704D01*
X107620550Y-59961704D02*
X107572931Y-59866466D01*
X107572931Y-59866466D02*
X107525312Y-59818847D01*
X107525312Y-59818847D02*
X107430074Y-59771228D01*
X107430074Y-59771228D02*
X107239598Y-59723609D01*
X107239598Y-59723609D02*
X107144360Y-59675990D01*
X107144360Y-59675990D02*
X107096741Y-59628371D01*
X107096741Y-59628371D02*
X107049122Y-59533133D01*
X107049122Y-59533133D02*
X107049122Y-59437895D01*
X107049122Y-59437895D02*
X107096741Y-59342657D01*
X107096741Y-59342657D02*
X107144360Y-59295038D01*
X107144360Y-59295038D02*
X107239598Y-59247419D01*
X107239598Y-59247419D02*
X107477693Y-59247419D01*
X107477693Y-59247419D02*
X107620550Y-59295038D01*
X107906265Y-59247419D02*
X108477693Y-59247419D01*
X108191979Y-60247419D02*
X108191979Y-59247419D01*
X144490194Y-59159919D02*
X145109241Y-59159919D01*
X145109241Y-59159919D02*
X144775908Y-59540871D01*
X144775908Y-59540871D02*
X144918765Y-59540871D01*
X144918765Y-59540871D02*
X145014003Y-59588490D01*
X145014003Y-59588490D02*
X145061622Y-59636109D01*
X145061622Y-59636109D02*
X145109241Y-59731347D01*
X145109241Y-59731347D02*
X145109241Y-59969442D01*
X145109241Y-59969442D02*
X145061622Y-60064680D01*
X145061622Y-60064680D02*
X145014003Y-60112300D01*
X145014003Y-60112300D02*
X144918765Y-60159919D01*
X144918765Y-60159919D02*
X144633051Y-60159919D01*
X144633051Y-60159919D02*
X144537813Y-60112300D01*
X144537813Y-60112300D02*
X144490194Y-60064680D01*
X145394956Y-59159919D02*
X145728289Y-60159919D01*
X145728289Y-60159919D02*
X146061622Y-59159919D01*
X146299718Y-59159919D02*
X146918765Y-59159919D01*
X146918765Y-59159919D02*
X146585432Y-59540871D01*
X146585432Y-59540871D02*
X146728289Y-59540871D01*
X146728289Y-59540871D02*
X146823527Y-59588490D01*
X146823527Y-59588490D02*
X146871146Y-59636109D01*
X146871146Y-59636109D02*
X146918765Y-59731347D01*
X146918765Y-59731347D02*
X146918765Y-59969442D01*
X146918765Y-59969442D02*
X146871146Y-60064680D01*
X146871146Y-60064680D02*
X146823527Y-60112300D01*
X146823527Y-60112300D02*
X146728289Y-60159919D01*
X146728289Y-60159919D02*
X146442575Y-60159919D01*
X146442575Y-60159919D02*
X146347337Y-60112300D01*
X146347337Y-60112300D02*
X146299718Y-60064680D01*
D11*
X91871119Y-82554668D02*
X90871119Y-82554668D01*
X91347309Y-82554668D02*
X91347309Y-81983240D01*
X91871119Y-81983240D02*
X90871119Y-81983240D01*
D14*
%TO.C,TP36*%
X170325000Y-75200000D02*
G75*
G02*
X166925000Y-75200000I-1700000J0D01*
G01*
X166925000Y-75200000D02*
G75*
G02*
X170325000Y-75200000I1700000J0D01*
G01*
%TO.C,TP23*%
X115950000Y-56800000D02*
G75*
G02*
X112550000Y-56800000I-1700000J0D01*
G01*
X112550000Y-56800000D02*
G75*
G02*
X115950000Y-56800000I1700000J0D01*
G01*
%TO.C,TP2*%
X106375000Y-56800000D02*
G75*
G02*
X102975000Y-56800000I-1700000J0D01*
G01*
X102975000Y-56800000D02*
G75*
G02*
X106375000Y-56800000I1700000J0D01*
G01*
%TO.C,TP9*%
X143150000Y-62300000D02*
G75*
G02*
X139750000Y-62300000I-1700000J0D01*
G01*
X139750000Y-62300000D02*
G75*
G02*
X143150000Y-62300000I1700000J0D01*
G01*
%TO.C,TP15*%
X166375000Y-62300000D02*
G75*
G02*
X162975000Y-62300000I-1700000J0D01*
G01*
X162975000Y-62300000D02*
G75*
G02*
X166375000Y-62300000I1700000J0D01*
G01*
%TO.C,TP29*%
X96050000Y-73550000D02*
G75*
G02*
X92650000Y-73550000I-1700000J0D01*
G01*
X92650000Y-73550000D02*
G75*
G02*
X96050000Y-73550000I1700000J0D01*
G01*
%TO.C,TP45*%
X100800000Y-80125000D02*
G75*
G02*
X97400000Y-80125000I-1700000J0D01*
G01*
X97400000Y-80125000D02*
G75*
G02*
X100800000Y-80125000I1700000J0D01*
G01*
%TO.C,TP31*%
X128600000Y-80125000D02*
G75*
G02*
X125200000Y-80125000I-1700000J0D01*
G01*
X125200000Y-80125000D02*
G75*
G02*
X128600000Y-80125000I1700000J0D01*
G01*
%TO.C,TP33*%
X154950000Y-80125000D02*
G75*
G02*
X151550000Y-80125000I-1700000J0D01*
G01*
X151550000Y-80125000D02*
G75*
G02*
X154950000Y-80125000I1700000J0D01*
G01*
%TO.C,TP14*%
X167900000Y-56800000D02*
G75*
G02*
X164500000Y-56800000I-1700000J0D01*
G01*
X164500000Y-56800000D02*
G75*
G02*
X167900000Y-56800000I1700000J0D01*
G01*
%TO.C,TP44*%
X104891666Y-80125000D02*
G75*
G02*
X101491666Y-80125000I-1700000J0D01*
G01*
X101491666Y-80125000D02*
G75*
G02*
X104891666Y-80125000I1700000J0D01*
G01*
%TO.C,TP4*%
X115950000Y-62300000D02*
G75*
G02*
X112550000Y-62300000I-1700000J0D01*
G01*
X112550000Y-62300000D02*
G75*
G02*
X115950000Y-62300000I1700000J0D01*
G01*
%TO.C,TP6*%
X129475000Y-56800000D02*
G75*
G02*
X126075000Y-56800000I-1700000J0D01*
G01*
X126075000Y-56800000D02*
G75*
G02*
X129475000Y-56800000I1700000J0D01*
G01*
%TO.C,TP42*%
X113075000Y-80125000D02*
G75*
G02*
X109675000Y-80125000I-1700000J0D01*
G01*
X109675000Y-80125000D02*
G75*
G02*
X113075000Y-80125000I1700000J0D01*
G01*
%TO.C,TP30*%
X119150000Y-80125000D02*
G75*
G02*
X115750000Y-80125000I-1700000J0D01*
G01*
X115750000Y-80125000D02*
G75*
G02*
X119150000Y-80125000I1700000J0D01*
G01*
%TO.C,TP28*%
X96050000Y-69200000D02*
G75*
G02*
X92650000Y-69200000I-1700000J0D01*
G01*
X92650000Y-69200000D02*
G75*
G02*
X96050000Y-69200000I1700000J0D01*
G01*
%TO.C,TP16*%
X162312500Y-62300000D02*
G75*
G02*
X158912500Y-62300000I-1700000J0D01*
G01*
X158912500Y-62300000D02*
G75*
G02*
X162312500Y-62300000I1700000J0D01*
G01*
%TO.C,TP10*%
X147412500Y-62300000D02*
G75*
G02*
X144012500Y-62300000I-1700000J0D01*
G01*
X144012500Y-62300000D02*
G75*
G02*
X147412500Y-62300000I1700000J0D01*
G01*
%TO.C,TP47*%
X96050000Y-77900000D02*
G75*
G02*
X92650000Y-77900000I-1700000J0D01*
G01*
X92650000Y-77900000D02*
G75*
G02*
X96050000Y-77900000I1700000J0D01*
G01*
%TO.C,TP26*%
X96050000Y-60500000D02*
G75*
G02*
X92650000Y-60500000I-1700000J0D01*
G01*
X92650000Y-60500000D02*
G75*
G02*
X96050000Y-60500000I1700000J0D01*
G01*
%TO.C,TP39*%
X141918452Y-80125000D02*
G75*
G02*
X138518452Y-80125000I-1700000J0D01*
G01*
X138518452Y-80125000D02*
G75*
G02*
X141918452Y-80125000I1700000J0D01*
G01*
%TO.C,TP3*%
X111500000Y-56800000D02*
G75*
G02*
X108100000Y-56800000I-1700000J0D01*
G01*
X108100000Y-56800000D02*
G75*
G02*
X111500000Y-56800000I1700000J0D01*
G01*
%TO.C,TP38*%
X146850000Y-80125000D02*
G75*
G02*
X143450000Y-80125000I-1700000J0D01*
G01*
X143450000Y-80125000D02*
G75*
G02*
X146850000Y-80125000I1700000J0D01*
G01*
%TO.C,TP7*%
X129475000Y-62300000D02*
G75*
G02*
X126075000Y-62300000I-1700000J0D01*
G01*
X126075000Y-62300000D02*
G75*
G02*
X129475000Y-62300000I1700000J0D01*
G01*
%TO.C,TP21*%
X136300000Y-62300000D02*
G75*
G02*
X132900000Y-62300000I-1700000J0D01*
G01*
X132900000Y-62300000D02*
G75*
G02*
X136300000Y-62300000I1700000J0D01*
G01*
%TO.C,TP40*%
X137968452Y-80125000D02*
G75*
G02*
X134568452Y-80125000I-1700000J0D01*
G01*
X134568452Y-80125000D02*
G75*
G02*
X137968452Y-80125000I1700000J0D01*
G01*
%TO.C,TP8*%
X136300000Y-56800000D02*
G75*
G02*
X132900000Y-56800000I-1700000J0D01*
G01*
X132900000Y-56800000D02*
G75*
G02*
X136300000Y-56800000I1700000J0D01*
G01*
%TO.C,TP34*%
X165750000Y-80125000D02*
G75*
G02*
X162350000Y-80125000I-1700000J0D01*
G01*
X162350000Y-80125000D02*
G75*
G02*
X165750000Y-80125000I1700000J0D01*
G01*
%TO.C,TP18*%
X153675000Y-62300000D02*
G75*
G02*
X150275000Y-62300000I-1700000J0D01*
G01*
X150275000Y-62300000D02*
G75*
G02*
X153675000Y-62300000I1700000J0D01*
G01*
%TO.C,TP46*%
X96050000Y-82250000D02*
G75*
G02*
X92650000Y-82250000I-1700000J0D01*
G01*
X92650000Y-82250000D02*
G75*
G02*
X96050000Y-82250000I1700000J0D01*
G01*
%TO.C,TP43*%
X108983332Y-80125000D02*
G75*
G02*
X105583332Y-80125000I-1700000J0D01*
G01*
X105583332Y-80125000D02*
G75*
G02*
X108983332Y-80125000I1700000J0D01*
G01*
%TO.C,TP22*%
X122875000Y-62300000D02*
G75*
G02*
X119475000Y-62300000I-1700000J0D01*
G01*
X119475000Y-62300000D02*
G75*
G02*
X122875000Y-62300000I1700000J0D01*
G01*
%TO.C,TP25*%
X103700000Y-62300000D02*
G75*
G02*
X100300000Y-62300000I-1700000J0D01*
G01*
X100300000Y-62300000D02*
G75*
G02*
X103700000Y-62300000I1700000J0D01*
G01*
%TO.C,TP24*%
X108900000Y-62300000D02*
G75*
G02*
X105500000Y-62300000I-1700000J0D01*
G01*
X105500000Y-62300000D02*
G75*
G02*
X108900000Y-62300000I1700000J0D01*
G01*
%TO.C,TP37*%
X160075000Y-80125000D02*
G75*
G02*
X156675000Y-80125000I-1700000J0D01*
G01*
X156675000Y-80125000D02*
G75*
G02*
X160075000Y-80125000I1700000J0D01*
G01*
%TO.C,TP27*%
X96050000Y-64850000D02*
G75*
G02*
X92650000Y-64850000I-1700000J0D01*
G01*
X92650000Y-64850000D02*
G75*
G02*
X96050000Y-64850000I1700000J0D01*
G01*
%TO.C,TP41*%
X124725000Y-80125000D02*
G75*
G02*
X121325000Y-80125000I-1700000J0D01*
G01*
X121325000Y-80125000D02*
G75*
G02*
X124725000Y-80125000I1700000J0D01*
G01*
%TO.C,TP17*%
X158250000Y-62300000D02*
G75*
G02*
X154850000Y-62300000I-1700000J0D01*
G01*
X154850000Y-62300000D02*
G75*
G02*
X158250000Y-62300000I1700000J0D01*
G01*
%TO.C,TP1*%
X101250000Y-56800000D02*
G75*
G02*
X97850000Y-56800000I-1700000J0D01*
G01*
X97850000Y-56800000D02*
G75*
G02*
X101250000Y-56800000I1700000J0D01*
G01*
%TO.C,TP5*%
X122875000Y-56800000D02*
G75*
G02*
X119475000Y-56800000I-1700000J0D01*
G01*
X119475000Y-56800000D02*
G75*
G02*
X122875000Y-56800000I1700000J0D01*
G01*
%TO.C,TP35*%
X170325000Y-71350000D02*
G75*
G02*
X166925000Y-71350000I-1700000J0D01*
G01*
X166925000Y-71350000D02*
G75*
G02*
X170325000Y-71350000I1700000J0D01*
G01*
%TO.C,TP11*%
X133175000Y-80125000D02*
G75*
G02*
X129775000Y-80125000I-1700000J0D01*
G01*
X129775000Y-80125000D02*
G75*
G02*
X133175000Y-80125000I1700000J0D01*
G01*
%TO.C,TP12*%
X156600000Y-56800000D02*
G75*
G02*
X153200000Y-56800000I-1700000J0D01*
G01*
X153200000Y-56800000D02*
G75*
G02*
X156600000Y-56800000I1700000J0D01*
G01*
%TO.C,TP13*%
X162350000Y-56800000D02*
G75*
G02*
X158950000Y-56800000I-1700000J0D01*
G01*
X158950000Y-56800000D02*
G75*
G02*
X162350000Y-56800000I1700000J0D01*
G01*
%TO.C,TP32*%
X150900000Y-80125000D02*
G75*
G02*
X147500000Y-80125000I-1700000J0D01*
G01*
X147500000Y-80125000D02*
G75*
G02*
X150900000Y-80125000I1700000J0D01*
G01*
%TD*%
M02*
