%TF.GenerationSoftware,KiCad,Pcbnew,8.0.6*%
%TF.CreationDate,2024-11-11T13:09:46+02:00*%
%TF.ProjectId,PC104_Debug_PCB,50433130-345f-4446-9562-75675f504342,rev?*%
%TF.SameCoordinates,Original*%
%TF.FileFunction,Copper,L2,Bot*%
%TF.FilePolarity,Positive*%
%FSLAX46Y46*%
G04 Gerber Fmt 4.6, Leading zero omitted, Abs format (unit mm)*
G04 Created by KiCad (PCBNEW 8.0.6) date 2024-11-11 13:09:46*
%MOMM*%
%LPD*%
G01*
G04 APERTURE LIST*
%TA.AperFunction,ComponentPad*%
%ADD10C,3.000000*%
%TD*%
%TA.AperFunction,ComponentPad*%
%ADD11C,1.550000*%
%TD*%
%TA.AperFunction,Conductor*%
%ADD12C,0.200000*%
%TD*%
G04 APERTURE END LIST*
D10*
%TO.P,TP36,1,1*%
%TO.N,/OBC_5V_ADM*%
X168625000Y-75200000D03*
%TD*%
%TO.P,TP23,1,1*%
%TO.N,/RED_OBC_Tx*%
X114250000Y-56800000D03*
%TD*%
%TO.P,TP2,1,1*%
%TO.N,/COMMS_SWCLK*%
X104675000Y-56800000D03*
%TD*%
%TO.P,TP9,1,1*%
%TO.N,/ADCS_5V*%
X141450000Y-62300000D03*
%TD*%
%TO.P,TP15,1,1*%
%TO.N,/EPS_GPIO_F*%
X164675000Y-62300000D03*
%TD*%
%TO.P,TP29,1,1*%
%TO.N,/ADCS_CAN_H*%
X94350000Y-73550000D03*
%TD*%
%TO.P,TP45,1,1*%
%TO.N,/ADCS_RS422_RX_P*%
X99100000Y-80125000D03*
%TD*%
%TO.P,TP31,1,1*%
%TO.N,/ADCS_UART_RX*%
X126900000Y-80125000D03*
%TD*%
%TO.P,TP33,1,1*%
%TO.N,/EPS_GPIO_C*%
X153250000Y-80125000D03*
%TD*%
%TO.P,TP14,1,1*%
%TO.N,/EPS_GPIO_I*%
X166200000Y-56800000D03*
%TD*%
%TO.P,TP44,1,1*%
%TO.N,/ADCS_RS422_RX_N*%
X103191666Y-80125000D03*
%TD*%
%TO.P,TP4,1,1*%
%TO.N,/RED_OBC_Rx*%
X114250000Y-62300000D03*
%TD*%
%TO.P,TP6,1,1*%
%TO.N,/ADCS_ENABLE*%
X127775000Y-56800000D03*
%TD*%
%TO.P,TP42,1,1*%
%TO.N,/ADCS_RS422_TX_N*%
X111375000Y-80125000D03*
%TD*%
%TO.P,TP30,1,1*%
%TO.N,/ADCS_PPS*%
X117450000Y-80125000D03*
%TD*%
%TO.P,TP28,1,1*%
%TO.N,/ADCS_CAN_L*%
X94350000Y-69200000D03*
%TD*%
%TO.P,TP16,1,1*%
%TO.N,/EPS_GPIO_E*%
X160612500Y-62300000D03*
%TD*%
%TO.P,TP10,1,1*%
%TO.N,/ADCS_3V3*%
X145712500Y-62300000D03*
%TD*%
%TO.P,TP47,1,1*%
%TO.N,/CANL_A*%
X94350000Y-77900000D03*
%TD*%
%TO.P,TP26,1,1*%
%TO.N,/CANH_B*%
X94350000Y-60500000D03*
%TD*%
%TO.P,TP39,1,1*%
%TO.N,/I2C_SCL*%
X140218452Y-80125000D03*
%TD*%
%TO.P,TP3,1,1*%
%TO.N,/COMMS_3V3_REF*%
X109800000Y-56800000D03*
%TD*%
%TO.P,TP38,1,1*%
%TO.N,/EPS_GPIO_A*%
X145150000Y-80125000D03*
%TD*%
%TO.P,TP7,1,1*%
%TO.N,/ADCS_BOOT*%
X127775000Y-62300000D03*
%TD*%
%TO.P,TP21,1,1*%
%TO.N,/COMMS_Tx*%
X134600000Y-62300000D03*
%TD*%
%TO.P,TP40,1,1*%
%TO.N,/I2C_SDA*%
X136268452Y-80125000D03*
%TD*%
%TO.P,TP8,1,1*%
%TO.N,/COMMS_Rx*%
X134600000Y-56800000D03*
%TD*%
%TO.P,TP34,1,1*%
%TO.N,/3V3_OBC*%
X164050000Y-80125000D03*
%TD*%
D11*
%TO.P,J2,1,1*%
%TO.N,unconnected-(J2-Pad1)*%
X99630000Y-67575000D03*
%TO.P,J2,2,2*%
%TO.N,/CANL_B*%
X99630000Y-70115000D03*
%TO.P,J2,3,3*%
%TO.N,unconnected-(J2-Pad3)*%
X102170000Y-67575000D03*
%TO.P,J2,4,4*%
%TO.N,/CANH_B*%
X102170000Y-70115000D03*
%TO.P,J2,5,5*%
%TO.N,/COMMS_SWOTRACE*%
X104710000Y-67575000D03*
%TO.P,J2,6,6*%
%TO.N,unconnected-(J2-Pad6)*%
X104710000Y-70115000D03*
%TO.P,J2,7,7*%
%TO.N,/COMMS_SWCLK*%
X107250000Y-67575000D03*
%TO.P,J2,8,8*%
%TO.N,/COMMS_SWD*%
X107250000Y-70115000D03*
%TO.P,J2,9,9*%
%TO.N,/COMMS_3V3_REF*%
X109790000Y-67575000D03*
%TO.P,J2,10,10*%
%TO.N,/COMMS_RST*%
X109790000Y-70115000D03*
%TO.P,J2,11,11*%
%TO.N,/RED_OBC_Rx*%
X112330000Y-67575000D03*
%TO.P,J2,12,12*%
%TO.N,/RED_OBC_Tx*%
X112330000Y-70115000D03*
%TO.P,J2,13,13*%
%TO.N,/OBC_Rx*%
X114870000Y-67575000D03*
%TO.P,J2,14,14*%
%TO.N,/OBC_Tx*%
X114870000Y-70115000D03*
%TO.P,J2,15,15*%
%TO.N,unconnected-(J2-Pad15)*%
X117410000Y-67575000D03*
%TO.P,J2,16,16*%
%TO.N,unconnected-(J2-Pad16)*%
X117410000Y-70115000D03*
%TO.P,J2,17,17*%
%TO.N,/ADCS_ENABLE*%
X119950000Y-67575000D03*
%TO.P,J2,18,18*%
%TO.N,unconnected-(J2-Pad18)*%
X119950000Y-70115000D03*
%TO.P,J2,19,19*%
%TO.N,/ADCS_BOOT*%
X122490000Y-67575000D03*
%TO.P,J2,20,20*%
%TO.N,unconnected-(J2-Pad20)*%
X122490000Y-70115000D03*
%TO.P,J2,21,21*%
%TO.N,/COMMS_Rx*%
X125030000Y-67575000D03*
%TO.P,J2,22,22*%
%TO.N,/COMMS_Tx*%
X125030000Y-70115000D03*
%TO.P,J2,23,23*%
%TO.N,unconnected-(J2-Pad23)*%
X127570000Y-67575000D03*
%TO.P,J2,24,24*%
%TO.N,unconnected-(J2-Pad24)*%
X127570000Y-70115000D03*
%TO.P,J2,25,25*%
%TO.N,/ADCS_5V*%
X130110000Y-67575000D03*
%TO.P,J2,26,26*%
X130110000Y-70115000D03*
%TO.P,J2,27,27*%
%TO.N,/ADCS_3V3*%
X132650000Y-67575000D03*
%TO.P,J2,28,28*%
X132650000Y-70115000D03*
%TO.P,J2,29,29*%
%TO.N,GND*%
X135190000Y-67575000D03*
%TO.P,J2,30,30*%
X135190000Y-70115000D03*
%TO.P,J2,31,31*%
X137730000Y-67575000D03*
%TO.P,J2,32,32*%
%TO.N,unconnected-(J2-Pad32)*%
X137730000Y-70115000D03*
%TO.P,J2,33,33*%
%TO.N,unconnected-(J2-Pad33)*%
X140270000Y-67575000D03*
%TO.P,J2,34,34*%
%TO.N,unconnected-(J2-Pad34)*%
X140270000Y-70115000D03*
%TO.P,J2,35,35*%
%TO.N,unconnected-(J2-Pad35)*%
X142810000Y-67575000D03*
%TO.P,J2,36,36*%
%TO.N,unconnected-(J2-Pad36)*%
X142810000Y-70115000D03*
%TO.P,J2,37,37*%
%TO.N,unconnected-(J2-Pad37)*%
X145350000Y-67575000D03*
%TO.P,J2,38,38*%
%TO.N,unconnected-(J2-Pad38)*%
X145350000Y-70115000D03*
%TO.P,J2,39,39*%
%TO.N,GND*%
X147890000Y-67575000D03*
%TO.P,J2,40,40*%
X147890000Y-70115000D03*
%TO.P,J2,41,41*%
X150430000Y-67575000D03*
%TO.P,J2,42,42*%
X150430000Y-70115000D03*
%TO.P,J2,43,43*%
X152970000Y-67575000D03*
%TO.P,J2,44,44*%
X152970000Y-70115000D03*
%TO.P,J2,45,45*%
%TO.N,/EPS_VBAT*%
X155510000Y-67575000D03*
%TO.P,J2,46,46*%
X155510000Y-70115000D03*
%TO.P,J2,47,47*%
%TO.N,/EPS_GPIO_G*%
X158050000Y-67575000D03*
%TO.P,J2,48,48*%
%TO.N,/EPS_GPIO_D*%
X158050000Y-70115000D03*
%TO.P,J2,49,49*%
%TO.N,/EPS_GPIO_H*%
X160590000Y-67575000D03*
%TO.P,J2,50,50*%
%TO.N,/EPS_GPIO_E*%
X160590000Y-70115000D03*
%TO.P,J2,51,51*%
%TO.N,/EPS_GPIO_I*%
X163130000Y-67575000D03*
%TO.P,J2,52,52*%
%TO.N,/EPS_GPIO_F*%
X163130000Y-70115000D03*
%TD*%
D10*
%TO.P,TP18,1,1*%
%TO.N,/EPS_VBAT*%
X151975000Y-62300000D03*
%TD*%
%TO.P,TP46,1,1*%
%TO.N,/CANH_A*%
X94350000Y-82250000D03*
%TD*%
%TO.P,TP43,1,1*%
%TO.N,/ADCS_RS422_TX_P*%
X107283332Y-80125000D03*
%TD*%
%TO.P,TP22,1,1*%
%TO.N,/OBC_Tx*%
X121175000Y-62300000D03*
%TD*%
%TO.P,TP25,1,1*%
%TO.N,/COMMS_SWD*%
X102000000Y-62300000D03*
%TD*%
%TO.P,TP24,1,1*%
%TO.N,/COMMS_RST*%
X107200000Y-62300000D03*
%TD*%
%TO.P,TP37,1,1*%
%TO.N,/OBC_5V_PANELS*%
X158375000Y-80125000D03*
%TD*%
%TO.P,TP27,1,1*%
%TO.N,/CANL_B*%
X94350000Y-64850000D03*
%TD*%
%TO.P,TP41,1,1*%
%TO.N,/ADCS_UART_TX*%
X123025000Y-80125000D03*
%TD*%
%TO.P,TP17,1,1*%
%TO.N,/EPS_GPIO_D*%
X156550000Y-62300000D03*
%TD*%
%TO.P,TP1,1,1*%
%TO.N,/COMMS_SWOTRACE*%
X99550000Y-56800000D03*
%TD*%
%TO.P,TP5,1,1*%
%TO.N,/OBC_Rx*%
X121175000Y-56800000D03*
%TD*%
%TO.P,TP35,1,1*%
%TO.N,/3V3_RED_OBC*%
X168625000Y-71350000D03*
%TD*%
%TO.P,TP11,1,1*%
%TO.N,GND*%
X131475000Y-80125000D03*
%TD*%
D11*
%TO.P,J1,1,1*%
%TO.N,/ADCS_CAN_L*%
X99630000Y-72655000D03*
%TO.P,J1,2,2*%
%TO.N,/CANL_A*%
X99630000Y-75195000D03*
%TO.P,J1,3,3*%
%TO.N,/ADCS_CAN_H*%
X102170000Y-72655000D03*
%TO.P,J1,4,4*%
%TO.N,/CANH_A*%
X102170000Y-75195000D03*
%TO.P,J1,5,5*%
%TO.N,unconnected-(J1-Pad5)*%
X104710000Y-72655000D03*
%TO.P,J1,6,6*%
%TO.N,unconnected-(J1-Pad6)*%
X104710000Y-75195000D03*
%TO.P,J1,7,7*%
%TO.N,unconnected-(J1-Pad7)*%
X107250000Y-72655000D03*
%TO.P,J1,8,8*%
%TO.N,unconnected-(J1-Pad8)*%
X107250000Y-75195000D03*
%TO.P,J1,9,9*%
%TO.N,unconnected-(J1-Pad9)*%
X109790000Y-72655000D03*
%TO.P,J1,10,10*%
%TO.N,/ADCS_RS422_RX_P*%
X109790000Y-75195000D03*
%TO.P,J1,11,11*%
%TO.N,unconnected-(J1-Pad11)*%
X112330000Y-72655000D03*
%TO.P,J1,12,12*%
%TO.N,/ADCS_RS422_RX_N*%
X112330000Y-75195000D03*
%TO.P,J1,13,13*%
%TO.N,/ADCS_PPS*%
X114870000Y-72655000D03*
%TO.P,J1,14,14*%
%TO.N,/ADCS_RS422_TX_P*%
X114870000Y-75195000D03*
%TO.P,J1,15,15*%
%TO.N,unconnected-(J1-Pad15)*%
X117410000Y-72655000D03*
%TO.P,J1,16,16*%
%TO.N,/ADCS_RS422_TX_N*%
X117410000Y-75195000D03*
%TO.P,J1,17,17*%
%TO.N,unconnected-(J1-Pad17)*%
X119950000Y-72655000D03*
%TO.P,J1,18,18*%
%TO.N,unconnected-(J1-Pad18)*%
X119950000Y-75195000D03*
%TO.P,J1,19,19*%
%TO.N,/ADCS_UART_RX*%
X122490000Y-72655000D03*
%TO.P,J1,20,20*%
%TO.N,/ADCS_UART_TX*%
X122490000Y-75195000D03*
%TO.P,J1,21,21*%
%TO.N,unconnected-(J1-Pad21)*%
X125030000Y-72655000D03*
%TO.P,J1,22,22*%
%TO.N,unconnected-(J1-Pad22)*%
X125030000Y-75195000D03*
%TO.P,J1,23,23*%
%TO.N,unconnected-(J1-Pad23)*%
X127570000Y-72655000D03*
%TO.P,J1,24,24*%
%TO.N,unconnected-(J1-Pad24)*%
X127570000Y-75195000D03*
%TO.P,J1,25,25*%
%TO.N,unconnected-(J1-Pad25)*%
X130110000Y-72655000D03*
%TO.P,J1,26,26*%
%TO.N,unconnected-(J1-Pad26)*%
X130110000Y-75195000D03*
%TO.P,J1,27,27*%
%TO.N,GND*%
X132650000Y-72655000D03*
%TO.P,J1,28,28*%
X132650000Y-75195000D03*
%TO.P,J1,29,29*%
%TO.N,unconnected-(J1-Pad29)*%
X135190000Y-72655000D03*
%TO.P,J1,30,30*%
%TO.N,unconnected-(J1-Pad30)*%
X135190000Y-75195000D03*
%TO.P,J1,31,31*%
%TO.N,GND*%
X137730000Y-72655000D03*
%TO.P,J1,32,32*%
X137730000Y-75195000D03*
%TO.P,J1,33,33*%
%TO.N,unconnected-(J1-Pad33)*%
X140270000Y-72655000D03*
%TO.P,J1,34,34*%
%TO.N,unconnected-(J1-Pad34)*%
X140270000Y-75195000D03*
%TO.P,J1,35,35*%
%TO.N,unconnected-(J1-Pad35)*%
X142810000Y-72655000D03*
%TO.P,J1,36,36*%
%TO.N,unconnected-(J1-Pad36)*%
X142810000Y-75195000D03*
%TO.P,J1,37,37*%
%TO.N,unconnected-(J1-Pad37)*%
X145350000Y-72655000D03*
%TO.P,J1,38,38*%
%TO.N,unconnected-(J1-Pad38)*%
X145350000Y-75195000D03*
%TO.P,J1,39,39*%
%TO.N,GND*%
X147890000Y-72655000D03*
%TO.P,J1,40,40*%
X147890000Y-75195000D03*
%TO.P,J1,41,41*%
X150430000Y-72655000D03*
%TO.P,J1,42,42*%
%TO.N,/I2C_SDA*%
X150430000Y-75195000D03*
%TO.P,J1,43,43*%
%TO.N,/EPS_GPIO_B*%
X152970000Y-72655000D03*
%TO.P,J1,44,44*%
%TO.N,/I2C_SCL*%
X152970000Y-75195000D03*
%TO.P,J1,45,45*%
%TO.N,/EPS_GPIO_C*%
X155510000Y-72655000D03*
%TO.P,J1,46,46*%
%TO.N,/EPS_GPIO_A*%
X155510000Y-75195000D03*
%TO.P,J1,47,47*%
%TO.N,/3V3_OBC*%
X158050000Y-72655000D03*
%TO.P,J1,48,48*%
%TO.N,/OBC_5V_PANELS*%
X158050000Y-75195000D03*
%TO.P,J1,49,49*%
%TO.N,/3V3_RED_OBC*%
X160590000Y-72655000D03*
%TO.P,J1,50,50*%
%TO.N,/OBC_5V_ADM*%
X160590000Y-75195000D03*
%TO.P,J1,51,51*%
%TO.N,unconnected-(J1-Pad51)*%
X163130000Y-72655000D03*
%TO.P,J1,52,52*%
%TO.N,/OBC_5V_ADM*%
X163130000Y-75195000D03*
%TD*%
D10*
%TO.P,TP12,1,1*%
%TO.N,/EPS_GPIO_G*%
X154900000Y-56800000D03*
%TD*%
%TO.P,TP13,1,1*%
%TO.N,/EPS_GPIO_H*%
X160650000Y-56800000D03*
%TD*%
%TO.P,TP32,1,1*%
%TO.N,/EPS_GPIO_B*%
X149200000Y-80125000D03*
%TD*%
D12*
%TO.N,/ADCS_PPS*%
X116125000Y-78800000D02*
X117450000Y-80125000D01*
X114870000Y-72655000D02*
X116125000Y-73910000D01*
X116125000Y-73910000D02*
X116125000Y-78800000D01*
%TO.N,/EPS_GPIO_A*%
X147325000Y-77950000D02*
X145150000Y-80125000D01*
X152945000Y-77950000D02*
X147325000Y-77950000D01*
X155510000Y-75195000D02*
X155510000Y-75385000D01*
X155510000Y-75385000D02*
X152945000Y-77950000D01*
%TO.N,/EPS_GPIO_D*%
X156800000Y-68865000D02*
X158050000Y-70115000D01*
X156550000Y-62300000D02*
X156800000Y-62550000D01*
X156800000Y-62550000D02*
X156800000Y-68865000D01*
%TO.N,/EPS_GPIO_E*%
X160612500Y-62300000D02*
X159350000Y-63562500D01*
X159350000Y-63562500D02*
X159350000Y-68875000D01*
X159350000Y-68875000D02*
X160590000Y-70115000D01*
%TD*%
M02*
